%TF.GenerationSoftware,KiCad,Pcbnew,8.0.4*%
%TF.CreationDate,2025-03-04T17:04:42-07:00*%
%TF.ProjectId,Main Processing Board,4d61696e-2050-4726-9f63-657373696e67,rev?*%
%TF.SameCoordinates,Original*%
%TF.FileFunction,Legend,Bot*%
%TF.FilePolarity,Positive*%
%FSLAX46Y46*%
G04 Gerber Fmt 4.6, Leading zero omitted, Abs format (unit mm)*
G04 Created by KiCad (PCBNEW 8.0.4) date 2025-03-04 17:04:42*
%MOMM*%
%LPD*%
G01*
G04 APERTURE LIST*
%ADD10C,0.100000*%
%ADD11C,0.127000*%
%ADD12C,0.203200*%
G04 APERTURE END LIST*
D10*
X124729143Y-78932721D02*
X124586286Y-78980340D01*
X124586286Y-78980340D02*
X124538667Y-79027959D01*
X124538667Y-79027959D02*
X124491048Y-79123197D01*
X124491048Y-79123197D02*
X124491048Y-79266054D01*
X124491048Y-79266054D02*
X124538667Y-79361292D01*
X124538667Y-79361292D02*
X124586286Y-79408912D01*
X124586286Y-79408912D02*
X124681524Y-79456531D01*
X124681524Y-79456531D02*
X125062476Y-79456531D01*
X125062476Y-79456531D02*
X125062476Y-78456531D01*
X125062476Y-78456531D02*
X124729143Y-78456531D01*
X124729143Y-78456531D02*
X124633905Y-78504150D01*
X124633905Y-78504150D02*
X124586286Y-78551769D01*
X124586286Y-78551769D02*
X124538667Y-78647007D01*
X124538667Y-78647007D02*
X124538667Y-78742245D01*
X124538667Y-78742245D02*
X124586286Y-78837483D01*
X124586286Y-78837483D02*
X124633905Y-78885102D01*
X124633905Y-78885102D02*
X124729143Y-78932721D01*
X124729143Y-78932721D02*
X125062476Y-78932721D01*
X123872000Y-78980340D02*
X123872000Y-79456531D01*
X124205333Y-78456531D02*
X123872000Y-78980340D01*
X123872000Y-78980340D02*
X123538667Y-78456531D01*
X123205333Y-78456531D02*
X123205333Y-79266054D01*
X123205333Y-79266054D02*
X123157714Y-79361292D01*
X123157714Y-79361292D02*
X123110095Y-79408912D01*
X123110095Y-79408912D02*
X123014857Y-79456531D01*
X123014857Y-79456531D02*
X122824381Y-79456531D01*
X122824381Y-79456531D02*
X122729143Y-79408912D01*
X122729143Y-79408912D02*
X122681524Y-79361292D01*
X122681524Y-79361292D02*
X122633905Y-79266054D01*
X122633905Y-79266054D02*
X122633905Y-78456531D01*
X121443428Y-79408912D02*
X121300571Y-79456531D01*
X121300571Y-79456531D02*
X121062476Y-79456531D01*
X121062476Y-79456531D02*
X120967238Y-79408912D01*
X120967238Y-79408912D02*
X120919619Y-79361292D01*
X120919619Y-79361292D02*
X120872000Y-79266054D01*
X120872000Y-79266054D02*
X120872000Y-79170816D01*
X120872000Y-79170816D02*
X120919619Y-79075578D01*
X120919619Y-79075578D02*
X120967238Y-79027959D01*
X120967238Y-79027959D02*
X121062476Y-78980340D01*
X121062476Y-78980340D02*
X121252952Y-78932721D01*
X121252952Y-78932721D02*
X121348190Y-78885102D01*
X121348190Y-78885102D02*
X121395809Y-78837483D01*
X121395809Y-78837483D02*
X121443428Y-78742245D01*
X121443428Y-78742245D02*
X121443428Y-78647007D01*
X121443428Y-78647007D02*
X121395809Y-78551769D01*
X121395809Y-78551769D02*
X121348190Y-78504150D01*
X121348190Y-78504150D02*
X121252952Y-78456531D01*
X121252952Y-78456531D02*
X121014857Y-78456531D01*
X121014857Y-78456531D02*
X120872000Y-78504150D01*
X120443428Y-79456531D02*
X120443428Y-78456531D01*
X120443428Y-78456531D02*
X120062476Y-78456531D01*
X120062476Y-78456531D02*
X119967238Y-78504150D01*
X119967238Y-78504150D02*
X119919619Y-78551769D01*
X119919619Y-78551769D02*
X119872000Y-78647007D01*
X119872000Y-78647007D02*
X119872000Y-78789864D01*
X119872000Y-78789864D02*
X119919619Y-78885102D01*
X119919619Y-78885102D02*
X119967238Y-78932721D01*
X119967238Y-78932721D02*
X120062476Y-78980340D01*
X120062476Y-78980340D02*
X120443428Y-78980340D01*
X119491047Y-79170816D02*
X119014857Y-79170816D01*
X119586285Y-79456531D02*
X119252952Y-78456531D01*
X119252952Y-78456531D02*
X118919619Y-79456531D01*
X118014857Y-79361292D02*
X118062476Y-79408912D01*
X118062476Y-79408912D02*
X118205333Y-79456531D01*
X118205333Y-79456531D02*
X118300571Y-79456531D01*
X118300571Y-79456531D02*
X118443428Y-79408912D01*
X118443428Y-79408912D02*
X118538666Y-79313673D01*
X118538666Y-79313673D02*
X118586285Y-79218435D01*
X118586285Y-79218435D02*
X118633904Y-79027959D01*
X118633904Y-79027959D02*
X118633904Y-78885102D01*
X118633904Y-78885102D02*
X118586285Y-78694626D01*
X118586285Y-78694626D02*
X118538666Y-78599388D01*
X118538666Y-78599388D02*
X118443428Y-78504150D01*
X118443428Y-78504150D02*
X118300571Y-78456531D01*
X118300571Y-78456531D02*
X118205333Y-78456531D01*
X118205333Y-78456531D02*
X118062476Y-78504150D01*
X118062476Y-78504150D02*
X118014857Y-78551769D01*
X117586285Y-78932721D02*
X117252952Y-78932721D01*
X117110095Y-79456531D02*
X117586285Y-79456531D01*
X117586285Y-79456531D02*
X117586285Y-78456531D01*
X117586285Y-78456531D02*
X117110095Y-78456531D01*
X116110095Y-79361292D02*
X116157714Y-79408912D01*
X116157714Y-79408912D02*
X116300571Y-79456531D01*
X116300571Y-79456531D02*
X116395809Y-79456531D01*
X116395809Y-79456531D02*
X116538666Y-79408912D01*
X116538666Y-79408912D02*
X116633904Y-79313673D01*
X116633904Y-79313673D02*
X116681523Y-79218435D01*
X116681523Y-79218435D02*
X116729142Y-79027959D01*
X116729142Y-79027959D02*
X116729142Y-78885102D01*
X116729142Y-78885102D02*
X116681523Y-78694626D01*
X116681523Y-78694626D02*
X116633904Y-78599388D01*
X116633904Y-78599388D02*
X116538666Y-78504150D01*
X116538666Y-78504150D02*
X116395809Y-78456531D01*
X116395809Y-78456531D02*
X116300571Y-78456531D01*
X116300571Y-78456531D02*
X116157714Y-78504150D01*
X116157714Y-78504150D02*
X116110095Y-78551769D01*
X115110095Y-79456531D02*
X115443428Y-78980340D01*
X115681523Y-79456531D02*
X115681523Y-78456531D01*
X115681523Y-78456531D02*
X115300571Y-78456531D01*
X115300571Y-78456531D02*
X115205333Y-78504150D01*
X115205333Y-78504150D02*
X115157714Y-78551769D01*
X115157714Y-78551769D02*
X115110095Y-78647007D01*
X115110095Y-78647007D02*
X115110095Y-78789864D01*
X115110095Y-78789864D02*
X115157714Y-78885102D01*
X115157714Y-78885102D02*
X115205333Y-78932721D01*
X115205333Y-78932721D02*
X115300571Y-78980340D01*
X115300571Y-78980340D02*
X115681523Y-78980340D01*
X114729142Y-79170816D02*
X114252952Y-79170816D01*
X114824380Y-79456531D02*
X114491047Y-78456531D01*
X114491047Y-78456531D02*
X114157714Y-79456531D01*
X113491047Y-78932721D02*
X113824380Y-78932721D01*
X113824380Y-79456531D02*
X113824380Y-78456531D01*
X113824380Y-78456531D02*
X113348190Y-78456531D01*
X113110094Y-78456531D02*
X112538666Y-78456531D01*
X112824380Y-79456531D02*
X112824380Y-78456531D01*
X127872000Y-81066475D02*
X127872000Y-80066475D01*
X127872000Y-80066475D02*
X127491048Y-80066475D01*
X127491048Y-80066475D02*
X127395810Y-80114094D01*
X127395810Y-80114094D02*
X127348191Y-80161713D01*
X127348191Y-80161713D02*
X127300572Y-80256951D01*
X127300572Y-80256951D02*
X127300572Y-80399808D01*
X127300572Y-80399808D02*
X127348191Y-80495046D01*
X127348191Y-80495046D02*
X127395810Y-80542665D01*
X127395810Y-80542665D02*
X127491048Y-80590284D01*
X127491048Y-80590284D02*
X127872000Y-80590284D01*
X126729143Y-81066475D02*
X126824381Y-81018856D01*
X126824381Y-81018856D02*
X126872000Y-80971236D01*
X126872000Y-80971236D02*
X126919619Y-80875998D01*
X126919619Y-80875998D02*
X126919619Y-80590284D01*
X126919619Y-80590284D02*
X126872000Y-80495046D01*
X126872000Y-80495046D02*
X126824381Y-80447427D01*
X126824381Y-80447427D02*
X126729143Y-80399808D01*
X126729143Y-80399808D02*
X126586286Y-80399808D01*
X126586286Y-80399808D02*
X126491048Y-80447427D01*
X126491048Y-80447427D02*
X126443429Y-80495046D01*
X126443429Y-80495046D02*
X126395810Y-80590284D01*
X126395810Y-80590284D02*
X126395810Y-80875998D01*
X126395810Y-80875998D02*
X126443429Y-80971236D01*
X126443429Y-80971236D02*
X126491048Y-81018856D01*
X126491048Y-81018856D02*
X126586286Y-81066475D01*
X126586286Y-81066475D02*
X126729143Y-81066475D01*
X125538667Y-81018856D02*
X125633905Y-81066475D01*
X125633905Y-81066475D02*
X125824381Y-81066475D01*
X125824381Y-81066475D02*
X125919619Y-81018856D01*
X125919619Y-81018856D02*
X125967238Y-80971236D01*
X125967238Y-80971236D02*
X126014857Y-80875998D01*
X126014857Y-80875998D02*
X126014857Y-80590284D01*
X126014857Y-80590284D02*
X125967238Y-80495046D01*
X125967238Y-80495046D02*
X125919619Y-80447427D01*
X125919619Y-80447427D02*
X125824381Y-80399808D01*
X125824381Y-80399808D02*
X125633905Y-80399808D01*
X125633905Y-80399808D02*
X125538667Y-80447427D01*
X125110095Y-81066475D02*
X125110095Y-80066475D01*
X125014857Y-80685522D02*
X124729143Y-81066475D01*
X124729143Y-80399808D02*
X125110095Y-80780760D01*
X123919619Y-81018856D02*
X124014857Y-81066475D01*
X124014857Y-81066475D02*
X124205333Y-81066475D01*
X124205333Y-81066475D02*
X124300571Y-81018856D01*
X124300571Y-81018856D02*
X124348190Y-80923617D01*
X124348190Y-80923617D02*
X124348190Y-80542665D01*
X124348190Y-80542665D02*
X124300571Y-80447427D01*
X124300571Y-80447427D02*
X124205333Y-80399808D01*
X124205333Y-80399808D02*
X124014857Y-80399808D01*
X124014857Y-80399808D02*
X123919619Y-80447427D01*
X123919619Y-80447427D02*
X123872000Y-80542665D01*
X123872000Y-80542665D02*
X123872000Y-80637903D01*
X123872000Y-80637903D02*
X124348190Y-80733141D01*
X123586285Y-80399808D02*
X123205333Y-80399808D01*
X123443428Y-80066475D02*
X123443428Y-80923617D01*
X123443428Y-80923617D02*
X123395809Y-81018856D01*
X123395809Y-81018856D02*
X123300571Y-81066475D01*
X123300571Y-81066475D02*
X123205333Y-81066475D01*
X122205333Y-81161713D02*
X122300571Y-81114094D01*
X122300571Y-81114094D02*
X122395809Y-81018856D01*
X122395809Y-81018856D02*
X122538666Y-80875998D01*
X122538666Y-80875998D02*
X122633904Y-80828379D01*
X122633904Y-80828379D02*
X122729142Y-80828379D01*
X122681523Y-81066475D02*
X122776761Y-81018856D01*
X122776761Y-81018856D02*
X122871999Y-80923617D01*
X122871999Y-80923617D02*
X122919618Y-80733141D01*
X122919618Y-80733141D02*
X122919618Y-80399808D01*
X122919618Y-80399808D02*
X122871999Y-80209332D01*
X122871999Y-80209332D02*
X122776761Y-80114094D01*
X122776761Y-80114094D02*
X122681523Y-80066475D01*
X122681523Y-80066475D02*
X122491047Y-80066475D01*
X122491047Y-80066475D02*
X122395809Y-80114094D01*
X122395809Y-80114094D02*
X122300571Y-80209332D01*
X122300571Y-80209332D02*
X122252952Y-80399808D01*
X122252952Y-80399808D02*
X122252952Y-80733141D01*
X122252952Y-80733141D02*
X122300571Y-80923617D01*
X122300571Y-80923617D02*
X122395809Y-81018856D01*
X122395809Y-81018856D02*
X122491047Y-81066475D01*
X122491047Y-81066475D02*
X122681523Y-81066475D01*
X121395809Y-80399808D02*
X121395809Y-81066475D01*
X121824380Y-80399808D02*
X121824380Y-80923617D01*
X121824380Y-80923617D02*
X121776761Y-81018856D01*
X121776761Y-81018856D02*
X121681523Y-81066475D01*
X121681523Y-81066475D02*
X121538666Y-81066475D01*
X121538666Y-81066475D02*
X121443428Y-81018856D01*
X121443428Y-81018856D02*
X121395809Y-80971236D01*
X120919618Y-81066475D02*
X120919618Y-80066475D01*
X120919618Y-80447427D02*
X120824380Y-80399808D01*
X120824380Y-80399808D02*
X120633904Y-80399808D01*
X120633904Y-80399808D02*
X120538666Y-80447427D01*
X120538666Y-80447427D02*
X120491047Y-80495046D01*
X120491047Y-80495046D02*
X120443428Y-80590284D01*
X120443428Y-80590284D02*
X120443428Y-80875998D01*
X120443428Y-80875998D02*
X120491047Y-80971236D01*
X120491047Y-80971236D02*
X120538666Y-81018856D01*
X120538666Y-81018856D02*
X120633904Y-81066475D01*
X120633904Y-81066475D02*
X120824380Y-81066475D01*
X120824380Y-81066475D02*
X120919618Y-81018856D01*
X119633904Y-81018856D02*
X119729142Y-81066475D01*
X119729142Y-81066475D02*
X119919618Y-81066475D01*
X119919618Y-81066475D02*
X120014856Y-81018856D01*
X120014856Y-81018856D02*
X120062475Y-80923617D01*
X120062475Y-80923617D02*
X120062475Y-80542665D01*
X120062475Y-80542665D02*
X120014856Y-80447427D01*
X120014856Y-80447427D02*
X119919618Y-80399808D01*
X119919618Y-80399808D02*
X119729142Y-80399808D01*
X119729142Y-80399808D02*
X119633904Y-80447427D01*
X119633904Y-80447427D02*
X119586285Y-80542665D01*
X119586285Y-80542665D02*
X119586285Y-80637903D01*
X119586285Y-80637903D02*
X120062475Y-80733141D01*
X118395808Y-81066475D02*
X118395808Y-80066475D01*
X118395808Y-80066475D02*
X118062475Y-80780760D01*
X118062475Y-80780760D02*
X117729142Y-80066475D01*
X117729142Y-80066475D02*
X117729142Y-81066475D01*
X116824380Y-81066475D02*
X116824380Y-80542665D01*
X116824380Y-80542665D02*
X116871999Y-80447427D01*
X116871999Y-80447427D02*
X116967237Y-80399808D01*
X116967237Y-80399808D02*
X117157713Y-80399808D01*
X117157713Y-80399808D02*
X117252951Y-80447427D01*
X116824380Y-81018856D02*
X116919618Y-81066475D01*
X116919618Y-81066475D02*
X117157713Y-81066475D01*
X117157713Y-81066475D02*
X117252951Y-81018856D01*
X117252951Y-81018856D02*
X117300570Y-80923617D01*
X117300570Y-80923617D02*
X117300570Y-80828379D01*
X117300570Y-80828379D02*
X117252951Y-80733141D01*
X117252951Y-80733141D02*
X117157713Y-80685522D01*
X117157713Y-80685522D02*
X116919618Y-80685522D01*
X116919618Y-80685522D02*
X116824380Y-80637903D01*
X116348189Y-81066475D02*
X116348189Y-80399808D01*
X116348189Y-80590284D02*
X116300570Y-80495046D01*
X116300570Y-80495046D02*
X116252951Y-80447427D01*
X116252951Y-80447427D02*
X116157713Y-80399808D01*
X116157713Y-80399808D02*
X116062475Y-80399808D01*
X115300570Y-81018856D02*
X115395808Y-81066475D01*
X115395808Y-81066475D02*
X115586284Y-81066475D01*
X115586284Y-81066475D02*
X115681522Y-81018856D01*
X115681522Y-81018856D02*
X115729141Y-80971236D01*
X115729141Y-80971236D02*
X115776760Y-80875998D01*
X115776760Y-80875998D02*
X115776760Y-80590284D01*
X115776760Y-80590284D02*
X115729141Y-80495046D01*
X115729141Y-80495046D02*
X115681522Y-80447427D01*
X115681522Y-80447427D02*
X115586284Y-80399808D01*
X115586284Y-80399808D02*
X115395808Y-80399808D01*
X115395808Y-80399808D02*
X115300570Y-80447427D01*
X114871998Y-81066475D02*
X114871998Y-80066475D01*
X114443427Y-81066475D02*
X114443427Y-80542665D01*
X114443427Y-80542665D02*
X114491046Y-80447427D01*
X114491046Y-80447427D02*
X114586284Y-80399808D01*
X114586284Y-80399808D02*
X114729141Y-80399808D01*
X114729141Y-80399808D02*
X114824379Y-80447427D01*
X114824379Y-80447427D02*
X114871998Y-80495046D01*
X113252950Y-80161713D02*
X113205331Y-80114094D01*
X113205331Y-80114094D02*
X113110093Y-80066475D01*
X113110093Y-80066475D02*
X112871998Y-80066475D01*
X112871998Y-80066475D02*
X112776760Y-80114094D01*
X112776760Y-80114094D02*
X112729141Y-80161713D01*
X112729141Y-80161713D02*
X112681522Y-80256951D01*
X112681522Y-80256951D02*
X112681522Y-80352189D01*
X112681522Y-80352189D02*
X112729141Y-80495046D01*
X112729141Y-80495046D02*
X113300569Y-81066475D01*
X113300569Y-81066475D02*
X112681522Y-81066475D01*
X112062474Y-80066475D02*
X111967236Y-80066475D01*
X111967236Y-80066475D02*
X111871998Y-80114094D01*
X111871998Y-80114094D02*
X111824379Y-80161713D01*
X111824379Y-80161713D02*
X111776760Y-80256951D01*
X111776760Y-80256951D02*
X111729141Y-80447427D01*
X111729141Y-80447427D02*
X111729141Y-80685522D01*
X111729141Y-80685522D02*
X111776760Y-80875998D01*
X111776760Y-80875998D02*
X111824379Y-80971236D01*
X111824379Y-80971236D02*
X111871998Y-81018856D01*
X111871998Y-81018856D02*
X111967236Y-81066475D01*
X111967236Y-81066475D02*
X112062474Y-81066475D01*
X112062474Y-81066475D02*
X112157712Y-81018856D01*
X112157712Y-81018856D02*
X112205331Y-80971236D01*
X112205331Y-80971236D02*
X112252950Y-80875998D01*
X112252950Y-80875998D02*
X112300569Y-80685522D01*
X112300569Y-80685522D02*
X112300569Y-80447427D01*
X112300569Y-80447427D02*
X112252950Y-80256951D01*
X112252950Y-80256951D02*
X112205331Y-80161713D01*
X112205331Y-80161713D02*
X112157712Y-80114094D01*
X112157712Y-80114094D02*
X112062474Y-80066475D01*
X111348188Y-80161713D02*
X111300569Y-80114094D01*
X111300569Y-80114094D02*
X111205331Y-80066475D01*
X111205331Y-80066475D02*
X110967236Y-80066475D01*
X110967236Y-80066475D02*
X110871998Y-80114094D01*
X110871998Y-80114094D02*
X110824379Y-80161713D01*
X110824379Y-80161713D02*
X110776760Y-80256951D01*
X110776760Y-80256951D02*
X110776760Y-80352189D01*
X110776760Y-80352189D02*
X110824379Y-80495046D01*
X110824379Y-80495046D02*
X111395807Y-81066475D01*
X111395807Y-81066475D02*
X110776760Y-81066475D01*
X109871998Y-80066475D02*
X110348188Y-80066475D01*
X110348188Y-80066475D02*
X110395807Y-80542665D01*
X110395807Y-80542665D02*
X110348188Y-80495046D01*
X110348188Y-80495046D02*
X110252950Y-80447427D01*
X110252950Y-80447427D02*
X110014855Y-80447427D01*
X110014855Y-80447427D02*
X109919617Y-80495046D01*
X109919617Y-80495046D02*
X109871998Y-80542665D01*
X109871998Y-80542665D02*
X109824379Y-80637903D01*
X109824379Y-80637903D02*
X109824379Y-80875998D01*
X109824379Y-80875998D02*
X109871998Y-80971236D01*
X109871998Y-80971236D02*
X109919617Y-81018856D01*
X109919617Y-81018856D02*
X110014855Y-81066475D01*
X110014855Y-81066475D02*
X110252950Y-81066475D01*
X110252950Y-81066475D02*
X110348188Y-81018856D01*
X110348188Y-81018856D02*
X110395807Y-80971236D01*
X127348190Y-82676419D02*
X127348190Y-81676419D01*
X127348190Y-81676419D02*
X127014857Y-82390704D01*
X127014857Y-82390704D02*
X126681524Y-81676419D01*
X126681524Y-81676419D02*
X126681524Y-82676419D01*
X125776762Y-82676419D02*
X125776762Y-82152609D01*
X125776762Y-82152609D02*
X125824381Y-82057371D01*
X125824381Y-82057371D02*
X125919619Y-82009752D01*
X125919619Y-82009752D02*
X126110095Y-82009752D01*
X126110095Y-82009752D02*
X126205333Y-82057371D01*
X125776762Y-82628800D02*
X125872000Y-82676419D01*
X125872000Y-82676419D02*
X126110095Y-82676419D01*
X126110095Y-82676419D02*
X126205333Y-82628800D01*
X126205333Y-82628800D02*
X126252952Y-82533561D01*
X126252952Y-82533561D02*
X126252952Y-82438323D01*
X126252952Y-82438323D02*
X126205333Y-82343085D01*
X126205333Y-82343085D02*
X126110095Y-82295466D01*
X126110095Y-82295466D02*
X125872000Y-82295466D01*
X125872000Y-82295466D02*
X125776762Y-82247847D01*
X125300571Y-82676419D02*
X125300571Y-82009752D01*
X125300571Y-81676419D02*
X125348190Y-81724038D01*
X125348190Y-81724038D02*
X125300571Y-81771657D01*
X125300571Y-81771657D02*
X125252952Y-81724038D01*
X125252952Y-81724038D02*
X125300571Y-81676419D01*
X125300571Y-81676419D02*
X125300571Y-81771657D01*
X124824381Y-82009752D02*
X124824381Y-82676419D01*
X124824381Y-82104990D02*
X124776762Y-82057371D01*
X124776762Y-82057371D02*
X124681524Y-82009752D01*
X124681524Y-82009752D02*
X124538667Y-82009752D01*
X124538667Y-82009752D02*
X124443429Y-82057371D01*
X124443429Y-82057371D02*
X124395810Y-82152609D01*
X124395810Y-82152609D02*
X124395810Y-82676419D01*
X123157714Y-82676419D02*
X123157714Y-81676419D01*
X123157714Y-81676419D02*
X122776762Y-81676419D01*
X122776762Y-81676419D02*
X122681524Y-81724038D01*
X122681524Y-81724038D02*
X122633905Y-81771657D01*
X122633905Y-81771657D02*
X122586286Y-81866895D01*
X122586286Y-81866895D02*
X122586286Y-82009752D01*
X122586286Y-82009752D02*
X122633905Y-82104990D01*
X122633905Y-82104990D02*
X122681524Y-82152609D01*
X122681524Y-82152609D02*
X122776762Y-82200228D01*
X122776762Y-82200228D02*
X123157714Y-82200228D01*
X122157714Y-82676419D02*
X122157714Y-82009752D01*
X122157714Y-82200228D02*
X122110095Y-82104990D01*
X122110095Y-82104990D02*
X122062476Y-82057371D01*
X122062476Y-82057371D02*
X121967238Y-82009752D01*
X121967238Y-82009752D02*
X121872000Y-82009752D01*
X121395809Y-82676419D02*
X121491047Y-82628800D01*
X121491047Y-82628800D02*
X121538666Y-82581180D01*
X121538666Y-82581180D02*
X121586285Y-82485942D01*
X121586285Y-82485942D02*
X121586285Y-82200228D01*
X121586285Y-82200228D02*
X121538666Y-82104990D01*
X121538666Y-82104990D02*
X121491047Y-82057371D01*
X121491047Y-82057371D02*
X121395809Y-82009752D01*
X121395809Y-82009752D02*
X121252952Y-82009752D01*
X121252952Y-82009752D02*
X121157714Y-82057371D01*
X121157714Y-82057371D02*
X121110095Y-82104990D01*
X121110095Y-82104990D02*
X121062476Y-82200228D01*
X121062476Y-82200228D02*
X121062476Y-82485942D01*
X121062476Y-82485942D02*
X121110095Y-82581180D01*
X121110095Y-82581180D02*
X121157714Y-82628800D01*
X121157714Y-82628800D02*
X121252952Y-82676419D01*
X121252952Y-82676419D02*
X121395809Y-82676419D01*
X120205333Y-82628800D02*
X120300571Y-82676419D01*
X120300571Y-82676419D02*
X120491047Y-82676419D01*
X120491047Y-82676419D02*
X120586285Y-82628800D01*
X120586285Y-82628800D02*
X120633904Y-82581180D01*
X120633904Y-82581180D02*
X120681523Y-82485942D01*
X120681523Y-82485942D02*
X120681523Y-82200228D01*
X120681523Y-82200228D02*
X120633904Y-82104990D01*
X120633904Y-82104990D02*
X120586285Y-82057371D01*
X120586285Y-82057371D02*
X120491047Y-82009752D01*
X120491047Y-82009752D02*
X120300571Y-82009752D01*
X120300571Y-82009752D02*
X120205333Y-82057371D01*
X119395809Y-82628800D02*
X119491047Y-82676419D01*
X119491047Y-82676419D02*
X119681523Y-82676419D01*
X119681523Y-82676419D02*
X119776761Y-82628800D01*
X119776761Y-82628800D02*
X119824380Y-82533561D01*
X119824380Y-82533561D02*
X119824380Y-82152609D01*
X119824380Y-82152609D02*
X119776761Y-82057371D01*
X119776761Y-82057371D02*
X119681523Y-82009752D01*
X119681523Y-82009752D02*
X119491047Y-82009752D01*
X119491047Y-82009752D02*
X119395809Y-82057371D01*
X119395809Y-82057371D02*
X119348190Y-82152609D01*
X119348190Y-82152609D02*
X119348190Y-82247847D01*
X119348190Y-82247847D02*
X119824380Y-82343085D01*
X118967237Y-82628800D02*
X118871999Y-82676419D01*
X118871999Y-82676419D02*
X118681523Y-82676419D01*
X118681523Y-82676419D02*
X118586285Y-82628800D01*
X118586285Y-82628800D02*
X118538666Y-82533561D01*
X118538666Y-82533561D02*
X118538666Y-82485942D01*
X118538666Y-82485942D02*
X118586285Y-82390704D01*
X118586285Y-82390704D02*
X118681523Y-82343085D01*
X118681523Y-82343085D02*
X118824380Y-82343085D01*
X118824380Y-82343085D02*
X118919618Y-82295466D01*
X118919618Y-82295466D02*
X118967237Y-82200228D01*
X118967237Y-82200228D02*
X118967237Y-82152609D01*
X118967237Y-82152609D02*
X118919618Y-82057371D01*
X118919618Y-82057371D02*
X118824380Y-82009752D01*
X118824380Y-82009752D02*
X118681523Y-82009752D01*
X118681523Y-82009752D02*
X118586285Y-82057371D01*
X118157713Y-82628800D02*
X118062475Y-82676419D01*
X118062475Y-82676419D02*
X117871999Y-82676419D01*
X117871999Y-82676419D02*
X117776761Y-82628800D01*
X117776761Y-82628800D02*
X117729142Y-82533561D01*
X117729142Y-82533561D02*
X117729142Y-82485942D01*
X117729142Y-82485942D02*
X117776761Y-82390704D01*
X117776761Y-82390704D02*
X117871999Y-82343085D01*
X117871999Y-82343085D02*
X118014856Y-82343085D01*
X118014856Y-82343085D02*
X118110094Y-82295466D01*
X118110094Y-82295466D02*
X118157713Y-82200228D01*
X118157713Y-82200228D02*
X118157713Y-82152609D01*
X118157713Y-82152609D02*
X118110094Y-82057371D01*
X118110094Y-82057371D02*
X118014856Y-82009752D01*
X118014856Y-82009752D02*
X117871999Y-82009752D01*
X117871999Y-82009752D02*
X117776761Y-82057371D01*
X117300570Y-82676419D02*
X117300570Y-82009752D01*
X117300570Y-81676419D02*
X117348189Y-81724038D01*
X117348189Y-81724038D02*
X117300570Y-81771657D01*
X117300570Y-81771657D02*
X117252951Y-81724038D01*
X117252951Y-81724038D02*
X117300570Y-81676419D01*
X117300570Y-81676419D02*
X117300570Y-81771657D01*
X116824380Y-82009752D02*
X116824380Y-82676419D01*
X116824380Y-82104990D02*
X116776761Y-82057371D01*
X116776761Y-82057371D02*
X116681523Y-82009752D01*
X116681523Y-82009752D02*
X116538666Y-82009752D01*
X116538666Y-82009752D02*
X116443428Y-82057371D01*
X116443428Y-82057371D02*
X116395809Y-82152609D01*
X116395809Y-82152609D02*
X116395809Y-82676419D01*
X115491047Y-82009752D02*
X115491047Y-82819276D01*
X115491047Y-82819276D02*
X115538666Y-82914514D01*
X115538666Y-82914514D02*
X115586285Y-82962133D01*
X115586285Y-82962133D02*
X115681523Y-83009752D01*
X115681523Y-83009752D02*
X115824380Y-83009752D01*
X115824380Y-83009752D02*
X115919618Y-82962133D01*
X115491047Y-82628800D02*
X115586285Y-82676419D01*
X115586285Y-82676419D02*
X115776761Y-82676419D01*
X115776761Y-82676419D02*
X115871999Y-82628800D01*
X115871999Y-82628800D02*
X115919618Y-82581180D01*
X115919618Y-82581180D02*
X115967237Y-82485942D01*
X115967237Y-82485942D02*
X115967237Y-82200228D01*
X115967237Y-82200228D02*
X115919618Y-82104990D01*
X115919618Y-82104990D02*
X115871999Y-82057371D01*
X115871999Y-82057371D02*
X115776761Y-82009752D01*
X115776761Y-82009752D02*
X115586285Y-82009752D01*
X115586285Y-82009752D02*
X115491047Y-82057371D01*
X113919618Y-82152609D02*
X113776761Y-82200228D01*
X113776761Y-82200228D02*
X113729142Y-82247847D01*
X113729142Y-82247847D02*
X113681523Y-82343085D01*
X113681523Y-82343085D02*
X113681523Y-82485942D01*
X113681523Y-82485942D02*
X113729142Y-82581180D01*
X113729142Y-82581180D02*
X113776761Y-82628800D01*
X113776761Y-82628800D02*
X113871999Y-82676419D01*
X113871999Y-82676419D02*
X114252951Y-82676419D01*
X114252951Y-82676419D02*
X114252951Y-81676419D01*
X114252951Y-81676419D02*
X113919618Y-81676419D01*
X113919618Y-81676419D02*
X113824380Y-81724038D01*
X113824380Y-81724038D02*
X113776761Y-81771657D01*
X113776761Y-81771657D02*
X113729142Y-81866895D01*
X113729142Y-81866895D02*
X113729142Y-81962133D01*
X113729142Y-81962133D02*
X113776761Y-82057371D01*
X113776761Y-82057371D02*
X113824380Y-82104990D01*
X113824380Y-82104990D02*
X113919618Y-82152609D01*
X113919618Y-82152609D02*
X114252951Y-82152609D01*
X113110094Y-82676419D02*
X113205332Y-82628800D01*
X113205332Y-82628800D02*
X113252951Y-82581180D01*
X113252951Y-82581180D02*
X113300570Y-82485942D01*
X113300570Y-82485942D02*
X113300570Y-82200228D01*
X113300570Y-82200228D02*
X113252951Y-82104990D01*
X113252951Y-82104990D02*
X113205332Y-82057371D01*
X113205332Y-82057371D02*
X113110094Y-82009752D01*
X113110094Y-82009752D02*
X112967237Y-82009752D01*
X112967237Y-82009752D02*
X112871999Y-82057371D01*
X112871999Y-82057371D02*
X112824380Y-82104990D01*
X112824380Y-82104990D02*
X112776761Y-82200228D01*
X112776761Y-82200228D02*
X112776761Y-82485942D01*
X112776761Y-82485942D02*
X112824380Y-82581180D01*
X112824380Y-82581180D02*
X112871999Y-82628800D01*
X112871999Y-82628800D02*
X112967237Y-82676419D01*
X112967237Y-82676419D02*
X113110094Y-82676419D01*
X111919618Y-82676419D02*
X111919618Y-82152609D01*
X111919618Y-82152609D02*
X111967237Y-82057371D01*
X111967237Y-82057371D02*
X112062475Y-82009752D01*
X112062475Y-82009752D02*
X112252951Y-82009752D01*
X112252951Y-82009752D02*
X112348189Y-82057371D01*
X111919618Y-82628800D02*
X112014856Y-82676419D01*
X112014856Y-82676419D02*
X112252951Y-82676419D01*
X112252951Y-82676419D02*
X112348189Y-82628800D01*
X112348189Y-82628800D02*
X112395808Y-82533561D01*
X112395808Y-82533561D02*
X112395808Y-82438323D01*
X112395808Y-82438323D02*
X112348189Y-82343085D01*
X112348189Y-82343085D02*
X112252951Y-82295466D01*
X112252951Y-82295466D02*
X112014856Y-82295466D01*
X112014856Y-82295466D02*
X111919618Y-82247847D01*
X111443427Y-82676419D02*
X111443427Y-82009752D01*
X111443427Y-82200228D02*
X111395808Y-82104990D01*
X111395808Y-82104990D02*
X111348189Y-82057371D01*
X111348189Y-82057371D02*
X111252951Y-82009752D01*
X111252951Y-82009752D02*
X111157713Y-82009752D01*
X110395808Y-82676419D02*
X110395808Y-81676419D01*
X110395808Y-82628800D02*
X110491046Y-82676419D01*
X110491046Y-82676419D02*
X110681522Y-82676419D01*
X110681522Y-82676419D02*
X110776760Y-82628800D01*
X110776760Y-82628800D02*
X110824379Y-82581180D01*
X110824379Y-82581180D02*
X110871998Y-82485942D01*
X110871998Y-82485942D02*
X110871998Y-82200228D01*
X110871998Y-82200228D02*
X110824379Y-82104990D01*
X110824379Y-82104990D02*
X110776760Y-82057371D01*
X110776760Y-82057371D02*
X110681522Y-82009752D01*
X110681522Y-82009752D02*
X110491046Y-82009752D01*
X110491046Y-82009752D02*
X110395808Y-82057371D01*
D11*
%TO.C,12111*%
X103186000Y-50043000D02*
X103186000Y-74543000D01*
X103186000Y-74543000D02*
X137186000Y-74543000D01*
D12*
X104466000Y-52578000D02*
X105101000Y-51943000D01*
X104466000Y-53848000D02*
X104466000Y-52578000D01*
X104466000Y-53848000D02*
X105101000Y-54483000D01*
X104466000Y-55118000D02*
X105101000Y-54483000D01*
X104466000Y-56388000D02*
X104466000Y-55118000D01*
X104466000Y-56388000D02*
X105101000Y-57023000D01*
X104466000Y-57658000D02*
X105101000Y-57023000D01*
X104466000Y-58928000D02*
X104466000Y-57658000D01*
X104466000Y-60198000D02*
X105101000Y-59563000D01*
X104466000Y-61468000D02*
X104466000Y-60198000D01*
X104466000Y-62738000D02*
X105101000Y-62103000D01*
X104466000Y-64008000D02*
X104466000Y-62738000D01*
X104466000Y-64008000D02*
X105101000Y-64643000D01*
X104466000Y-65278000D02*
X105101000Y-64643000D01*
X104466000Y-66548000D02*
X104466000Y-65278000D01*
X104466000Y-67818000D02*
X105101000Y-67183000D01*
X104466000Y-69088000D02*
X104466000Y-67818000D01*
X104466000Y-70358000D02*
X105101000Y-69723000D01*
X104466000Y-71628000D02*
X104466000Y-70358000D01*
X104466000Y-71628000D02*
X105101000Y-72263000D01*
X105101000Y-51943000D02*
X106371000Y-51943000D01*
X105101000Y-59563000D02*
X104466000Y-58928000D01*
X105101000Y-62103000D02*
X104466000Y-61468000D01*
X105101000Y-67183000D02*
X104466000Y-66548000D01*
X105101000Y-69723000D02*
X104466000Y-69088000D01*
X105101000Y-72263000D02*
X106371000Y-72263000D01*
X106371000Y-51943000D02*
X107006000Y-52578000D01*
X106371000Y-54483000D02*
X107006000Y-53848000D01*
X106371000Y-54483000D02*
X107006000Y-55118000D01*
X106371000Y-57023000D02*
X107006000Y-56388000D01*
X106371000Y-57023000D02*
X107006000Y-57658000D01*
X106371000Y-59563000D02*
X107006000Y-60198000D01*
X106371000Y-62103000D02*
X107006000Y-62738000D01*
X106371000Y-64643000D02*
X107006000Y-64008000D01*
X106371000Y-64643000D02*
X107006000Y-65278000D01*
X106371000Y-67183000D02*
X107006000Y-67818000D01*
X106371000Y-69723000D02*
X107006000Y-70358000D01*
X106371000Y-72263000D02*
X107006000Y-71628000D01*
X107006000Y-52578000D02*
X107006000Y-53848000D01*
X107006000Y-55118000D02*
X107006000Y-56388000D01*
X107006000Y-57658000D02*
X107006000Y-58928000D01*
X107006000Y-58928000D02*
X106371000Y-59563000D01*
X107006000Y-60198000D02*
X107006000Y-61468000D01*
X107006000Y-61468000D02*
X106371000Y-62103000D01*
X107006000Y-62738000D02*
X107006000Y-64008000D01*
X107006000Y-65278000D02*
X107006000Y-66548000D01*
X107006000Y-66548000D02*
X106371000Y-67183000D01*
X107006000Y-67818000D02*
X107006000Y-69088000D01*
X107006000Y-69088000D02*
X106371000Y-69723000D01*
X107006000Y-70358000D02*
X107006000Y-71628000D01*
D11*
X137186000Y-50043000D02*
X103186000Y-50043000D01*
X137186000Y-74543000D02*
X137186000Y-50043000D01*
%TD*%
M02*
