%TF.GenerationSoftware,KiCad,Pcbnew,8.0.4*%
%TF.CreationDate,2025-03-04T17:04:42-07:00*%
%TF.ProjectId,Main Processing Board,4d61696e-2050-4726-9f63-657373696e67,rev?*%
%TF.SameCoordinates,Original*%
%TF.FileFunction,Soldermask,Top*%
%TF.FilePolarity,Negative*%
%FSLAX46Y46*%
G04 Gerber Fmt 4.6, Leading zero omitted, Abs format (unit mm)*
G04 Created by KiCad (PCBNEW 8.0.4) date 2025-03-04 17:04:42*
%MOMM*%
%LPD*%
G01*
G04 APERTURE LIST*
G04 Aperture macros list*
%AMRoundRect*
0 Rectangle with rounded corners*
0 $1 Rounding radius*
0 $2 $3 $4 $5 $6 $7 $8 $9 X,Y pos of 4 corners*
0 Add a 4 corners polygon primitive as box body*
4,1,4,$2,$3,$4,$5,$6,$7,$8,$9,$2,$3,0*
0 Add four circle primitives for the rounded corners*
1,1,$1+$1,$2,$3*
1,1,$1+$1,$4,$5*
1,1,$1+$1,$6,$7*
1,1,$1+$1,$8,$9*
0 Add four rect primitives between the rounded corners*
20,1,$1+$1,$2,$3,$4,$5,0*
20,1,$1+$1,$4,$5,$6,$7,0*
20,1,$1+$1,$6,$7,$8,$9,0*
20,1,$1+$1,$8,$9,$2,$3,0*%
G04 Aperture macros list end*
%ADD10C,2.200000*%
%ADD11RoundRect,0.150000X-0.150000X-0.625000X0.150000X-0.625000X0.150000X0.625000X-0.150000X0.625000X0*%
%ADD12RoundRect,0.250000X-0.350000X-0.650000X0.350000X-0.650000X0.350000X0.650000X-0.350000X0.650000X0*%
%ADD13RoundRect,0.250000X-0.450000X0.350000X-0.450000X-0.350000X0.450000X-0.350000X0.450000X0.350000X0*%
%ADD14RoundRect,0.200000X0.450000X-0.200000X0.450000X0.200000X-0.450000X0.200000X-0.450000X-0.200000X0*%
%ADD15O,1.300000X0.800000*%
%ADD16RoundRect,0.150000X0.625000X-0.150000X0.625000X0.150000X-0.625000X0.150000X-0.625000X-0.150000X0*%
%ADD17RoundRect,0.250000X0.650000X-0.350000X0.650000X0.350000X-0.650000X0.350000X-0.650000X-0.350000X0*%
%ADD18RoundRect,0.525400X-0.900400X-0.525400X0.900400X-0.525400X0.900400X0.525400X-0.900400X0.525400X0*%
%ADD19RoundRect,0.300400X0.300400X-1.000400X0.300400X1.000400X-0.300400X1.000400X-0.300400X-1.000400X0*%
%ADD20C,1.700000*%
%ADD21RoundRect,0.183500X-0.183500X0.573500X-0.183500X-0.573500X0.183500X-0.573500X0.183500X0.573500X0*%
%ADD22RoundRect,0.101600X-0.750000X-0.400000X0.750000X-0.400000X0.750000X0.400000X-0.750000X0.400000X0*%
%ADD23RoundRect,0.101600X-0.950000X-0.700000X0.950000X-0.700000X0.950000X0.700000X-0.950000X0.700000X0*%
%ADD24RoundRect,0.101600X0.950000X-0.700000X0.950000X0.700000X-0.950000X0.700000X-0.950000X-0.700000X0*%
%ADD25RoundRect,0.101600X-0.700000X-0.900000X0.700000X-0.900000X0.700000X0.900000X-0.700000X0.900000X0*%
%ADD26RoundRect,0.101600X-1.079500X-0.279400X1.079500X-0.279400X1.079500X0.279400X-1.079500X0.279400X0*%
%ADD27RoundRect,0.250000X0.650000X-0.412500X0.650000X0.412500X-0.650000X0.412500X-0.650000X-0.412500X0*%
%ADD28C,3.000000*%
%ADD29C,2.082800*%
G04 APERTURE END LIST*
D10*
%TO.C,H1*%
X118900000Y-86050000D03*
%TD*%
D11*
%TO.C,I2CBus1*%
X120547000Y-76890000D03*
X121547000Y-76890000D03*
X122547000Y-76890000D03*
X123547000Y-76890000D03*
D12*
X119247000Y-74365000D03*
X124847000Y-74365000D03*
%TD*%
D13*
%TO.C,R3*%
X126873000Y-84852000D03*
X126873000Y-86852000D03*
%TD*%
D14*
%TO.C,PowerBoard1*%
X135763000Y-59924000D03*
D15*
X135763000Y-58674000D03*
X135763000Y-57424000D03*
X135763000Y-56174000D03*
%TD*%
D16*
%TO.C,J1*%
X111760000Y-66095000D03*
X111760000Y-65095000D03*
X111760000Y-64095000D03*
X111760000Y-63095000D03*
X111760000Y-62095000D03*
X111760000Y-61095000D03*
X111760000Y-60095000D03*
X111760000Y-59095000D03*
X111760000Y-58095000D03*
X111760000Y-57095000D03*
D17*
X109235000Y-67395000D03*
X109235000Y-55795000D03*
%TD*%
D18*
%TO.C,U2*%
X115516000Y-54733300D03*
X115516000Y-57273300D03*
X115516000Y-59813300D03*
X115516000Y-62353300D03*
X115516000Y-64893300D03*
X115516000Y-67433300D03*
X115516000Y-69973300D03*
X131681000Y-69973300D03*
X131681000Y-67433300D03*
X131681000Y-64893300D03*
X131681000Y-62353300D03*
X131681000Y-59813300D03*
X131681000Y-57273300D03*
X131681000Y-54733300D03*
D19*
X122428000Y-70993000D03*
X124968000Y-70993000D03*
D20*
X122428000Y-53975000D03*
X124968000Y-53975000D03*
X122428000Y-56515000D03*
X124968000Y-56515000D03*
%TD*%
D13*
%TO.C,R4*%
X124714000Y-84852000D03*
X124714000Y-86852000D03*
%TD*%
D21*
%TO.C,AtmosphericSensor1*%
X123922000Y-79285000D03*
X122672000Y-79285000D03*
X121422000Y-79285000D03*
X120172000Y-79285000D03*
X120172000Y-81685000D03*
X121422000Y-81685000D03*
X122672000Y-81685000D03*
X123922000Y-81685000D03*
%TD*%
D22*
%TO.C,11111*%
X106430000Y-81104000D03*
X105830000Y-76704000D03*
X106030000Y-75604000D03*
X106030000Y-80004000D03*
D23*
X102180000Y-86814000D03*
D24*
X103180000Y-73664000D03*
D25*
X116330000Y-75314000D03*
X116330000Y-81014000D03*
D22*
X106030000Y-77804000D03*
X105830000Y-78904000D03*
X106030000Y-82204000D03*
X106030000Y-74504000D03*
%TD*%
D10*
%TO.C,H2*%
X101750000Y-68400000D03*
%TD*%
D26*
%TO.C,U1*%
X128193800Y-75692000D03*
X128193800Y-76962000D03*
X128193800Y-78232000D03*
X128193800Y-79502000D03*
X128193800Y-80772000D03*
X128193800Y-82042000D03*
X128193800Y-83312000D03*
X134950200Y-83312000D03*
X134950200Y-82042000D03*
X134950200Y-80772000D03*
X134950200Y-79502000D03*
X134950200Y-78232000D03*
X134950200Y-76962000D03*
X134950200Y-75692000D03*
%TD*%
D27*
%TO.C,AtmosphericCapacitor1*%
X122555000Y-86779500D03*
X122555000Y-83654500D03*
%TD*%
D28*
%TO.C,12111*%
X134936000Y-72293000D03*
X134936000Y-52293000D03*
D29*
X105736000Y-53213000D03*
X105736000Y-63373000D03*
X105736000Y-58293000D03*
X105736000Y-55753000D03*
X105736000Y-60833000D03*
X105736000Y-70993000D03*
X105736000Y-68453000D03*
X105736000Y-65913000D03*
%TD*%
M02*
