%TF.GenerationSoftware,KiCad,Pcbnew,8.0.4*%
%TF.CreationDate,2025-03-04T17:04:42-07:00*%
%TF.ProjectId,Main Processing Board,4d61696e-2050-4726-9f63-657373696e67,rev?*%
%TF.SameCoordinates,Original*%
%TF.FileFunction,Copper,L2,Bot*%
%TF.FilePolarity,Positive*%
%FSLAX46Y46*%
G04 Gerber Fmt 4.6, Leading zero omitted, Abs format (unit mm)*
G04 Created by KiCad (PCBNEW 8.0.4) date 2025-03-04 17:04:42*
%MOMM*%
%LPD*%
G01*
G04 APERTURE LIST*
G04 Aperture macros list*
%AMRoundRect*
0 Rectangle with rounded corners*
0 $1 Rounding radius*
0 $2 $3 $4 $5 $6 $7 $8 $9 X,Y pos of 4 corners*
0 Add a 4 corners polygon primitive as box body*
4,1,4,$2,$3,$4,$5,$6,$7,$8,$9,$2,$3,0*
0 Add four circle primitives for the rounded corners*
1,1,$1+$1,$2,$3*
1,1,$1+$1,$4,$5*
1,1,$1+$1,$6,$7*
1,1,$1+$1,$8,$9*
0 Add four rect primitives between the rounded corners*
20,1,$1+$1,$2,$3,$4,$5,0*
20,1,$1+$1,$4,$5,$6,$7,0*
20,1,$1+$1,$6,$7,$8,$9,0*
20,1,$1+$1,$8,$9,$2,$3,0*%
G04 Aperture macros list end*
%TA.AperFunction,ComponentPad*%
%ADD10RoundRect,0.200000X0.450000X-0.200000X0.450000X0.200000X-0.450000X0.200000X-0.450000X-0.200000X0*%
%TD*%
%TA.AperFunction,ComponentPad*%
%ADD11O,1.300000X0.800000*%
%TD*%
%TA.AperFunction,ComponentPad*%
%ADD12C,1.879600*%
%TD*%
%TA.AperFunction,ViaPad*%
%ADD13C,0.600000*%
%TD*%
%TA.AperFunction,ViaPad*%
%ADD14C,1.000000*%
%TD*%
%TA.AperFunction,Conductor*%
%ADD15C,0.200000*%
%TD*%
%TA.AperFunction,Conductor*%
%ADD16C,0.600000*%
%TD*%
%TA.AperFunction,Conductor*%
%ADD17C,0.800000*%
%TD*%
G04 APERTURE END LIST*
D10*
%TO.P,PowerBoard1,1,SCK*%
%TO.N,/SCL_I2C*%
X135763000Y-59924000D03*
D11*
%TO.P,PowerBoard1,2,SDA*%
%TO.N,/SDA_I2C*%
X135763000Y-58674000D03*
%TO.P,PowerBoard1,3,VCC*%
%TO.N,+5V*%
X135763000Y-57424000D03*
%TO.P,PowerBoard1,4,GND*%
%TO.N,GND*%
X135763000Y-56174000D03*
%TD*%
D12*
%TO.P,12111,CS,CS*%
%TO.N,/CAMERA_CS*%
X105736000Y-53213000D03*
%TO.P,12111,GND,GND*%
%TO.N,GND*%
X105736000Y-63373000D03*
%TO.P,12111,MISO,MISO*%
%TO.N,/Camera_MISO*%
X105736000Y-58293000D03*
%TO.P,12111,MOSI,MOSI*%
%TO.N,/MOSI*%
X105736000Y-55753000D03*
%TO.P,12111,SCK,SCK*%
%TO.N,/SCK_SPI*%
X105736000Y-60833000D03*
%TO.P,12111,SCL,SCL*%
%TO.N,/SCL_I2C*%
X105736000Y-70993000D03*
%TO.P,12111,SDA,SDA*%
%TO.N,/SDA_I2C*%
X105736000Y-68453000D03*
%TO.P,12111,VCC,VCC*%
%TO.N,+3.3V*%
X105736000Y-65913000D03*
%TD*%
D13*
%TO.N,/SD_CS*%
X117348000Y-72009000D03*
X109474000Y-80645000D03*
X128143000Y-73914000D03*
%TO.N,/SCK_SPI*%
X128503765Y-67203235D03*
%TO.N,GND*%
X109220000Y-64770000D03*
X130810000Y-85852000D03*
X128016000Y-58039000D03*
X121031000Y-83185000D03*
X128143000Y-59309000D03*
X117475000Y-77343000D03*
X126365000Y-55499000D03*
X132207000Y-78359000D03*
X123571000Y-64389000D03*
X109220000Y-73787000D03*
X107442000Y-73660000D03*
X127000000Y-58928000D03*
X119507000Y-77216000D03*
X102997000Y-75057000D03*
X135509000Y-62992000D03*
X133858000Y-64135000D03*
X131064000Y-51689000D03*
X103124000Y-52070000D03*
X128397000Y-57404000D03*
X118491000Y-55626000D03*
X126619000Y-54864000D03*
X109855000Y-65659000D03*
X125476000Y-61341000D03*
X112395000Y-77724000D03*
X121412000Y-67945000D03*
X131699000Y-81407000D03*
X131826000Y-52578000D03*
X108585000Y-83947000D03*
X118364000Y-54229000D03*
X110998000Y-53721000D03*
%TO.N,/MOSI*%
X128397000Y-62230000D03*
X109474000Y-59055000D03*
%TO.N,/SD_MISO*%
X110744000Y-75565000D03*
X126238000Y-76962000D03*
%TO.N,+3.3V*%
X103124000Y-78359000D03*
X111506000Y-55626000D03*
%TO.N,/Camera_MISO*%
X108331000Y-60960000D03*
X126492000Y-80772000D03*
%TO.N,/SCL_I2C*%
X124841000Y-77343000D03*
X125349000Y-82931000D03*
%TO.N,/SDA_I2C*%
X124206000Y-83312000D03*
X127127000Y-52451000D03*
X122897574Y-77934428D03*
%TO.N,/CAMERA_CS*%
X129540000Y-69215000D03*
X130048000Y-79375000D03*
X131064000Y-76200000D03*
%TO.N,/Radio_CS*%
X113284000Y-59309000D03*
X118237000Y-60071000D03*
X132842000Y-75819000D03*
%TO.N,+5V*%
X118999000Y-64135000D03*
X118491000Y-64643000D03*
D14*
X113030000Y-66095000D03*
D13*
%TO.N,/Radio_MISO*%
X113284000Y-60579000D03*
X133096000Y-77470000D03*
%TO.N,/Radio_EN*%
X109855000Y-63373000D03*
X117856000Y-62611000D03*
%TD*%
D15*
%TO.N,/SD_CS*%
X115951000Y-73406000D02*
X117348000Y-72009000D01*
X117348000Y-72009000D02*
X126238000Y-72009000D01*
X126238000Y-72009000D02*
X128143000Y-73914000D01*
X110871000Y-73406000D02*
X115951000Y-73406000D01*
X109474000Y-74803000D02*
X110871000Y-73406000D01*
X109474000Y-80645000D02*
X109474000Y-74803000D01*
%TO.N,/SCK_SPI*%
X123755686Y-66929000D02*
X116805686Y-59979000D01*
X106590000Y-59979000D02*
X105736000Y-60833000D01*
X128229530Y-66929000D02*
X123755686Y-66929000D01*
X128503765Y-67203235D02*
X128229530Y-66929000D01*
X116805686Y-59979000D02*
X106590000Y-59979000D01*
%TO.N,/MOSI*%
X109474000Y-59055000D02*
X109820000Y-58709000D01*
X124876000Y-58709000D02*
X128397000Y-62230000D01*
X109820000Y-58709000D02*
X124876000Y-58709000D01*
%TO.N,/SD_MISO*%
X110744000Y-75565000D02*
X124841000Y-75565000D01*
X124841000Y-75565000D02*
X126238000Y-76962000D01*
%TO.N,+3.3V*%
X103124000Y-78359000D02*
X104394000Y-77089000D01*
X104394000Y-64571000D02*
X105736000Y-65913000D01*
X104394000Y-67255000D02*
X105736000Y-65913000D01*
X104394000Y-77089000D02*
X104394000Y-67255000D01*
X105236658Y-59579000D02*
X104394000Y-60421658D01*
X107553000Y-59579000D02*
X105236658Y-59579000D01*
X104394000Y-60421658D02*
X104394000Y-64571000D01*
X111506000Y-55626000D02*
X107553000Y-59579000D01*
%TO.N,/Camera_MISO*%
X109347000Y-82296000D02*
X111633000Y-82296000D01*
X111633000Y-82296000D02*
X117729000Y-76200000D01*
X108331000Y-81280000D02*
X109347000Y-82296000D01*
X117729000Y-76200000D02*
X124546529Y-76200000D01*
X126111000Y-80391000D02*
X126492000Y-80772000D01*
X126111000Y-77851000D02*
X126111000Y-80391000D01*
X126111000Y-77764471D02*
X126111000Y-77851000D01*
X108331000Y-60960000D02*
X108331000Y-81280000D01*
X124546529Y-76200000D02*
X126111000Y-77764471D01*
%TO.N,/SCL_I2C*%
X133858000Y-80264000D02*
X131191000Y-82931000D01*
X131191000Y-82931000D02*
X125349000Y-82931000D01*
X136144000Y-59924000D02*
X131953000Y-64115000D01*
X133858000Y-75311000D02*
X133858000Y-80264000D01*
X131953000Y-73406000D02*
X133858000Y-75311000D01*
X131953000Y-64115000D02*
X131953000Y-73406000D01*
X125349000Y-77851000D02*
X125349000Y-82931000D01*
X124841000Y-77343000D02*
X125349000Y-77851000D01*
%TO.N,/SDA_I2C*%
X129671000Y-52451000D02*
X127127000Y-52451000D01*
X122897574Y-77934428D02*
X122953310Y-77934428D01*
X122953310Y-77934428D02*
X124206000Y-79187118D01*
X135894000Y-58674000D02*
X129671000Y-52451000D01*
X124206000Y-79187118D02*
X124206000Y-83312000D01*
%TO.N,/CAMERA_CS*%
X129540000Y-69215000D02*
X129540000Y-56388000D01*
X129540000Y-56388000D02*
X125730000Y-52578000D01*
X131064000Y-76200000D02*
X130556000Y-76708000D01*
X130556000Y-76708000D02*
X130556000Y-78867000D01*
X125730000Y-52578000D02*
X106371000Y-52578000D01*
X106371000Y-52578000D02*
X105736000Y-53213000D01*
X130556000Y-78867000D02*
X130048000Y-79375000D01*
%TO.N,/Radio_CS*%
X122220059Y-60071000D02*
X129103765Y-66954706D01*
X128397000Y-68707000D02*
X128397000Y-71247000D01*
X117475000Y-59309000D02*
X113284000Y-59309000D01*
X118237000Y-60071000D02*
X122220059Y-60071000D01*
X118237000Y-60071000D02*
X117475000Y-59309000D01*
X129103765Y-66954706D02*
X129103765Y-68000235D01*
X129103765Y-68000235D02*
X128397000Y-68707000D01*
X128397000Y-71247000D02*
X132842000Y-75819000D01*
D16*
%TO.N,+5V*%
X117094000Y-66040000D02*
X118491000Y-64643000D01*
D17*
X118491000Y-64643000D02*
X118999000Y-64135000D01*
D16*
X113085000Y-66040000D02*
X117094000Y-66040000D01*
X113030000Y-66095000D02*
X113085000Y-66040000D01*
D15*
%TO.N,/Radio_MISO*%
X131699000Y-76073000D02*
X133096000Y-77470000D01*
X116840000Y-60579000D02*
X131699000Y-75438000D01*
X131699000Y-75438000D02*
X131699000Y-76073000D01*
X113284000Y-60579000D02*
X116840000Y-60579000D01*
%TO.N,/Radio_EN*%
X110617000Y-62611000D02*
X117856000Y-62611000D01*
X109855000Y-63373000D02*
X110617000Y-62611000D01*
%TD*%
%TA.AperFunction,Conductor*%
%TO.N,GND*%
G36*
X134143966Y-50520185D02*
G01*
X134189721Y-50572989D01*
X134199665Y-50642147D01*
X134170640Y-50705703D01*
X134138927Y-50731887D01*
X133961382Y-50834392D01*
X133779338Y-50974081D01*
X133617081Y-51136338D01*
X133477392Y-51318382D01*
X133362657Y-51517109D01*
X133362650Y-51517123D01*
X133276458Y-51725211D01*
X133274842Y-51729113D01*
X133215995Y-51948738D01*
X133215453Y-51950759D01*
X133215451Y-51950770D01*
X133185500Y-52178258D01*
X133185500Y-52407741D01*
X133200958Y-52525147D01*
X133215452Y-52635238D01*
X133215453Y-52635240D01*
X133274842Y-52856887D01*
X133362650Y-53068876D01*
X133362657Y-53068890D01*
X133373586Y-53087819D01*
X133474548Y-53262692D01*
X133477392Y-53267617D01*
X133617081Y-53449661D01*
X133617089Y-53449670D01*
X133779330Y-53611911D01*
X133779338Y-53611918D01*
X133961382Y-53751607D01*
X133961385Y-53751608D01*
X133961388Y-53751611D01*
X134160112Y-53866344D01*
X134160117Y-53866346D01*
X134160123Y-53866349D01*
X134243421Y-53900852D01*
X134372113Y-53954158D01*
X134593762Y-54013548D01*
X134821266Y-54043500D01*
X134821273Y-54043500D01*
X135050727Y-54043500D01*
X135050734Y-54043500D01*
X135278238Y-54013548D01*
X135499887Y-53954158D01*
X135711888Y-53866344D01*
X135910612Y-53751611D01*
X136092661Y-53611919D01*
X136092665Y-53611914D01*
X136092670Y-53611911D01*
X136254911Y-53449670D01*
X136254914Y-53449665D01*
X136254919Y-53449661D01*
X136394611Y-53267612D01*
X136509344Y-53068888D01*
X136516279Y-53052145D01*
X136527939Y-53023997D01*
X136571780Y-52969593D01*
X136638074Y-52947528D01*
X136705773Y-52964807D01*
X136753384Y-53015944D01*
X136766500Y-53071449D01*
X136766500Y-55363063D01*
X136746815Y-55430102D01*
X136694011Y-55475857D01*
X136624853Y-55485801D01*
X136573609Y-55466165D01*
X136439316Y-55376433D01*
X136439307Y-55376428D01*
X136275520Y-55308586D01*
X136275512Y-55308584D01*
X136101646Y-55274000D01*
X136013000Y-55274000D01*
X136013000Y-56124272D01*
X135974940Y-56032386D01*
X135904614Y-55962060D01*
X135812728Y-55924000D01*
X135713272Y-55924000D01*
X135621386Y-55962060D01*
X135551060Y-56032386D01*
X135513000Y-56124272D01*
X135513000Y-56223728D01*
X135551060Y-56315614D01*
X135621386Y-56385940D01*
X135713272Y-56424000D01*
X134630625Y-56424000D01*
X134605685Y-56440987D01*
X134535840Y-56442854D01*
X134479902Y-56410667D01*
X133993235Y-55924000D01*
X134645096Y-55924000D01*
X135513000Y-55924000D01*
X135513000Y-55274000D01*
X135424353Y-55274000D01*
X135250487Y-55308584D01*
X135250479Y-55308586D01*
X135086692Y-55376428D01*
X135086683Y-55376433D01*
X134939283Y-55474923D01*
X134939279Y-55474926D01*
X134813926Y-55600279D01*
X134813923Y-55600283D01*
X134715433Y-55747683D01*
X134715428Y-55747693D01*
X134647587Y-55911476D01*
X134647584Y-55911483D01*
X134645096Y-55924000D01*
X133993235Y-55924000D01*
X130158590Y-52089355D01*
X130158588Y-52089352D01*
X130039717Y-51970481D01*
X130039709Y-51970475D01*
X129937936Y-51911717D01*
X129937934Y-51911716D01*
X129902790Y-51891425D01*
X129902789Y-51891424D01*
X129890263Y-51888067D01*
X129750057Y-51850499D01*
X129591943Y-51850499D01*
X129584347Y-51850499D01*
X129584331Y-51850500D01*
X127709412Y-51850500D01*
X127642373Y-51830815D01*
X127632097Y-51823445D01*
X127629263Y-51821185D01*
X127629262Y-51821184D01*
X127552100Y-51772700D01*
X127476523Y-51725211D01*
X127306254Y-51665631D01*
X127306249Y-51665630D01*
X127127004Y-51645435D01*
X127126996Y-51645435D01*
X126947750Y-51665630D01*
X126947745Y-51665631D01*
X126777476Y-51725211D01*
X126624737Y-51821184D01*
X126497184Y-51948737D01*
X126401210Y-52101478D01*
X126389014Y-52136332D01*
X126348291Y-52193107D01*
X126283338Y-52218853D01*
X126214777Y-52205396D01*
X126184292Y-52183056D01*
X126098717Y-52097481D01*
X126098716Y-52097480D01*
X126011904Y-52047360D01*
X126011904Y-52047359D01*
X126011900Y-52047358D01*
X125961785Y-52018423D01*
X125809057Y-51977499D01*
X125650943Y-51977499D01*
X125643347Y-51977499D01*
X125643331Y-51977500D01*
X106510572Y-51977500D01*
X106451554Y-51962555D01*
X106316546Y-51889491D01*
X106316541Y-51889489D01*
X106090786Y-51811988D01*
X105933826Y-51785796D01*
X105855347Y-51772700D01*
X105616653Y-51772700D01*
X105557793Y-51782522D01*
X105381213Y-51811988D01*
X105155458Y-51889489D01*
X105155453Y-51889491D01*
X104945529Y-52003098D01*
X104757169Y-52149704D01*
X104595506Y-52325317D01*
X104464951Y-52525147D01*
X104369070Y-52743732D01*
X104310475Y-52975118D01*
X104310473Y-52975130D01*
X104290764Y-53212994D01*
X104290764Y-53213005D01*
X104310473Y-53450869D01*
X104310475Y-53450881D01*
X104369070Y-53682267D01*
X104464951Y-53900852D01*
X104464953Y-53900856D01*
X104595506Y-54100682D01*
X104757168Y-54276295D01*
X104757171Y-54276297D01*
X104757174Y-54276300D01*
X104897020Y-54385147D01*
X104937833Y-54441857D01*
X104941508Y-54511630D01*
X104906876Y-54572313D01*
X104897020Y-54580853D01*
X104757174Y-54689699D01*
X104757171Y-54689702D01*
X104595506Y-54865317D01*
X104464951Y-55065147D01*
X104369070Y-55283732D01*
X104310475Y-55515118D01*
X104310473Y-55515130D01*
X104290764Y-55752994D01*
X104290764Y-55753005D01*
X104310473Y-55990869D01*
X104310475Y-55990881D01*
X104369070Y-56222267D01*
X104457215Y-56423215D01*
X104464953Y-56440856D01*
X104595506Y-56640682D01*
X104757168Y-56816295D01*
X104757171Y-56816297D01*
X104757174Y-56816300D01*
X104897020Y-56925147D01*
X104937833Y-56981857D01*
X104941508Y-57051630D01*
X104906876Y-57112313D01*
X104897020Y-57120853D01*
X104757174Y-57229699D01*
X104757171Y-57229702D01*
X104595506Y-57405317D01*
X104464951Y-57605147D01*
X104369070Y-57823732D01*
X104310475Y-58055118D01*
X104310473Y-58055130D01*
X104290764Y-58292994D01*
X104290764Y-58293005D01*
X104310473Y-58530869D01*
X104310475Y-58530881D01*
X104369070Y-58762267D01*
X104464953Y-58980857D01*
X104595504Y-59180679D01*
X104595512Y-59180690D01*
X104606106Y-59192197D01*
X104637030Y-59254851D01*
X104629171Y-59324277D01*
X104602559Y-59363862D01*
X104025286Y-59941136D01*
X103913481Y-60052940D01*
X103913479Y-60052943D01*
X103864040Y-60138576D01*
X103864038Y-60138578D01*
X103834425Y-60189867D01*
X103834424Y-60189868D01*
X103834423Y-60189873D01*
X103793499Y-60342601D01*
X103793499Y-60342603D01*
X103793499Y-60510704D01*
X103793500Y-60510717D01*
X103793500Y-64484330D01*
X103793499Y-64484348D01*
X103793499Y-64650054D01*
X103793498Y-64650054D01*
X103805656Y-64695427D01*
X103817743Y-64740537D01*
X103834424Y-64802787D01*
X103845663Y-64822253D01*
X103845664Y-64822255D01*
X103913477Y-64939712D01*
X103913481Y-64939717D01*
X104032349Y-65058585D01*
X104032355Y-65058590D01*
X104329035Y-65355270D01*
X104362520Y-65416593D01*
X104361560Y-65473391D01*
X104310475Y-65675118D01*
X104310473Y-65675130D01*
X104290764Y-65912994D01*
X104290764Y-65913005D01*
X104310473Y-66150869D01*
X104310475Y-66150881D01*
X104361560Y-66352607D01*
X104358935Y-66422427D01*
X104329035Y-66470728D01*
X104025286Y-66774478D01*
X103913481Y-66886282D01*
X103913477Y-66886287D01*
X103864310Y-66971449D01*
X103864310Y-66971450D01*
X103834423Y-67023214D01*
X103834423Y-67023215D01*
X103793499Y-67175943D01*
X103793499Y-67175945D01*
X103793499Y-67344046D01*
X103793500Y-67344059D01*
X103793500Y-76788902D01*
X103773815Y-76855941D01*
X103757181Y-76876583D01*
X103105465Y-77528298D01*
X103044142Y-77561783D01*
X103031668Y-77563837D01*
X102944750Y-77573630D01*
X102774478Y-77633210D01*
X102621737Y-77729184D01*
X102494184Y-77856737D01*
X102398211Y-78009476D01*
X102338631Y-78179745D01*
X102338630Y-78179750D01*
X102318435Y-78358996D01*
X102318435Y-78359003D01*
X102338630Y-78538249D01*
X102338631Y-78538254D01*
X102398211Y-78708523D01*
X102421247Y-78745184D01*
X102494184Y-78861262D01*
X102621738Y-78988816D01*
X102774478Y-79084789D01*
X102814491Y-79098790D01*
X102944745Y-79144368D01*
X102944750Y-79144369D01*
X103123996Y-79164565D01*
X103124000Y-79164565D01*
X103124004Y-79164565D01*
X103303249Y-79144369D01*
X103303252Y-79144368D01*
X103303255Y-79144368D01*
X103473522Y-79084789D01*
X103626262Y-78988816D01*
X103753816Y-78861262D01*
X103849789Y-78708522D01*
X103909368Y-78538255D01*
X103919161Y-78451329D01*
X103946226Y-78386918D01*
X103954690Y-78377543D01*
X104752506Y-77579728D01*
X104752511Y-77579724D01*
X104762714Y-77569520D01*
X104762716Y-77569520D01*
X104874520Y-77457716D01*
X104940751Y-77343000D01*
X104953577Y-77320785D01*
X104994500Y-77168058D01*
X104994500Y-77009943D01*
X104994500Y-72434925D01*
X105014185Y-72367886D01*
X105066989Y-72322131D01*
X105136147Y-72312187D01*
X105158756Y-72317642D01*
X105381216Y-72394012D01*
X105616653Y-72433300D01*
X105616654Y-72433300D01*
X105855346Y-72433300D01*
X105855347Y-72433300D01*
X106090784Y-72394012D01*
X106316545Y-72316509D01*
X106526469Y-72202903D01*
X106714832Y-72056295D01*
X106876494Y-71880682D01*
X107007047Y-71680856D01*
X107102929Y-71462267D01*
X107123912Y-71379407D01*
X107161525Y-71230880D01*
X107161526Y-71230869D01*
X107181236Y-70993005D01*
X107181236Y-70992994D01*
X107161526Y-70755130D01*
X107161524Y-70755118D01*
X107102929Y-70523732D01*
X107007048Y-70305147D01*
X107007047Y-70305144D01*
X106876494Y-70105318D01*
X106714832Y-69929705D01*
X106574978Y-69820853D01*
X106534166Y-69764143D01*
X106530491Y-69694370D01*
X106565122Y-69633687D01*
X106574979Y-69625146D01*
X106714832Y-69516295D01*
X106876494Y-69340682D01*
X107007047Y-69140856D01*
X107102929Y-68922267D01*
X107161525Y-68690878D01*
X107162143Y-68683422D01*
X107181236Y-68453005D01*
X107181236Y-68452994D01*
X107161526Y-68215130D01*
X107161524Y-68215118D01*
X107102929Y-67983732D01*
X107007048Y-67765147D01*
X107007047Y-67765144D01*
X106876494Y-67565318D01*
X106714832Y-67389705D01*
X106574978Y-67280853D01*
X106534166Y-67224143D01*
X106530491Y-67154370D01*
X106565122Y-67093687D01*
X106574979Y-67085146D01*
X106714832Y-66976295D01*
X106876494Y-66800682D01*
X107007047Y-66600856D01*
X107102929Y-66382267D01*
X107161525Y-66150878D01*
X107181236Y-65913000D01*
X107180065Y-65898870D01*
X107161526Y-65675130D01*
X107161524Y-65675118D01*
X107102929Y-65443732D01*
X107007048Y-65225147D01*
X107007047Y-65225144D01*
X106876494Y-65025318D01*
X106714832Y-64849705D01*
X106574571Y-64740536D01*
X106533759Y-64683826D01*
X106530084Y-64614053D01*
X106564715Y-64553370D01*
X106574572Y-64544829D01*
X106714492Y-64435925D01*
X106714495Y-64435922D01*
X106876092Y-64260383D01*
X106876100Y-64260372D01*
X107006606Y-64060619D01*
X107102455Y-63842103D01*
X107157940Y-63623000D01*
X106178251Y-63623000D01*
X106209381Y-63569081D01*
X106244000Y-63439880D01*
X106244000Y-63306120D01*
X106209381Y-63176919D01*
X106178251Y-63123000D01*
X107157940Y-63123000D01*
X107102455Y-62903896D01*
X107006606Y-62685380D01*
X106876100Y-62485627D01*
X106876092Y-62485616D01*
X106714495Y-62310077D01*
X106714485Y-62310068D01*
X106574572Y-62201169D01*
X106533759Y-62144459D01*
X106530084Y-62074686D01*
X106564716Y-62014003D01*
X106574559Y-62005473D01*
X106714832Y-61896295D01*
X106876494Y-61720682D01*
X107007047Y-61520856D01*
X107102929Y-61302267D01*
X107161525Y-61070878D01*
X107161526Y-61070869D01*
X107181236Y-60833005D01*
X107181236Y-60832994D01*
X107171354Y-60713740D01*
X107185435Y-60645304D01*
X107234280Y-60595345D01*
X107294930Y-60579500D01*
X107441288Y-60579500D01*
X107508327Y-60599185D01*
X107554082Y-60651989D01*
X107564026Y-60721147D01*
X107558330Y-60744454D01*
X107545632Y-60780742D01*
X107545630Y-60780750D01*
X107525435Y-60959996D01*
X107525435Y-60960003D01*
X107545630Y-61139249D01*
X107545631Y-61139254D01*
X107605211Y-61309523D01*
X107652364Y-61384565D01*
X107690106Y-61444632D01*
X107701185Y-61462263D01*
X107703445Y-61465097D01*
X107704334Y-61467275D01*
X107704889Y-61468158D01*
X107704734Y-61468255D01*
X107729855Y-61529783D01*
X107730500Y-61542412D01*
X107730500Y-81193330D01*
X107730499Y-81193348D01*
X107730499Y-81359054D01*
X107730498Y-81359054D01*
X107765077Y-81488100D01*
X107771423Y-81511785D01*
X107797741Y-81557368D01*
X107850479Y-81648714D01*
X107850481Y-81648717D01*
X107969349Y-81767585D01*
X107969355Y-81767590D01*
X108862139Y-82660374D01*
X108862149Y-82660385D01*
X108866479Y-82664715D01*
X108866480Y-82664716D01*
X108978284Y-82776520D01*
X108978286Y-82776521D01*
X108978287Y-82776522D01*
X108992134Y-82784516D01*
X109035820Y-82809738D01*
X109115215Y-82855577D01*
X109267943Y-82896501D01*
X109267946Y-82896501D01*
X109433653Y-82896501D01*
X109433669Y-82896500D01*
X111546331Y-82896500D01*
X111546347Y-82896501D01*
X111553943Y-82896501D01*
X111712054Y-82896501D01*
X111712057Y-82896501D01*
X111864785Y-82855577D01*
X111944180Y-82809738D01*
X112001716Y-82776520D01*
X112113520Y-82664716D01*
X112113520Y-82664714D01*
X112123724Y-82654511D01*
X112123727Y-82654506D01*
X117941416Y-76836819D01*
X118002739Y-76803334D01*
X118029097Y-76800500D01*
X124012106Y-76800500D01*
X124079145Y-76820185D01*
X124124900Y-76872989D01*
X124134844Y-76942147D01*
X124117097Y-76990476D01*
X124115211Y-76993476D01*
X124055631Y-77163745D01*
X124055630Y-77163750D01*
X124035435Y-77342996D01*
X124035435Y-77343000D01*
X124055630Y-77522249D01*
X124055631Y-77522254D01*
X124115211Y-77692523D01*
X124195010Y-77819521D01*
X124211184Y-77845262D01*
X124338738Y-77972816D01*
X124491478Y-78068789D01*
X124661745Y-78128368D01*
X124661748Y-78128368D01*
X124665454Y-78129665D01*
X124722230Y-78170387D01*
X124747978Y-78235339D01*
X124748500Y-78246707D01*
X124748500Y-78581021D01*
X124728815Y-78648060D01*
X124676011Y-78693815D01*
X124606853Y-78703759D01*
X124543297Y-78674734D01*
X124536819Y-78668702D01*
X123721197Y-77853080D01*
X123687712Y-77791757D01*
X123685659Y-77779293D01*
X123682942Y-77755173D01*
X123623363Y-77584906D01*
X123527390Y-77432166D01*
X123399836Y-77304612D01*
X123247097Y-77208639D01*
X123076828Y-77149059D01*
X123076823Y-77149058D01*
X122897578Y-77128863D01*
X122897570Y-77128863D01*
X122718324Y-77149058D01*
X122718319Y-77149059D01*
X122548050Y-77208639D01*
X122395311Y-77304612D01*
X122267758Y-77432165D01*
X122171785Y-77584904D01*
X122112205Y-77755173D01*
X122112204Y-77755178D01*
X122092009Y-77934424D01*
X122092009Y-77934431D01*
X122112204Y-78113677D01*
X122112205Y-78113682D01*
X122171785Y-78283951D01*
X122255397Y-78417018D01*
X122274397Y-78484255D01*
X122254029Y-78551090D01*
X122200761Y-78596304D01*
X122150403Y-78606990D01*
X121859200Y-78606990D01*
X121859200Y-79985688D01*
X121839515Y-80052727D01*
X121786711Y-80098482D01*
X121735200Y-80109688D01*
X121108500Y-80109688D01*
X121041461Y-80090003D01*
X120995706Y-80037199D01*
X120984500Y-79985688D01*
X120984500Y-78606660D01*
X120606940Y-78606660D01*
X120606940Y-79985688D01*
X120587255Y-80052727D01*
X120534451Y-80098482D01*
X120482940Y-80109688D01*
X120111880Y-80109688D01*
X120111880Y-80866000D01*
X120482940Y-80866000D01*
X120549979Y-80885685D01*
X120595734Y-80938489D01*
X120606940Y-80990000D01*
X120606940Y-82360000D01*
X120984500Y-82360000D01*
X120984500Y-80990000D01*
X121004185Y-80922961D01*
X121056989Y-80877206D01*
X121108500Y-80866000D01*
X121735200Y-80866000D01*
X121802239Y-80885685D01*
X121847994Y-80938489D01*
X121859200Y-80990000D01*
X121859200Y-82360000D01*
X122234500Y-82360000D01*
X122234500Y-80990000D01*
X122254185Y-80922961D01*
X122306989Y-80877206D01*
X122358500Y-80866000D01*
X122987180Y-80866000D01*
X123054219Y-80885685D01*
X123099974Y-80938489D01*
X123111180Y-80990000D01*
X123111180Y-82360000D01*
X123481500Y-82360000D01*
X123548539Y-82379685D01*
X123594294Y-82432489D01*
X123605500Y-82484000D01*
X123605500Y-82729587D01*
X123585815Y-82796626D01*
X123578450Y-82806896D01*
X123576186Y-82809734D01*
X123480211Y-82962476D01*
X123420631Y-83132745D01*
X123420630Y-83132750D01*
X123400435Y-83311996D01*
X123400435Y-83312003D01*
X123420630Y-83491249D01*
X123420631Y-83491254D01*
X123480211Y-83661523D01*
X123576182Y-83814259D01*
X123576184Y-83814262D01*
X123703738Y-83941816D01*
X123856478Y-84037789D01*
X124026745Y-84097368D01*
X124026750Y-84097369D01*
X124205996Y-84117565D01*
X124206000Y-84117565D01*
X124206004Y-84117565D01*
X124385249Y-84097369D01*
X124385252Y-84097368D01*
X124385255Y-84097368D01*
X124555522Y-84037789D01*
X124708262Y-83941816D01*
X124835816Y-83814262D01*
X124893816Y-83721954D01*
X124946149Y-83675664D01*
X125015202Y-83665015D01*
X125039764Y-83670886D01*
X125169737Y-83716366D01*
X125169743Y-83716367D01*
X125169745Y-83716368D01*
X125169746Y-83716368D01*
X125169750Y-83716369D01*
X125348996Y-83736565D01*
X125349000Y-83736565D01*
X125349004Y-83736565D01*
X125528249Y-83716369D01*
X125528252Y-83716368D01*
X125528255Y-83716368D01*
X125698522Y-83656789D01*
X125851262Y-83560816D01*
X125851267Y-83560810D01*
X125854097Y-83558555D01*
X125856275Y-83557665D01*
X125857158Y-83557111D01*
X125857255Y-83557265D01*
X125918783Y-83532145D01*
X125931412Y-83531500D01*
X131104331Y-83531500D01*
X131104347Y-83531501D01*
X131111943Y-83531501D01*
X131270054Y-83531501D01*
X131270057Y-83531501D01*
X131422785Y-83490577D01*
X131472904Y-83461639D01*
X131559716Y-83411520D01*
X131671520Y-83299716D01*
X131671520Y-83299714D01*
X131681728Y-83289507D01*
X131681729Y-83289504D01*
X134338520Y-80632716D01*
X134417577Y-80495784D01*
X134458501Y-80343057D01*
X134458501Y-80184942D01*
X134458501Y-80177347D01*
X134458500Y-80177329D01*
X134458500Y-75400059D01*
X134458501Y-75400046D01*
X134458501Y-75231945D01*
X134458501Y-75231943D01*
X134417577Y-75079215D01*
X134386690Y-75025717D01*
X134338520Y-74942284D01*
X134226716Y-74830480D01*
X134226715Y-74830479D01*
X134222385Y-74826149D01*
X134222374Y-74826139D01*
X132589819Y-73193584D01*
X132556334Y-73132261D01*
X132553500Y-73105903D01*
X132553500Y-64415097D01*
X132573185Y-64348058D01*
X132589819Y-64327416D01*
X136056416Y-60860819D01*
X136117739Y-60827334D01*
X136144097Y-60824500D01*
X136269613Y-60824500D01*
X136269616Y-60824500D01*
X136340196Y-60818086D01*
X136502606Y-60767478D01*
X136578350Y-60721688D01*
X136645904Y-60703852D01*
X136712378Y-60725369D01*
X136756666Y-60779409D01*
X136766500Y-60827805D01*
X136766500Y-71514550D01*
X136746815Y-71581589D01*
X136694011Y-71627344D01*
X136624853Y-71637288D01*
X136561297Y-71608263D01*
X136527939Y-71562003D01*
X136509347Y-71517118D01*
X136509342Y-71517109D01*
X136507058Y-71513153D01*
X136394611Y-71318388D01*
X136394608Y-71318385D01*
X136394607Y-71318382D01*
X136254918Y-71136338D01*
X136254911Y-71136330D01*
X136092670Y-70974089D01*
X136092661Y-70974081D01*
X135910617Y-70834392D01*
X135711890Y-70719657D01*
X135711876Y-70719650D01*
X135499887Y-70631842D01*
X135278238Y-70572452D01*
X135240215Y-70567446D01*
X135050741Y-70542500D01*
X135050734Y-70542500D01*
X134821266Y-70542500D01*
X134821258Y-70542500D01*
X134604715Y-70571009D01*
X134593762Y-70572452D01*
X134500076Y-70597554D01*
X134372112Y-70631842D01*
X134160123Y-70719650D01*
X134160109Y-70719657D01*
X133961382Y-70834392D01*
X133779338Y-70974081D01*
X133617081Y-71136338D01*
X133477392Y-71318382D01*
X133362657Y-71517109D01*
X133362650Y-71517123D01*
X133274842Y-71729112D01*
X133215453Y-71950759D01*
X133215451Y-71950770D01*
X133185500Y-72178258D01*
X133185500Y-72407741D01*
X133210446Y-72597215D01*
X133215452Y-72635238D01*
X133251342Y-72769181D01*
X133274842Y-72856887D01*
X133362650Y-73068876D01*
X133362657Y-73068890D01*
X133477392Y-73267617D01*
X133617081Y-73449661D01*
X133617089Y-73449670D01*
X133779330Y-73611911D01*
X133779338Y-73611918D01*
X133961382Y-73751607D01*
X133961385Y-73751608D01*
X133961388Y-73751611D01*
X134160112Y-73866344D01*
X134160117Y-73866346D01*
X134160123Y-73866349D01*
X134208821Y-73886520D01*
X134372113Y-73954158D01*
X134593762Y-74013548D01*
X134821266Y-74043500D01*
X134821273Y-74043500D01*
X135050727Y-74043500D01*
X135050734Y-74043500D01*
X135278238Y-74013548D01*
X135499887Y-73954158D01*
X135711888Y-73866344D01*
X135910612Y-73751611D01*
X136092661Y-73611919D01*
X136092665Y-73611914D01*
X136092670Y-73611911D01*
X136254911Y-73449670D01*
X136254914Y-73449665D01*
X136254919Y-73449661D01*
X136394611Y-73267612D01*
X136509344Y-73068888D01*
X136527939Y-73023997D01*
X136571780Y-72969593D01*
X136638074Y-72947528D01*
X136705773Y-72964807D01*
X136753384Y-73015944D01*
X136766500Y-73071449D01*
X136766500Y-87175500D01*
X136746815Y-87242539D01*
X136694011Y-87288294D01*
X136642500Y-87299500D01*
X119859029Y-87299500D01*
X119791990Y-87279815D01*
X119746235Y-87227011D01*
X119736291Y-87157853D01*
X119765316Y-87094297D01*
X119778493Y-87081214D01*
X119779789Y-87080106D01*
X119779788Y-87080106D01*
X119779792Y-87080104D01*
X119930104Y-86929792D01*
X119930106Y-86929788D01*
X119930109Y-86929786D01*
X120055048Y-86757820D01*
X120055047Y-86757820D01*
X120055051Y-86757816D01*
X120151557Y-86568412D01*
X120217246Y-86366243D01*
X120250500Y-86156287D01*
X120250500Y-85943713D01*
X120217246Y-85733757D01*
X120151557Y-85531588D01*
X120055051Y-85342184D01*
X120055049Y-85342181D01*
X120055048Y-85342179D01*
X119930109Y-85170213D01*
X119779786Y-85019890D01*
X119607820Y-84894951D01*
X119418414Y-84798444D01*
X119418413Y-84798443D01*
X119418412Y-84798443D01*
X119216243Y-84732754D01*
X119216241Y-84732753D01*
X119216240Y-84732753D01*
X119054957Y-84707208D01*
X119006287Y-84699500D01*
X118793713Y-84699500D01*
X118745042Y-84707208D01*
X118583760Y-84732753D01*
X118381585Y-84798444D01*
X118192179Y-84894951D01*
X118020213Y-85019890D01*
X117869890Y-85170213D01*
X117744951Y-85342179D01*
X117648444Y-85531585D01*
X117582753Y-85733760D01*
X117549500Y-85943713D01*
X117549500Y-86156286D01*
X117582753Y-86366239D01*
X117648444Y-86568414D01*
X117744951Y-86757820D01*
X117869890Y-86929786D01*
X118020210Y-87080106D01*
X118021507Y-87081214D01*
X118021862Y-87081758D01*
X118023653Y-87083549D01*
X118023276Y-87083925D01*
X118059698Y-87139723D01*
X118060193Y-87209591D01*
X118022836Y-87268635D01*
X117959488Y-87298110D01*
X117940971Y-87299500D01*
X100624500Y-87299500D01*
X100557461Y-87279815D01*
X100511706Y-87227011D01*
X100500500Y-87175500D01*
X100500500Y-69359029D01*
X100520185Y-69291990D01*
X100572989Y-69246235D01*
X100642147Y-69236291D01*
X100705703Y-69265316D01*
X100718786Y-69278493D01*
X100719893Y-69279789D01*
X100870213Y-69430109D01*
X101042179Y-69555048D01*
X101042181Y-69555049D01*
X101042184Y-69555051D01*
X101231588Y-69651557D01*
X101433757Y-69717246D01*
X101643713Y-69750500D01*
X101643714Y-69750500D01*
X101856286Y-69750500D01*
X101856287Y-69750500D01*
X102066243Y-69717246D01*
X102268412Y-69651557D01*
X102457816Y-69555051D01*
X102479789Y-69539086D01*
X102629786Y-69430109D01*
X102629788Y-69430106D01*
X102629792Y-69430104D01*
X102780104Y-69279792D01*
X102780106Y-69279788D01*
X102780109Y-69279786D01*
X102905048Y-69107820D01*
X102905047Y-69107820D01*
X102905051Y-69107816D01*
X103001557Y-68918412D01*
X103067246Y-68716243D01*
X103100500Y-68506287D01*
X103100500Y-68293713D01*
X103067246Y-68083757D01*
X103001557Y-67881588D01*
X102905051Y-67692184D01*
X102905049Y-67692181D01*
X102905048Y-67692179D01*
X102780109Y-67520213D01*
X102629786Y-67369890D01*
X102457820Y-67244951D01*
X102268414Y-67148444D01*
X102268413Y-67148443D01*
X102268412Y-67148443D01*
X102066243Y-67082754D01*
X102066241Y-67082753D01*
X102066240Y-67082753D01*
X101904957Y-67057208D01*
X101856287Y-67049500D01*
X101643713Y-67049500D01*
X101595042Y-67057208D01*
X101433760Y-67082753D01*
X101231585Y-67148444D01*
X101042179Y-67244951D01*
X100870213Y-67369890D01*
X100719892Y-67520211D01*
X100718778Y-67521516D01*
X100718231Y-67521872D01*
X100716451Y-67523653D01*
X100716076Y-67523278D01*
X100660266Y-67559700D01*
X100590398Y-67560188D01*
X100531357Y-67522826D01*
X100501888Y-67459474D01*
X100500500Y-67440970D01*
X100500500Y-50624500D01*
X100520185Y-50557461D01*
X100572989Y-50511706D01*
X100624500Y-50500500D01*
X134076927Y-50500500D01*
X134143966Y-50520185D01*
G37*
%TD.AperFunction*%
%TA.AperFunction,Conductor*%
G36*
X126004942Y-72629185D02*
G01*
X126025584Y-72645819D01*
X127312298Y-73932533D01*
X127345783Y-73993856D01*
X127347837Y-74006330D01*
X127357630Y-74093249D01*
X127417210Y-74263521D01*
X127454257Y-74322480D01*
X127513184Y-74416262D01*
X127640738Y-74543816D01*
X127793478Y-74639789D01*
X127963745Y-74699368D01*
X127963750Y-74699369D01*
X128142996Y-74719565D01*
X128143000Y-74719565D01*
X128143004Y-74719565D01*
X128322249Y-74699369D01*
X128322252Y-74699368D01*
X128322255Y-74699368D01*
X128492522Y-74639789D01*
X128645262Y-74543816D01*
X128772816Y-74416262D01*
X128868789Y-74263522D01*
X128928368Y-74093255D01*
X128938162Y-74006330D01*
X128948565Y-73914003D01*
X128948565Y-73913997D01*
X128940345Y-73841046D01*
X128952399Y-73772224D01*
X128999748Y-73720845D01*
X129067358Y-73703220D01*
X129133764Y-73724946D01*
X129151246Y-73739481D01*
X130709849Y-75298084D01*
X130743334Y-75359407D01*
X130738350Y-75429099D01*
X130696478Y-75485032D01*
X130688141Y-75490758D01*
X130561740Y-75570182D01*
X130561737Y-75570184D01*
X130434184Y-75697737D01*
X130338210Y-75850478D01*
X130278630Y-76020750D01*
X130268837Y-76107668D01*
X130241770Y-76172082D01*
X130233299Y-76181464D01*
X130187287Y-76227477D01*
X130187286Y-76227478D01*
X130075481Y-76339282D01*
X130075479Y-76339285D01*
X130029846Y-76418326D01*
X130029844Y-76418328D01*
X129996425Y-76476209D01*
X129996423Y-76476212D01*
X129978048Y-76544789D01*
X129955499Y-76628943D01*
X129955499Y-76628945D01*
X129955499Y-76797046D01*
X129955500Y-76797059D01*
X129955500Y-78471292D01*
X129935815Y-78538331D01*
X129883011Y-78584086D01*
X129872455Y-78588334D01*
X129698476Y-78649211D01*
X129545737Y-78745184D01*
X129418184Y-78872737D01*
X129322211Y-79025476D01*
X129262631Y-79195745D01*
X129262630Y-79195750D01*
X129242435Y-79374996D01*
X129242435Y-79375003D01*
X129262630Y-79554249D01*
X129262631Y-79554254D01*
X129322211Y-79724523D01*
X129418184Y-79877262D01*
X129545738Y-80004816D01*
X129698478Y-80100789D01*
X129868745Y-80160368D01*
X129868750Y-80160369D01*
X130047996Y-80180565D01*
X130048000Y-80180565D01*
X130048004Y-80180565D01*
X130227249Y-80160369D01*
X130227252Y-80160368D01*
X130227255Y-80160368D01*
X130397522Y-80100789D01*
X130550262Y-80004816D01*
X130677816Y-79877262D01*
X130773789Y-79724522D01*
X130833368Y-79554255D01*
X130843161Y-79467329D01*
X130870226Y-79402918D01*
X130878690Y-79393543D01*
X130914506Y-79357728D01*
X130914511Y-79357724D01*
X130924714Y-79347520D01*
X130924716Y-79347520D01*
X131036520Y-79235716D01*
X131115577Y-79098784D01*
X131156500Y-78946057D01*
X131156500Y-77103707D01*
X131176185Y-77036668D01*
X131228989Y-76990913D01*
X131239546Y-76986665D01*
X131243251Y-76985368D01*
X131243255Y-76985368D01*
X131413522Y-76925789D01*
X131507292Y-76866868D01*
X131574529Y-76847868D01*
X131641364Y-76868235D01*
X131660946Y-76884181D01*
X132265298Y-77488533D01*
X132298783Y-77549856D01*
X132300837Y-77562330D01*
X132310630Y-77649249D01*
X132370210Y-77819521D01*
X132393595Y-77856738D01*
X132466184Y-77972262D01*
X132593738Y-78099816D01*
X132746478Y-78195789D01*
X132891993Y-78246707D01*
X132916745Y-78255368D01*
X132916750Y-78255369D01*
X133095996Y-78275565D01*
X133096000Y-78275565D01*
X133096001Y-78275565D01*
X133105039Y-78274546D01*
X133119615Y-78272904D01*
X133188437Y-78284958D01*
X133239817Y-78332306D01*
X133257500Y-78396124D01*
X133257500Y-79963902D01*
X133237815Y-80030941D01*
X133221181Y-80051583D01*
X130978584Y-82294181D01*
X130917261Y-82327666D01*
X130890903Y-82330500D01*
X126073500Y-82330500D01*
X126006461Y-82310815D01*
X125960706Y-82258011D01*
X125949500Y-82206500D01*
X125949500Y-81600894D01*
X125969185Y-81533855D01*
X126021989Y-81488100D01*
X126091147Y-81478156D01*
X126139477Y-81495903D01*
X126142478Y-81497789D01*
X126189084Y-81514097D01*
X126312745Y-81557368D01*
X126312750Y-81557369D01*
X126491996Y-81577565D01*
X126492000Y-81577565D01*
X126492004Y-81577565D01*
X126671249Y-81557369D01*
X126671252Y-81557368D01*
X126671255Y-81557368D01*
X126841522Y-81497789D01*
X126994262Y-81401816D01*
X127121816Y-81274262D01*
X127217789Y-81121522D01*
X127277368Y-80951255D01*
X127277369Y-80951249D01*
X127297565Y-80772003D01*
X127297565Y-80771996D01*
X127277369Y-80592750D01*
X127277368Y-80592745D01*
X127243440Y-80495784D01*
X127217789Y-80422478D01*
X127121816Y-80269738D01*
X126994262Y-80142184D01*
X126924711Y-80098482D01*
X126841524Y-80046212D01*
X126841525Y-80046212D01*
X126794543Y-80029772D01*
X126737768Y-79989049D01*
X126712022Y-79924096D01*
X126711500Y-79912731D01*
X126711500Y-77677286D01*
X126713726Y-77677286D01*
X126722704Y-77619714D01*
X126747197Y-77584881D01*
X126803780Y-77528298D01*
X126867816Y-77464262D01*
X126963789Y-77311522D01*
X127023368Y-77141255D01*
X127023369Y-77141249D01*
X127043565Y-76962003D01*
X127043565Y-76961996D01*
X127023369Y-76782750D01*
X127023368Y-76782745D01*
X126963789Y-76612478D01*
X126949189Y-76589243D01*
X126867815Y-76459737D01*
X126740262Y-76332184D01*
X126587521Y-76236210D01*
X126417249Y-76176630D01*
X126330330Y-76166837D01*
X126265916Y-76139770D01*
X126256533Y-76131298D01*
X125328590Y-75203355D01*
X125328588Y-75203352D01*
X125209717Y-75084481D01*
X125209709Y-75084475D01*
X125107936Y-75025717D01*
X125107934Y-75025716D01*
X125072790Y-75005425D01*
X125072789Y-75005424D01*
X125060263Y-75002067D01*
X124920057Y-74964499D01*
X124761943Y-74964499D01*
X124754347Y-74964499D01*
X124754331Y-74964500D01*
X111326412Y-74964500D01*
X111259373Y-74944815D01*
X111249097Y-74937445D01*
X111246263Y-74935185D01*
X111246262Y-74935184D01*
X111189496Y-74899515D01*
X111093523Y-74839211D01*
X110923254Y-74779631D01*
X110923249Y-74779630D01*
X110744004Y-74759435D01*
X110743996Y-74759435D01*
X110671045Y-74767654D01*
X110602223Y-74755599D01*
X110550844Y-74708250D01*
X110533220Y-74640639D01*
X110554947Y-74574234D01*
X110569476Y-74556758D01*
X111083416Y-74042819D01*
X111144739Y-74009334D01*
X111171097Y-74006500D01*
X115864331Y-74006500D01*
X115864347Y-74006501D01*
X115871943Y-74006501D01*
X116030054Y-74006501D01*
X116030057Y-74006501D01*
X116182785Y-73965577D01*
X116232904Y-73936639D01*
X116319716Y-73886520D01*
X116431520Y-73774716D01*
X116431520Y-73774714D01*
X116441728Y-73764507D01*
X116441730Y-73764504D01*
X117366535Y-72839698D01*
X117427856Y-72806215D01*
X117440311Y-72804163D01*
X117527255Y-72794368D01*
X117697522Y-72734789D01*
X117850262Y-72638816D01*
X117850267Y-72638810D01*
X117853097Y-72636555D01*
X117855275Y-72635665D01*
X117856158Y-72635111D01*
X117856255Y-72635265D01*
X117917783Y-72610145D01*
X117930412Y-72609500D01*
X125937903Y-72609500D01*
X126004942Y-72629185D01*
G37*
%TD.AperFunction*%
%TA.AperFunction,Conductor*%
G36*
X116681942Y-76185185D02*
G01*
X116727697Y-76237989D01*
X116737641Y-76307147D01*
X116708616Y-76370703D01*
X116702584Y-76377181D01*
X111420584Y-81659181D01*
X111359261Y-81692666D01*
X111332903Y-81695500D01*
X109647097Y-81695500D01*
X109580058Y-81675815D01*
X109559416Y-81659181D01*
X109545347Y-81645112D01*
X109511862Y-81583789D01*
X109516846Y-81514097D01*
X109558718Y-81458164D01*
X109619143Y-81434211D01*
X109653255Y-81430368D01*
X109823522Y-81370789D01*
X109976262Y-81274816D01*
X110103816Y-81147262D01*
X110199789Y-80994522D01*
X110259368Y-80824255D01*
X110259369Y-80824249D01*
X110279565Y-80645003D01*
X110279565Y-80644996D01*
X110259369Y-80465750D01*
X110259368Y-80465745D01*
X110244228Y-80422478D01*
X110199789Y-80295478D01*
X110183615Y-80269738D01*
X110166645Y-80242730D01*
X110103816Y-80142738D01*
X110103814Y-80142736D01*
X110103813Y-80142734D01*
X110101550Y-80139896D01*
X110100659Y-80137715D01*
X110100111Y-80136842D01*
X110100264Y-80136745D01*
X110075144Y-80075209D01*
X110074500Y-80062587D01*
X110074500Y-76314094D01*
X110094185Y-76247055D01*
X110146989Y-76201300D01*
X110216147Y-76191356D01*
X110264471Y-76209100D01*
X110302193Y-76232802D01*
X110394475Y-76290788D01*
X110564745Y-76350368D01*
X110564750Y-76350369D01*
X110743996Y-76370565D01*
X110744000Y-76370565D01*
X110744004Y-76370565D01*
X110923249Y-76350369D01*
X110923252Y-76350368D01*
X110923255Y-76350368D01*
X111093522Y-76290789D01*
X111246262Y-76194816D01*
X111246267Y-76194810D01*
X111249097Y-76192555D01*
X111251275Y-76191665D01*
X111252158Y-76191111D01*
X111252255Y-76191265D01*
X111313783Y-76166145D01*
X111326412Y-76165500D01*
X116614903Y-76165500D01*
X116681942Y-76185185D01*
G37*
%TD.AperFunction*%
%TA.AperFunction,Conductor*%
G36*
X117340627Y-63231185D02*
G01*
X117350903Y-63238555D01*
X117353736Y-63240814D01*
X117353738Y-63240816D01*
X117506478Y-63336789D01*
X117662927Y-63391533D01*
X117676745Y-63396368D01*
X117676750Y-63396369D01*
X117855996Y-63416565D01*
X117856000Y-63416565D01*
X117856004Y-63416565D01*
X118035249Y-63396369D01*
X118035251Y-63396368D01*
X118035255Y-63396368D01*
X118035258Y-63396366D01*
X118035262Y-63396366D01*
X118182186Y-63344955D01*
X118251965Y-63341393D01*
X118312592Y-63376121D01*
X118344820Y-63438115D01*
X118338415Y-63507690D01*
X118310822Y-63549677D01*
X117791540Y-64068958D01*
X117791537Y-64068961D01*
X117692991Y-64216446D01*
X117692987Y-64216454D01*
X117637029Y-64351544D01*
X117610150Y-64391770D01*
X116798741Y-65203181D01*
X116737418Y-65236666D01*
X116711060Y-65239500D01*
X113582948Y-65239500D01*
X113524495Y-65224858D01*
X113414732Y-65166188D01*
X113414729Y-65166187D01*
X113414727Y-65166186D01*
X113226132Y-65108976D01*
X113226129Y-65108975D01*
X113030000Y-65089659D01*
X112833870Y-65108975D01*
X112645266Y-65166188D01*
X112471467Y-65259086D01*
X112471460Y-65259090D01*
X112319116Y-65384116D01*
X112194090Y-65536460D01*
X112194086Y-65536467D01*
X112101188Y-65710266D01*
X112043975Y-65898870D01*
X112024659Y-66095000D01*
X112043975Y-66291129D01*
X112101188Y-66479733D01*
X112194086Y-66653532D01*
X112194090Y-66653539D01*
X112319116Y-66805883D01*
X112471460Y-66930909D01*
X112471467Y-66930913D01*
X112645266Y-67023811D01*
X112645269Y-67023811D01*
X112645273Y-67023814D01*
X112833868Y-67081024D01*
X113030000Y-67100341D01*
X113226132Y-67081024D01*
X113414727Y-67023814D01*
X113588538Y-66930910D01*
X113664405Y-66868646D01*
X113728714Y-66841334D01*
X113743070Y-66840500D01*
X117172844Y-66840500D01*
X117172845Y-66840499D01*
X117327497Y-66809737D01*
X117473179Y-66749394D01*
X117604289Y-66661789D01*
X118742230Y-65523846D01*
X118782452Y-65496970D01*
X118917547Y-65441012D01*
X119065036Y-65342464D01*
X119698463Y-64709036D01*
X119761929Y-64614053D01*
X119783685Y-64581493D01*
X119837297Y-64536688D01*
X119906622Y-64527981D01*
X119969650Y-64558135D01*
X119974468Y-64562703D01*
X126729849Y-71318084D01*
X126763334Y-71379407D01*
X126758350Y-71449099D01*
X126716478Y-71505032D01*
X126651014Y-71529449D01*
X126582741Y-71514597D01*
X126580169Y-71513153D01*
X126553987Y-71498037D01*
X126492031Y-71462267D01*
X126492029Y-71462265D01*
X126477200Y-71453704D01*
X126469785Y-71449423D01*
X126317057Y-71408499D01*
X126158943Y-71408499D01*
X126151347Y-71408499D01*
X126151331Y-71408500D01*
X117930412Y-71408500D01*
X117863373Y-71388815D01*
X117853097Y-71381445D01*
X117850263Y-71379185D01*
X117850262Y-71379184D01*
X117753506Y-71318388D01*
X117697523Y-71283211D01*
X117527254Y-71223631D01*
X117527249Y-71223630D01*
X117348004Y-71203435D01*
X117347996Y-71203435D01*
X117168750Y-71223630D01*
X117168745Y-71223631D01*
X116998476Y-71283211D01*
X116845737Y-71379184D01*
X116718184Y-71506737D01*
X116622210Y-71659478D01*
X116562630Y-71829750D01*
X116552837Y-71916668D01*
X116525770Y-71981082D01*
X116517298Y-71990465D01*
X115738584Y-72769181D01*
X115677261Y-72802666D01*
X115650903Y-72805500D01*
X110791941Y-72805500D01*
X110758111Y-72814564D01*
X110758112Y-72814565D01*
X110639214Y-72846423D01*
X110639209Y-72846426D01*
X110502290Y-72925475D01*
X110502282Y-72925481D01*
X109143181Y-74284583D01*
X109081858Y-74318068D01*
X109012166Y-74313084D01*
X108956233Y-74271212D01*
X108931816Y-74205748D01*
X108931500Y-74196902D01*
X108931500Y-63838280D01*
X108951185Y-63771241D01*
X109003989Y-63725486D01*
X109073147Y-63715542D01*
X109136703Y-63744567D01*
X109160492Y-63772306D01*
X109225184Y-63875262D01*
X109352738Y-64002816D01*
X109505478Y-64098789D01*
X109675745Y-64158368D01*
X109675750Y-64158369D01*
X109854996Y-64178565D01*
X109855000Y-64178565D01*
X109855004Y-64178565D01*
X110034249Y-64158369D01*
X110034252Y-64158368D01*
X110034255Y-64158368D01*
X110204522Y-64098789D01*
X110357262Y-64002816D01*
X110484816Y-63875262D01*
X110580789Y-63722522D01*
X110640368Y-63552255D01*
X110650161Y-63465329D01*
X110677226Y-63400919D01*
X110685701Y-63391533D01*
X110829419Y-63247818D01*
X110890742Y-63214334D01*
X110917099Y-63211500D01*
X117273588Y-63211500D01*
X117340627Y-63231185D01*
G37*
%TD.AperFunction*%
%TA.AperFunction,Conductor*%
G36*
X121987001Y-60691185D02*
G01*
X122007643Y-60707819D01*
X127416643Y-66116819D01*
X127450128Y-66178142D01*
X127445144Y-66247834D01*
X127403272Y-66303767D01*
X127337808Y-66328184D01*
X127328962Y-66328500D01*
X124055783Y-66328500D01*
X123988744Y-66308815D01*
X123968102Y-66292181D01*
X118626576Y-60950655D01*
X118593091Y-60889332D01*
X118598075Y-60819640D01*
X118639947Y-60763707D01*
X118648273Y-60757988D01*
X118739262Y-60700816D01*
X118739267Y-60700810D01*
X118742097Y-60698555D01*
X118744275Y-60697665D01*
X118745158Y-60697111D01*
X118745255Y-60697265D01*
X118806783Y-60672145D01*
X118819412Y-60671500D01*
X121919962Y-60671500D01*
X121987001Y-60691185D01*
G37*
%TD.AperFunction*%
%TA.AperFunction,Conductor*%
G36*
X124642942Y-59329185D02*
G01*
X124663584Y-59345819D01*
X127566298Y-62248533D01*
X127599783Y-62309856D01*
X127601837Y-62322330D01*
X127611630Y-62409249D01*
X127671210Y-62579521D01*
X127676307Y-62587632D01*
X127767184Y-62732262D01*
X127894738Y-62859816D01*
X127958084Y-62899619D01*
X128043478Y-62953276D01*
X128047478Y-62955789D01*
X128180270Y-63002255D01*
X128217745Y-63015368D01*
X128217750Y-63015369D01*
X128396996Y-63035565D01*
X128397000Y-63035565D01*
X128397004Y-63035565D01*
X128576249Y-63015369D01*
X128576252Y-63015368D01*
X128576255Y-63015368D01*
X128746522Y-62955789D01*
X128749524Y-62953903D01*
X128751741Y-62953276D01*
X128752795Y-62952769D01*
X128752883Y-62952953D01*
X128816760Y-62934900D01*
X128883596Y-62955265D01*
X128928812Y-63008531D01*
X128939500Y-63058894D01*
X128939500Y-65641844D01*
X128919815Y-65708883D01*
X128867011Y-65754638D01*
X128797853Y-65764582D01*
X128734297Y-65735557D01*
X128727819Y-65729525D01*
X122707649Y-59709355D01*
X122707647Y-59709352D01*
X122588776Y-59590481D01*
X122588768Y-59590475D01*
X122502878Y-59540887D01*
X122454662Y-59490321D01*
X122441438Y-59421714D01*
X122467406Y-59356849D01*
X122524320Y-59316320D01*
X122564877Y-59309500D01*
X124575903Y-59309500D01*
X124642942Y-59329185D01*
G37*
%TD.AperFunction*%
%TA.AperFunction,Conductor*%
G36*
X125496942Y-53198185D02*
G01*
X125517584Y-53214819D01*
X128903181Y-56600416D01*
X128936666Y-56661739D01*
X128939500Y-56688097D01*
X128939500Y-61401105D01*
X128919815Y-61468144D01*
X128867011Y-61513899D01*
X128797853Y-61523843D01*
X128749532Y-61506101D01*
X128746524Y-61504211D01*
X128576249Y-61444630D01*
X128489330Y-61434837D01*
X128424916Y-61407770D01*
X128415533Y-61399298D01*
X125363590Y-58347355D01*
X125363588Y-58347352D01*
X125244717Y-58228481D01*
X125244716Y-58228480D01*
X125151219Y-58174500D01*
X125107785Y-58149423D01*
X124955057Y-58108499D01*
X124796943Y-58108499D01*
X124789347Y-58108499D01*
X124789331Y-58108500D01*
X110172097Y-58108500D01*
X110105058Y-58088815D01*
X110059303Y-58036011D01*
X110049359Y-57966853D01*
X110078384Y-57903297D01*
X110084416Y-57896819D01*
X110376091Y-57605144D01*
X111524535Y-56456698D01*
X111585856Y-56423215D01*
X111598311Y-56421163D01*
X111685255Y-56411368D01*
X111855522Y-56351789D01*
X112008262Y-56255816D01*
X112135816Y-56128262D01*
X112231789Y-55975522D01*
X112291368Y-55805255D01*
X112297256Y-55753000D01*
X112311565Y-55626003D01*
X112311565Y-55625996D01*
X112291369Y-55446750D01*
X112291368Y-55446745D01*
X112243023Y-55308584D01*
X112231789Y-55276478D01*
X112135816Y-55123738D01*
X112008262Y-54996184D01*
X111855523Y-54900211D01*
X111685254Y-54840631D01*
X111685249Y-54840630D01*
X111506004Y-54820435D01*
X111505996Y-54820435D01*
X111326750Y-54840630D01*
X111326745Y-54840631D01*
X111156476Y-54900211D01*
X111003737Y-54996184D01*
X110876184Y-55123737D01*
X110780210Y-55276478D01*
X110720630Y-55446750D01*
X110710837Y-55533668D01*
X110683770Y-55598082D01*
X110675298Y-55607465D01*
X107340584Y-58942181D01*
X107279261Y-58975666D01*
X107252903Y-58978500D01*
X107197877Y-58978500D01*
X107130838Y-58958815D01*
X107085083Y-58906011D01*
X107075139Y-58836853D01*
X107084321Y-58804690D01*
X107090798Y-58789922D01*
X107102929Y-58762267D01*
X107161525Y-58530878D01*
X107171430Y-58411341D01*
X107181236Y-58293005D01*
X107181236Y-58292994D01*
X107161526Y-58055130D01*
X107161524Y-58055118D01*
X107102929Y-57823732D01*
X107007048Y-57605147D01*
X107007047Y-57605144D01*
X106876494Y-57405318D01*
X106714832Y-57229705D01*
X106574978Y-57120853D01*
X106534166Y-57064143D01*
X106530491Y-56994370D01*
X106565122Y-56933687D01*
X106574979Y-56925146D01*
X106714832Y-56816295D01*
X106876494Y-56640682D01*
X107007047Y-56440856D01*
X107102929Y-56222267D01*
X107161525Y-55990878D01*
X107161526Y-55990869D01*
X107181236Y-55753005D01*
X107181236Y-55752994D01*
X107161526Y-55515130D01*
X107161524Y-55515118D01*
X107102929Y-55283732D01*
X107007048Y-55065147D01*
X107007047Y-55065144D01*
X106876494Y-54865318D01*
X106714832Y-54689705D01*
X106574978Y-54580853D01*
X106534166Y-54524143D01*
X106530491Y-54454370D01*
X106565122Y-54393687D01*
X106574979Y-54385146D01*
X106714832Y-54276295D01*
X106876494Y-54100682D01*
X107007047Y-53900856D01*
X107102929Y-53682267D01*
X107161525Y-53450878D01*
X107161626Y-53449661D01*
X107174669Y-53292260D01*
X107199822Y-53227075D01*
X107256224Y-53185837D01*
X107298245Y-53178500D01*
X125429903Y-53178500D01*
X125496942Y-53198185D01*
G37*
%TD.AperFunction*%
%TA.AperFunction,Conductor*%
G36*
X136013000Y-56300000D02*
G01*
X135993315Y-56367039D01*
X135940511Y-56412794D01*
X135889000Y-56424000D01*
X135812728Y-56424000D01*
X135904614Y-56385940D01*
X135974940Y-56315614D01*
X136013000Y-56223728D01*
X136013000Y-56300000D01*
G37*
%TD.AperFunction*%
%TD*%
M02*
