M48
; DRILL file {KiCad 8.0.4} date 2025-03-04T17:04:45-0700
; FORMAT={-:-/ absolute / metric / decimal}
; #@! TF.CreationDate,2025-03-04T17:04:45-07:00
; #@! TF.GenerationSoftware,Kicad,Pcbnew,8.0.4
; #@! TF.FileFunction,Plated,1,2,PTH
FMAT,2
METRIC
; #@! TA.AperFunction,Plated,PTH,ViaDrill
T1C0.300
; #@! TA.AperFunction,Plated,PTH,ComponentDrill
T2C0.500
; #@! TA.AperFunction,Plated,PTH,ViaDrill
T3C0.600
; #@! TA.AperFunction,Plated,PTH,ComponentDrill
T4C1.016
%
G90
G05
T1
X102.997Y-75.057
X103.124Y-52.07
X103.124Y-78.359
X107.442Y-73.66
X108.331Y-60.96
X108.585Y-83.947
X109.22Y-64.77
X109.22Y-73.787
X109.474Y-59.055
X109.474Y-80.645
X109.855Y-63.373
X109.855Y-65.659
X110.744Y-75.565
X110.998Y-53.721
X111.506Y-55.626
X112.395Y-77.724
X113.284Y-59.309
X113.284Y-60.579
X117.348Y-72.009
X117.475Y-77.343
X117.856Y-62.611
X118.237Y-60.071
X118.364Y-54.229
X118.491Y-55.626
X118.491Y-64.643
X118.999Y-64.135
X119.507Y-77.216
X121.031Y-83.185
X121.412Y-67.945
X122.898Y-77.934
X123.571Y-64.389
X124.206Y-83.312
X124.841Y-77.343
X125.349Y-82.931
X125.476Y-61.341
X126.238Y-76.962
X126.365Y-55.499
X126.492Y-80.772
X126.619Y-54.864
X127.0Y-58.928
X127.127Y-52.451
X128.016Y-58.039
X128.143Y-59.309
X128.143Y-73.914
X128.397Y-57.404
X128.397Y-62.23
X128.504Y-67.203
X129.54Y-69.215
X130.048Y-79.375
X130.81Y-85.852
X131.064Y-51.689
X131.064Y-76.2
X131.699Y-81.407
X131.826Y-52.578
X132.207Y-78.359
X132.842Y-75.819
X133.096Y-77.47
X133.858Y-64.135
X135.509Y-62.992
T2
X135.763Y-56.174
X135.763Y-57.424
X135.763Y-58.674
X135.763Y-59.924
T3
X113.03Y-66.095
T4
X105.736Y-53.213
X105.736Y-55.753
X105.736Y-58.293
X105.736Y-60.833
X105.736Y-63.373
X105.736Y-65.913
X105.736Y-68.453
X105.736Y-70.993
M30
