%TF.GenerationSoftware,KiCad,Pcbnew,8.0.4*%
%TF.CreationDate,2025-03-04T17:04:42-07:00*%
%TF.ProjectId,Main Processing Board,4d61696e-2050-4726-9f63-657373696e67,rev?*%
%TF.SameCoordinates,Original*%
%TF.FileFunction,Copper,L1,Top*%
%TF.FilePolarity,Positive*%
%FSLAX46Y46*%
G04 Gerber Fmt 4.6, Leading zero omitted, Abs format (unit mm)*
G04 Created by KiCad (PCBNEW 8.0.4) date 2025-03-04 17:04:42*
%MOMM*%
%LPD*%
G01*
G04 APERTURE LIST*
G04 Aperture macros list*
%AMRoundRect*
0 Rectangle with rounded corners*
0 $1 Rounding radius*
0 $2 $3 $4 $5 $6 $7 $8 $9 X,Y pos of 4 corners*
0 Add a 4 corners polygon primitive as box body*
4,1,4,$2,$3,$4,$5,$6,$7,$8,$9,$2,$3,0*
0 Add four circle primitives for the rounded corners*
1,1,$1+$1,$2,$3*
1,1,$1+$1,$4,$5*
1,1,$1+$1,$6,$7*
1,1,$1+$1,$8,$9*
0 Add four rect primitives between the rounded corners*
20,1,$1+$1,$2,$3,$4,$5,0*
20,1,$1+$1,$4,$5,$6,$7,0*
20,1,$1+$1,$6,$7,$8,$9,0*
20,1,$1+$1,$8,$9,$2,$3,0*%
G04 Aperture macros list end*
%TA.AperFunction,SMDPad,CuDef*%
%ADD10RoundRect,0.150000X-0.150000X-0.625000X0.150000X-0.625000X0.150000X0.625000X-0.150000X0.625000X0*%
%TD*%
%TA.AperFunction,SMDPad,CuDef*%
%ADD11RoundRect,0.250000X-0.350000X-0.650000X0.350000X-0.650000X0.350000X0.650000X-0.350000X0.650000X0*%
%TD*%
%TA.AperFunction,SMDPad,CuDef*%
%ADD12RoundRect,0.250000X-0.450000X0.350000X-0.450000X-0.350000X0.450000X-0.350000X0.450000X0.350000X0*%
%TD*%
%TA.AperFunction,ComponentPad*%
%ADD13RoundRect,0.200000X0.450000X-0.200000X0.450000X0.200000X-0.450000X0.200000X-0.450000X-0.200000X0*%
%TD*%
%TA.AperFunction,ComponentPad*%
%ADD14O,1.300000X0.800000*%
%TD*%
%TA.AperFunction,SMDPad,CuDef*%
%ADD15RoundRect,0.150000X0.625000X-0.150000X0.625000X0.150000X-0.625000X0.150000X-0.625000X-0.150000X0*%
%TD*%
%TA.AperFunction,SMDPad,CuDef*%
%ADD16RoundRect,0.250000X0.650000X-0.350000X0.650000X0.350000X-0.650000X0.350000X-0.650000X-0.350000X0*%
%TD*%
%TA.AperFunction,SMDPad,CuDef*%
%ADD17RoundRect,0.500000X-0.875000X-0.500000X0.875000X-0.500000X0.875000X0.500000X-0.875000X0.500000X0*%
%TD*%
%TA.AperFunction,SMDPad,CuDef*%
%ADD18RoundRect,0.275000X0.275000X-0.975000X0.275000X0.975000X-0.275000X0.975000X-0.275000X-0.975000X0*%
%TD*%
%TA.AperFunction,SMDPad,CuDef*%
%ADD19C,1.700000*%
%TD*%
%TA.AperFunction,SMDPad,CuDef*%
%ADD20RoundRect,0.132500X-0.132500X0.522500X-0.132500X-0.522500X0.132500X-0.522500X0.132500X0.522500X0*%
%TD*%
%TA.AperFunction,SMDPad,CuDef*%
%ADD21R,1.500000X0.800000*%
%TD*%
%TA.AperFunction,SMDPad,CuDef*%
%ADD22R,1.900000X1.400000*%
%TD*%
%TA.AperFunction,SMDPad,CuDef*%
%ADD23R,1.400000X1.800000*%
%TD*%
%TA.AperFunction,SMDPad,CuDef*%
%ADD24R,2.159000X0.558800*%
%TD*%
%TA.AperFunction,SMDPad,CuDef*%
%ADD25RoundRect,0.250000X0.650000X-0.412500X0.650000X0.412500X-0.650000X0.412500X-0.650000X-0.412500X0*%
%TD*%
%TA.AperFunction,ComponentPad*%
%ADD26C,1.879600*%
%TD*%
%TA.AperFunction,ViaPad*%
%ADD27C,0.600000*%
%TD*%
%TA.AperFunction,ViaPad*%
%ADD28C,1.000000*%
%TD*%
%TA.AperFunction,Conductor*%
%ADD29C,0.200000*%
%TD*%
%TA.AperFunction,Conductor*%
%ADD30C,0.800000*%
%TD*%
%TA.AperFunction,Conductor*%
%ADD31C,0.600000*%
%TD*%
G04 APERTURE END LIST*
D10*
%TO.P,I2CBus1,1,GND*%
%TO.N,GND*%
X120547000Y-76890000D03*
%TO.P,I2CBus1,2,VCC*%
%TO.N,+3.3V*%
X121547000Y-76890000D03*
%TO.P,I2CBus1,3,SDA*%
%TO.N,/SDA_I2C*%
X122547000Y-76890000D03*
%TO.P,I2CBus1,4,SCK*%
%TO.N,/SCL_I2C*%
X123547000Y-76890000D03*
D11*
%TO.P,I2CBus1,MP*%
%TO.N,N/C*%
X119247000Y-74365000D03*
X124847000Y-74365000D03*
%TD*%
D12*
%TO.P,R3,1*%
%TO.N,/SCL_I2C*%
X126873000Y-84852000D03*
%TO.P,R3,2*%
%TO.N,+3.3V*%
X126873000Y-86852000D03*
%TD*%
D13*
%TO.P,PowerBoard1,1,SCK*%
%TO.N,/SCL_I2C*%
X135763000Y-59924000D03*
D14*
%TO.P,PowerBoard1,2,SDA*%
%TO.N,/SDA_I2C*%
X135763000Y-58674000D03*
%TO.P,PowerBoard1,3,VCC*%
%TO.N,+5V*%
X135763000Y-57424000D03*
%TO.P,PowerBoard1,4,GND*%
%TO.N,GND*%
X135763000Y-56174000D03*
%TD*%
D15*
%TO.P,J1,1,Pin_1*%
%TO.N,+5V*%
X111760000Y-66095000D03*
%TO.P,J1,2,Pin_2*%
%TO.N,GND*%
X111760000Y-65095000D03*
%TO.P,J1,3,Pin_3*%
%TO.N,/Radio_EN*%
X111760000Y-64095000D03*
%TO.P,J1,4,Pin_4*%
%TO.N,/Radio_G0*%
X111760000Y-63095000D03*
%TO.P,J1,5,Pin_5*%
%TO.N,/SCK_SPI*%
X111760000Y-62095000D03*
%TO.P,J1,6,Pin_6*%
%TO.N,/Radio_MISO*%
X111760000Y-61095000D03*
%TO.P,J1,7,Pin_7*%
%TO.N,/MOSI*%
X111760000Y-60095000D03*
%TO.P,J1,8,Pin_8*%
%TO.N,/Radio_CS*%
X111760000Y-59095000D03*
%TO.P,J1,9,Pin_9*%
%TO.N,/Radio_Reset*%
X111760000Y-58095000D03*
%TO.P,J1,10,Pin_10*%
%TO.N,+3.3V*%
X111760000Y-57095000D03*
D16*
%TO.P,J1,MP,MountPin*%
%TO.N,unconnected-(J1-MountPin-PadMP)*%
X109235000Y-67395000D03*
X109235000Y-55795000D03*
%TD*%
D17*
%TO.P,U2,1,PA02_A0_D0*%
%TO.N,/Radio_EN*%
X115516000Y-54733300D03*
%TO.P,U2,2,PA4_A1_D1*%
%TO.N,/Radio_Reset*%
X115516000Y-57273300D03*
%TO.P,U2,3,PA10_A2_D2*%
%TO.N,/Radio_G0*%
X115516000Y-59813300D03*
%TO.P,U2,4,PA11_A3_D3*%
%TO.N,/Radio_CS*%
X115516000Y-62353300D03*
%TO.P,U2,5,PA8_A4_D4_SDA*%
%TO.N,/SDA_I2C*%
X115516000Y-64893300D03*
%TO.P,U2,6,PA9_A5_D5_SCL*%
%TO.N,/SCL_I2C*%
X115516000Y-67433300D03*
%TO.P,U2,7,PB08_A6_D6_TX*%
%TO.N,/SD_CS*%
X115516000Y-69973300D03*
%TO.P,U2,8,PB09_A7_D7_RX*%
%TO.N,/CAMERA_CS*%
X131681000Y-69973300D03*
%TO.P,U2,9,PA7_A8_D8_SCK*%
%TO.N,/SCK_SPI*%
X131681000Y-67433300D03*
%TO.P,U2,10,PA5_A9_D9_MISO*%
%TO.N,/MISO*%
X131681000Y-64893300D03*
%TO.P,U2,11,PA6_A10_D10_MOSI*%
%TO.N,/MOSI*%
X131681000Y-62353300D03*
%TO.P,U2,12,3V3*%
%TO.N,+3.3V*%
X131681000Y-59813300D03*
%TO.P,U2,13,GND*%
%TO.N,GND*%
X131681000Y-57273300D03*
%TO.P,U2,14,5V*%
%TO.N,+5V*%
X131681000Y-54733300D03*
D18*
%TO.P,U2,15,5V*%
%TO.N,unconnected-(U2-5V-Pad15)*%
X122428000Y-70993000D03*
%TO.P,U2,16,GND*%
%TO.N,unconnected-(U2-GND-Pad16)*%
X124968000Y-70993000D03*
D19*
%TO.P,U2,17,PA31_SWDIO*%
%TO.N,unconnected-(U2-PA31_SWDIO-Pad17)*%
X122428000Y-53975000D03*
%TO.P,U2,18,PA30_SWCLK*%
%TO.N,unconnected-(U2-PA30_SWCLK-Pad18)*%
X124968000Y-53975000D03*
%TO.P,U2,19,RESET*%
%TO.N,unconnected-(U2-RESET-Pad19)*%
X122428000Y-56515000D03*
%TO.P,U2,20,GND*%
%TO.N,unconnected-(U2-GND-Pad20)*%
X124968000Y-56515000D03*
%TD*%
D12*
%TO.P,R4,1*%
%TO.N,/SDA_I2C*%
X124714000Y-84852000D03*
%TO.P,R4,2*%
%TO.N,+3.3V*%
X124714000Y-86852000D03*
%TD*%
D20*
%TO.P,AtmosphericSensor1,1,VDD*%
%TO.N,+3.3V*%
X123922000Y-79285000D03*
%TO.P,AtmosphericSensor1,2,PS*%
X122672000Y-79285000D03*
%TO.P,AtmosphericSensor1,3,GND*%
%TO.N,GND*%
X121422000Y-79285000D03*
%TO.P,AtmosphericSensor1,4,CSB*%
%TO.N,+3.3V*%
X120172000Y-79285000D03*
%TO.P,AtmosphericSensor1,5,CSB*%
X120172000Y-81685000D03*
%TO.P,AtmosphericSensor1,6,SDO*%
%TO.N,unconnected-(AtmosphericSensor1-SDO-Pad6)*%
X121422000Y-81685000D03*
%TO.P,AtmosphericSensor1,7,SDI/SDA*%
%TO.N,/SDA_I2C*%
X122672000Y-81685000D03*
%TO.P,AtmosphericSensor1,8,SCLK*%
%TO.N,/SCL_I2C*%
X123922000Y-81685000D03*
%TD*%
D21*
%TO.P,11111,CS,CS*%
%TO.N,/SD_CS*%
X106430000Y-81104000D03*
%TO.P,11111,GND,GND*%
%TO.N,GND*%
X105830000Y-76704000D03*
%TO.P,11111,MISO,MISO*%
%TO.N,/SD_MISO*%
X106030000Y-75604000D03*
%TO.P,11111,MOSI,MOSI*%
%TO.N,/MOSI*%
X106030000Y-80004000D03*
D22*
%TO.P,11111,P$1*%
%TO.N,N/C*%
X102180000Y-86814000D03*
%TO.P,11111,P$2*%
X103180000Y-73664000D03*
D23*
%TO.P,11111,P$3*%
X116330000Y-75314000D03*
%TO.P,11111,P$4*%
X116330000Y-81014000D03*
D21*
%TO.P,11111,SCK,SCK*%
%TO.N,/SCK_SPI*%
X106030000Y-77804000D03*
%TO.P,11111,VDD,3V3*%
%TO.N,+3.3V*%
X105830000Y-78904000D03*
%TO.P,11111,X1,X1*%
%TO.N,unconnected-(11111-PadX1)*%
X106030000Y-82204000D03*
%TO.P,11111,X2,X2*%
%TO.N,unconnected-(11111-PadX2)*%
X106030000Y-74504000D03*
%TD*%
D24*
%TO.P,U1,1,~{1OE}*%
%TO.N,/SD_CS*%
X128193800Y-75692000D03*
%TO.P,U1,2,1A*%
%TO.N,/SD_MISO*%
X128193800Y-76962000D03*
%TO.P,U1,3,1Y*%
%TO.N,/MISO*%
X128193800Y-78232000D03*
%TO.P,U1,4,~{2OE}*%
%TO.N,/CAMERA_CS*%
X128193800Y-79502000D03*
%TO.P,U1,5,2A*%
%TO.N,/Camera_MISO*%
X128193800Y-80772000D03*
%TO.P,U1,6,2Y*%
%TO.N,/MISO*%
X128193800Y-82042000D03*
%TO.P,U1,7,GND*%
%TO.N,GND*%
X128193800Y-83312000D03*
%TO.P,U1,8,3Y*%
%TO.N,unconnected-(U1-3Y-Pad8)*%
X134950200Y-83312000D03*
%TO.P,U1,9,3A*%
%TO.N,unconnected-(U1-3A-Pad9)*%
X134950200Y-82042000D03*
%TO.P,U1,10,~{3OE}*%
%TO.N,unconnected-(U1-~{3OE}-Pad10)*%
X134950200Y-80772000D03*
%TO.P,U1,11,4Y*%
%TO.N,/MISO*%
X134950200Y-79502000D03*
%TO.P,U1,12,4A*%
%TO.N,/Radio_MISO*%
X134950200Y-78232000D03*
%TO.P,U1,13,~{4OE}*%
%TO.N,/Radio_CS*%
X134950200Y-76962000D03*
%TO.P,U1,14,VCC*%
%TO.N,+3.3V*%
X134950200Y-75692000D03*
%TD*%
D25*
%TO.P,AtmosphericCapacitor1,1*%
%TO.N,+3.3V*%
X122555000Y-86779500D03*
%TO.P,AtmosphericCapacitor1,2*%
%TO.N,GND*%
X122555000Y-83654500D03*
%TD*%
D26*
%TO.P,12111,CS,CS*%
%TO.N,/CAMERA_CS*%
X105736000Y-53213000D03*
%TO.P,12111,GND,GND*%
%TO.N,GND*%
X105736000Y-63373000D03*
%TO.P,12111,MISO,MISO*%
%TO.N,/Camera_MISO*%
X105736000Y-58293000D03*
%TO.P,12111,MOSI,MOSI*%
%TO.N,/MOSI*%
X105736000Y-55753000D03*
%TO.P,12111,SCK,SCK*%
%TO.N,/SCK_SPI*%
X105736000Y-60833000D03*
%TO.P,12111,SCL,SCL*%
%TO.N,/SCL_I2C*%
X105736000Y-70993000D03*
%TO.P,12111,SDA,SDA*%
%TO.N,/SDA_I2C*%
X105736000Y-68453000D03*
%TO.P,12111,VCC,VCC*%
%TO.N,+3.3V*%
X105736000Y-65913000D03*
%TD*%
D27*
%TO.N,/SD_CS*%
X117348000Y-72009000D03*
X109474000Y-80645000D03*
X128143000Y-73914000D03*
%TO.N,/SCK_SPI*%
X128503765Y-67203235D03*
%TO.N,GND*%
X109220000Y-64770000D03*
X130810000Y-85852000D03*
X128016000Y-58039000D03*
X121031000Y-83185000D03*
X128143000Y-59309000D03*
X117475000Y-77343000D03*
X126365000Y-55499000D03*
X132207000Y-78359000D03*
X123571000Y-64389000D03*
X109220000Y-73787000D03*
X107442000Y-73660000D03*
X127000000Y-58928000D03*
X119507000Y-77216000D03*
X102997000Y-75057000D03*
X135509000Y-62992000D03*
X133858000Y-64135000D03*
X131064000Y-51689000D03*
X103124000Y-52070000D03*
X128397000Y-57404000D03*
X118491000Y-55626000D03*
X126619000Y-54864000D03*
X109855000Y-65659000D03*
X125476000Y-61341000D03*
X112395000Y-77724000D03*
X121412000Y-67945000D03*
X131699000Y-81407000D03*
X131826000Y-52578000D03*
X108585000Y-83947000D03*
X118364000Y-54229000D03*
X110998000Y-53721000D03*
%TO.N,/MOSI*%
X128397000Y-62230000D03*
X109474000Y-59055000D03*
%TO.N,/SD_MISO*%
X110744000Y-75565000D03*
X126238000Y-76962000D03*
%TO.N,+3.3V*%
X103124000Y-78359000D03*
X111506000Y-55626000D03*
%TO.N,/Camera_MISO*%
X108331000Y-60960000D03*
X126492000Y-80772000D03*
%TO.N,/SCL_I2C*%
X124841000Y-77343000D03*
X125349000Y-82931000D03*
%TO.N,/SDA_I2C*%
X124206000Y-83312000D03*
X127127000Y-52451000D03*
X122897574Y-77934428D03*
%TO.N,/CAMERA_CS*%
X129540000Y-69215000D03*
X130048000Y-79375000D03*
X131064000Y-76200000D03*
%TO.N,/Radio_CS*%
X113284000Y-59309000D03*
X118237000Y-60071000D03*
X132842000Y-75819000D03*
%TO.N,+5V*%
X118999000Y-64135000D03*
X118491000Y-64643000D03*
D28*
X113030000Y-66095000D03*
D27*
%TO.N,/Radio_MISO*%
X113284000Y-60579000D03*
X133096000Y-77470000D03*
%TO.N,/Radio_EN*%
X109855000Y-63373000D03*
X117856000Y-62611000D03*
%TD*%
D29*
%TO.N,/SD_CS*%
X106430000Y-81104000D02*
X109142000Y-81104000D01*
X128143000Y-73914000D02*
X128193800Y-74091800D01*
X115516000Y-70304000D02*
X117348000Y-72009000D01*
X115516000Y-69973300D02*
X115516000Y-70304000D01*
X109142000Y-81104000D02*
X109474000Y-80645000D01*
X128143000Y-74041000D02*
X128143000Y-73914000D01*
X128193800Y-75692000D02*
X128193800Y-74091800D01*
%TO.N,/SCK_SPI*%
X128733830Y-67433300D02*
X131681000Y-67433300D01*
X112069000Y-62095000D02*
X107307000Y-62095000D01*
X104013000Y-62556000D02*
X104013000Y-69850000D01*
X104013000Y-69850000D02*
X101092000Y-72771000D01*
X105736000Y-60833000D02*
X104013000Y-62556000D01*
X101092000Y-74422000D02*
X104474000Y-77804000D01*
X128503765Y-67203235D02*
X128733830Y-67433300D01*
X107307000Y-62095000D02*
X106045000Y-60833000D01*
X101092000Y-72771000D02*
X101092000Y-74422000D01*
X104474000Y-77804000D02*
X106030000Y-77804000D01*
%TO.N,GND*%
X123990000Y-85752000D02*
X127557744Y-85752000D01*
X108895000Y-65095000D02*
X107767000Y-65095000D01*
X127557744Y-85752000D02*
X128193800Y-85115944D01*
X120221000Y-77216000D02*
X119507000Y-77216000D01*
X109545000Y-65095000D02*
X109220000Y-64770000D01*
X120547000Y-76890000D02*
X120221000Y-77216000D01*
X107767000Y-65095000D02*
X106045000Y-63373000D01*
X128397000Y-57404000D02*
X128397000Y-57658000D01*
X109220000Y-64770000D02*
X108895000Y-65095000D01*
X122555000Y-84317000D02*
X123990000Y-85752000D01*
X121422000Y-79285000D02*
X121422000Y-78180552D01*
X122555000Y-83654500D02*
X121500500Y-83654500D01*
X128781700Y-57273300D02*
X128651000Y-57404000D01*
X121422000Y-78180552D02*
X120547000Y-77305552D01*
X121500500Y-83654500D02*
X121031000Y-83185000D01*
X112069000Y-65095000D02*
X109545000Y-65095000D01*
X120547000Y-77305552D02*
X120547000Y-76890000D01*
D30*
X131681000Y-57273300D02*
X128781700Y-57273300D01*
D29*
X128397000Y-57658000D02*
X128016000Y-58039000D01*
X128651000Y-57404000D02*
X128397000Y-57404000D01*
X122555000Y-83654500D02*
X122555000Y-84317000D01*
X128193800Y-85115944D02*
X128193800Y-83312000D01*
%TO.N,/MOSI*%
X128397000Y-62230000D02*
X128520300Y-62353300D01*
X110387000Y-60095000D02*
X109474000Y-59182000D01*
X103505000Y-57984000D02*
X103505000Y-69792314D01*
X105736000Y-55753000D02*
X103505000Y-57984000D01*
X109474000Y-59055000D02*
X109347000Y-59055000D01*
X128520300Y-62353300D02*
X131681000Y-62353300D01*
X103372000Y-80004000D02*
X106030000Y-80004000D01*
X109474000Y-59182000D02*
X109474000Y-59055000D01*
X100600000Y-72697314D02*
X100600000Y-77232000D01*
X103505000Y-69792314D02*
X100600000Y-72697314D01*
X100600000Y-77232000D02*
X103372000Y-80004000D01*
X109347000Y-59055000D02*
X106045000Y-55753000D01*
X112069000Y-60095000D02*
X110387000Y-60095000D01*
%TO.N,/SD_MISO*%
X106030000Y-75604000D02*
X110744000Y-75565000D01*
X126238000Y-76962000D02*
X128193800Y-76962000D01*
%TO.N,+3.3V*%
X121547000Y-76890000D02*
X121547000Y-77305552D01*
X123068288Y-78509630D02*
X123801630Y-78509630D01*
X119907000Y-79550000D02*
X120172000Y-79285000D01*
X123922000Y-79285000D02*
X125441000Y-77766000D01*
X134620000Y-61087000D02*
X134620000Y-69469000D01*
X103796000Y-78904000D02*
X103124000Y-78359000D01*
X121547000Y-77460000D02*
X121547000Y-76890000D01*
X126800500Y-86779500D02*
X126873000Y-86852000D01*
X123922000Y-78630000D02*
X123922000Y-79285000D01*
X125441000Y-77766000D02*
X125441000Y-75981000D01*
X122555000Y-85979000D02*
X120172000Y-83596000D01*
X127381000Y-61722000D02*
X129032000Y-60071000D01*
X122672000Y-79285000D02*
X122672000Y-78905918D01*
X120172000Y-79285000D02*
X118364000Y-77477000D01*
X133356000Y-70733000D02*
X133356000Y-70811942D01*
X132894642Y-71273300D02*
X132815700Y-71273300D01*
X133346300Y-59813300D02*
X134620000Y-61087000D01*
X132715000Y-71374000D02*
X132715000Y-73456800D01*
X119907000Y-81420000D02*
X119907000Y-79550000D01*
X121547000Y-75954000D02*
X121547000Y-76890000D01*
X129032000Y-60067300D02*
X129286000Y-59813300D01*
X129286000Y-59813300D02*
X131681000Y-59813300D01*
X132715000Y-73456800D02*
X134950200Y-75692000D01*
X118364000Y-76962000D02*
X118434744Y-76962000D01*
X116937000Y-78904000D02*
X118364000Y-77477000D01*
X111760000Y-57095000D02*
X111760000Y-55880000D01*
X122133224Y-78018607D02*
X122672000Y-78557383D01*
X127381000Y-74041000D02*
X127381000Y-61722000D01*
X120172000Y-83596000D02*
X120172000Y-81685000D01*
X125441000Y-75981000D02*
X127381000Y-74041000D01*
X118364000Y-77477000D02*
X118364000Y-76962000D01*
X123801630Y-78509630D02*
X123922000Y-78630000D01*
X121547000Y-77305552D02*
X122133224Y-77891776D01*
X119958744Y-75438000D02*
X121031000Y-75438000D01*
X131681000Y-59813300D02*
X133346300Y-59813300D01*
X133356000Y-70811942D02*
X132894642Y-71273300D01*
X105830000Y-78904000D02*
X103796000Y-78904000D01*
X122555000Y-86779500D02*
X122555000Y-85979000D01*
X122672000Y-78557383D02*
X122672000Y-79285000D01*
X134620000Y-69469000D02*
X133356000Y-70733000D01*
X122672000Y-78905918D02*
X123068288Y-78509630D01*
X118434744Y-76962000D02*
X119958744Y-75438000D01*
X122555000Y-86779500D02*
X126800500Y-86779500D01*
X122133224Y-77891776D02*
X122133224Y-78018607D01*
X121031000Y-75438000D02*
X121547000Y-75954000D01*
X129032000Y-60071000D02*
X129032000Y-60067300D01*
X120172000Y-81685000D02*
X119907000Y-81420000D01*
X111760000Y-55880000D02*
X111506000Y-55626000D01*
X105830000Y-78904000D02*
X116937000Y-78904000D01*
X132815700Y-71273300D02*
X132715000Y-71374000D01*
%TO.N,/Camera_MISO*%
X105736000Y-58293000D02*
X108331000Y-60888000D01*
X108331000Y-60888000D02*
X108331000Y-60960000D01*
X126492000Y-80772000D02*
X128193800Y-80772000D01*
%TO.N,/SCL_I2C*%
X126873000Y-84636000D02*
X125349000Y-83112000D01*
X105736000Y-70993000D02*
X110236000Y-70993000D01*
X125349000Y-83112000D02*
X125349000Y-82931000D01*
X124000000Y-77343000D02*
X124841000Y-77343000D01*
X123547000Y-76890000D02*
X124000000Y-77343000D01*
X125349000Y-82931000D02*
X125168000Y-82931000D01*
X115392700Y-67310000D02*
X115516000Y-67433300D01*
X113919000Y-67310000D02*
X115392700Y-67310000D01*
X126873000Y-84852000D02*
X126873000Y-84636000D01*
X123547000Y-75464300D02*
X115516000Y-67433300D01*
X110236000Y-70993000D02*
X113919000Y-67310000D01*
X125168000Y-82931000D02*
X123922000Y-81685000D01*
X123547000Y-76890000D02*
X123547000Y-75464300D01*
%TO.N,/SDA_I2C*%
X124206000Y-83312000D02*
X124059744Y-83312000D01*
X120904000Y-52451000D02*
X119472000Y-53883000D01*
X124714000Y-83966256D02*
X124206000Y-83458256D01*
X122547000Y-75880256D02*
X119275744Y-72609000D01*
X111803371Y-68453000D02*
X115363071Y-64893300D01*
X119472000Y-53883000D02*
X119472000Y-62265000D01*
X124714000Y-84852000D02*
X124714000Y-83966256D01*
X122547000Y-77583854D02*
X122547000Y-76890000D01*
X122547000Y-76890000D02*
X122547000Y-75880256D01*
X127127000Y-52451000D02*
X120904000Y-52451000D01*
X124059744Y-83312000D02*
X123207744Y-82460000D01*
X104496200Y-69692800D02*
X105736000Y-68453000D01*
X116843700Y-64893300D02*
X115516000Y-64893300D01*
X123068288Y-82460000D02*
X122672000Y-82063712D01*
X122672000Y-82063712D02*
X122672000Y-81685000D01*
X119472000Y-62265000D02*
X116843700Y-64893300D01*
X119275744Y-72609000D02*
X105598658Y-72609000D01*
X105598658Y-72609000D02*
X104496200Y-71506542D01*
X115363071Y-64893300D02*
X115516000Y-64893300D01*
X122897574Y-77934428D02*
X122547000Y-77583854D01*
X124206000Y-83458256D02*
X124206000Y-83312000D01*
X104496200Y-71506542D02*
X104496200Y-69692800D01*
X123207744Y-82460000D02*
X123068288Y-82460000D01*
X105736000Y-68453000D02*
X111803371Y-68453000D01*
%TO.N,/CAMERA_CS*%
X131064000Y-76200000D02*
X131681000Y-75583000D01*
X131681000Y-75583000D02*
X131681000Y-69973300D01*
X131681000Y-69973300D02*
X130298300Y-69973300D01*
X129921000Y-79502000D02*
X130048000Y-79375000D01*
X129540000Y-69215000D02*
X130298300Y-69973300D01*
X128193800Y-79502000D02*
X129921000Y-79502000D01*
%TO.N,/Radio_Reset*%
X111760000Y-58095000D02*
X114694300Y-58095000D01*
X114694300Y-58095000D02*
X115516000Y-57273300D01*
%TO.N,/Radio_G0*%
X111760000Y-63095000D02*
X112234300Y-63095000D01*
X112234300Y-63095000D02*
X115516000Y-59813300D01*
%TO.N,/Radio_CS*%
X113070000Y-59095000D02*
X113284000Y-59309000D01*
X133985000Y-76962000D02*
X134950200Y-76962000D01*
X115954700Y-62353300D02*
X115516000Y-62353300D01*
X111760000Y-59095000D02*
X113070000Y-59095000D01*
X118237000Y-60071000D02*
X115954700Y-62353300D01*
X132842000Y-75819000D02*
X133985000Y-76962000D01*
D31*
%TO.N,+5V*%
X118749189Y-64643000D02*
X118491000Y-64643000D01*
X128527700Y-54733300D02*
X128527700Y-54864489D01*
X111760000Y-66095000D02*
X113030000Y-66095000D01*
D30*
X135148000Y-57424000D02*
X136144000Y-57424000D01*
D31*
X131681000Y-54733300D02*
X128527700Y-54733300D01*
X128527700Y-54864489D02*
X118749189Y-64643000D01*
D30*
X132457300Y-54733300D02*
X135148000Y-57424000D01*
D29*
X131681000Y-54733300D02*
X132457300Y-54733300D01*
%TO.N,/Radio_MISO*%
X111760000Y-61095000D02*
X112895000Y-61095000D01*
X133858000Y-78232000D02*
X134950200Y-78232000D01*
X133096000Y-77470000D02*
X133858000Y-78232000D01*
X112895000Y-61095000D02*
X113284000Y-60579000D01*
%TO.N,/Radio_EN*%
X118837000Y-58054300D02*
X118837000Y-61630000D01*
X110577000Y-64095000D02*
X111760000Y-64095000D01*
X118837000Y-61630000D02*
X117856000Y-62611000D01*
X115516000Y-54733300D02*
X118837000Y-58054300D01*
X109855000Y-63373000D02*
X110577000Y-64095000D01*
%TO.N,/MISO*%
X130175000Y-78232000D02*
X128193800Y-78232000D01*
X131445000Y-79502000D02*
X130175000Y-78232000D01*
X130175000Y-78232000D02*
X130006000Y-78063000D01*
X131533900Y-79502000D02*
X134950200Y-79502000D01*
X130006000Y-72983000D02*
X127781000Y-70758000D01*
X131533900Y-79502000D02*
X131445000Y-79502000D01*
X127781000Y-67037000D02*
X129924700Y-64893300D01*
X128993900Y-82042000D02*
X131533900Y-79502000D01*
X128193800Y-82042000D02*
X128993900Y-82042000D01*
X129924700Y-64893300D02*
X131681000Y-64893300D01*
X127781000Y-70758000D02*
X127781000Y-67037000D01*
X130006000Y-78063000D02*
X130006000Y-72983000D01*
%TD*%
%TA.AperFunction,Conductor*%
%TO.N,GND*%
G36*
X100705703Y-78187384D02*
G01*
X100712181Y-78193416D01*
X102887139Y-80368374D01*
X102887149Y-80368385D01*
X102891479Y-80372715D01*
X102891480Y-80372716D01*
X103003284Y-80484520D01*
X103081194Y-80529501D01*
X103140215Y-80563577D01*
X103292943Y-80604501D01*
X103292946Y-80604501D01*
X103458653Y-80604501D01*
X103458669Y-80604500D01*
X104742820Y-80604500D01*
X104809859Y-80624185D01*
X104842085Y-80654187D01*
X104922454Y-80761546D01*
X104936419Y-80772000D01*
X105037664Y-80847793D01*
X105037669Y-80847796D01*
X105098833Y-80870608D01*
X105154766Y-80912478D01*
X105179184Y-80977942D01*
X105179500Y-80986790D01*
X105179500Y-81221209D01*
X105159815Y-81288248D01*
X105107011Y-81334003D01*
X105098833Y-81337391D01*
X105037671Y-81360202D01*
X105037664Y-81360206D01*
X104922455Y-81446452D01*
X104922452Y-81446455D01*
X104836206Y-81561664D01*
X104836202Y-81561671D01*
X104785908Y-81696517D01*
X104779501Y-81756116D01*
X104779500Y-81756135D01*
X104779500Y-82651870D01*
X104779501Y-82651876D01*
X104785908Y-82711483D01*
X104836202Y-82846328D01*
X104836206Y-82846335D01*
X104922452Y-82961544D01*
X104922455Y-82961547D01*
X105037664Y-83047793D01*
X105037671Y-83047797D01*
X105172517Y-83098091D01*
X105172516Y-83098091D01*
X105179444Y-83098835D01*
X105232127Y-83104500D01*
X106827872Y-83104499D01*
X106887483Y-83098091D01*
X107022331Y-83047796D01*
X107137546Y-82961546D01*
X107223796Y-82846331D01*
X107274091Y-82711483D01*
X107280500Y-82651873D01*
X107280499Y-82086790D01*
X107300183Y-82019752D01*
X107352987Y-81973997D01*
X107361167Y-81970609D01*
X107422326Y-81947798D01*
X107422326Y-81947797D01*
X107422331Y-81947796D01*
X107537546Y-81861546D01*
X107617914Y-81754188D01*
X107673847Y-81712318D01*
X107717180Y-81704500D01*
X109104793Y-81704500D01*
X109117493Y-81705152D01*
X109159137Y-81709440D01*
X109180138Y-81706067D01*
X109199795Y-81704500D01*
X109221054Y-81704500D01*
X109221057Y-81704500D01*
X109261511Y-81693659D01*
X109273897Y-81691013D01*
X109315253Y-81684374D01*
X109334671Y-81675678D01*
X109353239Y-81669081D01*
X109373784Y-81663577D01*
X109410050Y-81642638D01*
X109421350Y-81636865D01*
X109459561Y-81619757D01*
X109476054Y-81606341D01*
X109492295Y-81595154D01*
X109510716Y-81584520D01*
X109540328Y-81554906D01*
X109549765Y-81546393D01*
X109581882Y-81520273D01*
X109582228Y-81519992D01*
X109594693Y-81502756D01*
X109607473Y-81487761D01*
X109622520Y-81472716D01*
X109622523Y-81472711D01*
X109627468Y-81466268D01*
X109628542Y-81467092D01*
X109672924Y-81424762D01*
X109688796Y-81417931D01*
X109787330Y-81383453D01*
X109823520Y-81370790D01*
X109823522Y-81370789D01*
X109976262Y-81274816D01*
X110103816Y-81147262D01*
X110199789Y-80994522D01*
X110259368Y-80824255D01*
X110259369Y-80824249D01*
X110279565Y-80645003D01*
X110279565Y-80644996D01*
X110259369Y-80465750D01*
X110259368Y-80465745D01*
X110244228Y-80422478D01*
X110199789Y-80295478D01*
X110183615Y-80269738D01*
X110138891Y-80198559D01*
X110103816Y-80142738D01*
X109976262Y-80015184D01*
X109930822Y-79986632D01*
X109823523Y-79919211D01*
X109653254Y-79859631D01*
X109653249Y-79859630D01*
X109474004Y-79839435D01*
X109473996Y-79839435D01*
X109294750Y-79859630D01*
X109294745Y-79859631D01*
X109124476Y-79919211D01*
X108971737Y-80015184D01*
X108844184Y-80142737D01*
X108748210Y-80295478D01*
X108704480Y-80420454D01*
X108663758Y-80477230D01*
X108598805Y-80502978D01*
X108587438Y-80503500D01*
X107717180Y-80503500D01*
X107650141Y-80483815D01*
X107617913Y-80453811D01*
X107611119Y-80444735D01*
X107537546Y-80346454D01*
X107491038Y-80311638D01*
X107422335Y-80260206D01*
X107422330Y-80260203D01*
X107361165Y-80237390D01*
X107305232Y-80195518D01*
X107280815Y-80130054D01*
X107280499Y-80121208D01*
X107280499Y-79628500D01*
X107300184Y-79561461D01*
X107352988Y-79515706D01*
X107404499Y-79504500D01*
X115236464Y-79504500D01*
X115303503Y-79524185D01*
X115349258Y-79576989D01*
X115359202Y-79646147D01*
X115330177Y-79709703D01*
X115310776Y-79727766D01*
X115272452Y-79756455D01*
X115186206Y-79871664D01*
X115186202Y-79871671D01*
X115135908Y-80006517D01*
X115129870Y-80062688D01*
X115129501Y-80066123D01*
X115129500Y-80066135D01*
X115129500Y-81961870D01*
X115129501Y-81961876D01*
X115135908Y-82021483D01*
X115186202Y-82156328D01*
X115186206Y-82156335D01*
X115272452Y-82271544D01*
X115272455Y-82271547D01*
X115387664Y-82357793D01*
X115387671Y-82357797D01*
X115522517Y-82408091D01*
X115522516Y-82408091D01*
X115529444Y-82408835D01*
X115582127Y-82414500D01*
X117077872Y-82414499D01*
X117137483Y-82408091D01*
X117272331Y-82357796D01*
X117387546Y-82271546D01*
X117473796Y-82156331D01*
X117524091Y-82021483D01*
X117530500Y-81961873D01*
X117530499Y-80066128D01*
X117524091Y-80006517D01*
X117516674Y-79986632D01*
X117473797Y-79871671D01*
X117473793Y-79871664D01*
X117387547Y-79756455D01*
X117387544Y-79756452D01*
X117272335Y-79670206D01*
X117272328Y-79670202D01*
X117238590Y-79657619D01*
X117182656Y-79615748D01*
X117158239Y-79550284D01*
X117173091Y-79482011D01*
X117219923Y-79434050D01*
X117305716Y-79384520D01*
X117417520Y-79272716D01*
X117417520Y-79272714D01*
X117427728Y-79262507D01*
X117427729Y-79262504D01*
X118276322Y-78413912D01*
X118337641Y-78380430D01*
X118407333Y-78385414D01*
X118451680Y-78413915D01*
X119298608Y-79260843D01*
X119332093Y-79322166D01*
X119330702Y-79380617D01*
X119306499Y-79470943D01*
X119306499Y-79639046D01*
X119306500Y-79639059D01*
X119306500Y-81333330D01*
X119306499Y-81333348D01*
X119306499Y-81499054D01*
X119306498Y-81499054D01*
X119306499Y-81499057D01*
X119347423Y-81651785D01*
X119371360Y-81693245D01*
X119389887Y-81725336D01*
X119406500Y-81787334D01*
X119406500Y-82271415D01*
X119406501Y-82271437D01*
X119409323Y-82307306D01*
X119409323Y-82307309D01*
X119409324Y-82307310D01*
X119423991Y-82357793D01*
X119453944Y-82460893D01*
X119535354Y-82598550D01*
X119540140Y-82604720D01*
X119539087Y-82605536D01*
X119568664Y-82659690D01*
X119571500Y-82686059D01*
X119571500Y-83509330D01*
X119571499Y-83509348D01*
X119571499Y-83675054D01*
X119571498Y-83675054D01*
X119577855Y-83698779D01*
X119608799Y-83814262D01*
X119612423Y-83827784D01*
X119612425Y-83827790D01*
X119615852Y-83833726D01*
X119615856Y-83833731D01*
X119691477Y-83964712D01*
X119691481Y-83964717D01*
X119810349Y-84083585D01*
X119810355Y-84083590D01*
X121381017Y-85654252D01*
X121414502Y-85715575D01*
X121409518Y-85785267D01*
X121381018Y-85829614D01*
X121312287Y-85898345D01*
X121220187Y-86047663D01*
X121220185Y-86047668D01*
X121205168Y-86092987D01*
X121165001Y-86214203D01*
X121165001Y-86214204D01*
X121165000Y-86214204D01*
X121154500Y-86316983D01*
X121154500Y-86316991D01*
X121154500Y-86757820D01*
X121154501Y-87175500D01*
X121134817Y-87242539D01*
X121082013Y-87288294D01*
X121030501Y-87299500D01*
X119859029Y-87299500D01*
X119791990Y-87279815D01*
X119746235Y-87227011D01*
X119736291Y-87157853D01*
X119765316Y-87094297D01*
X119778493Y-87081214D01*
X119779789Y-87080106D01*
X119779788Y-87080106D01*
X119779792Y-87080104D01*
X119930104Y-86929792D01*
X119930106Y-86929788D01*
X119930109Y-86929786D01*
X120055048Y-86757820D01*
X120055047Y-86757820D01*
X120055051Y-86757816D01*
X120151557Y-86568412D01*
X120217246Y-86366243D01*
X120250500Y-86156287D01*
X120250500Y-85943713D01*
X120217246Y-85733757D01*
X120151557Y-85531588D01*
X120055051Y-85342184D01*
X120055049Y-85342181D01*
X120055048Y-85342179D01*
X119930109Y-85170213D01*
X119779786Y-85019890D01*
X119607820Y-84894951D01*
X119418414Y-84798444D01*
X119418413Y-84798443D01*
X119418412Y-84798443D01*
X119216243Y-84732754D01*
X119216241Y-84732753D01*
X119216240Y-84732753D01*
X119054957Y-84707208D01*
X119006287Y-84699500D01*
X118793713Y-84699500D01*
X118745042Y-84707208D01*
X118583760Y-84732753D01*
X118381585Y-84798444D01*
X118192179Y-84894951D01*
X118020213Y-85019890D01*
X117869890Y-85170213D01*
X117744951Y-85342179D01*
X117648444Y-85531585D01*
X117582753Y-85733760D01*
X117549500Y-85943713D01*
X117549500Y-86156286D01*
X117582753Y-86366239D01*
X117648444Y-86568414D01*
X117744951Y-86757820D01*
X117869890Y-86929786D01*
X118020210Y-87080106D01*
X118021507Y-87081214D01*
X118021862Y-87081758D01*
X118023653Y-87083549D01*
X118023276Y-87083925D01*
X118059698Y-87139723D01*
X118060193Y-87209591D01*
X118022836Y-87268635D01*
X117959488Y-87298110D01*
X117940971Y-87299500D01*
X103754500Y-87299500D01*
X103687461Y-87279815D01*
X103641706Y-87227011D01*
X103630500Y-87175500D01*
X103630499Y-86066129D01*
X103630498Y-86066123D01*
X103628514Y-86047668D01*
X103624091Y-86006517D01*
X103583745Y-85898345D01*
X103573797Y-85871671D01*
X103573793Y-85871664D01*
X103487547Y-85756455D01*
X103487544Y-85756452D01*
X103372335Y-85670206D01*
X103372328Y-85670202D01*
X103237482Y-85619908D01*
X103237483Y-85619908D01*
X103177883Y-85613501D01*
X103177881Y-85613500D01*
X103177873Y-85613500D01*
X103177864Y-85613500D01*
X101182129Y-85613500D01*
X101182123Y-85613501D01*
X101122516Y-85619908D01*
X100987671Y-85670202D01*
X100987664Y-85670206D01*
X100872455Y-85756452D01*
X100872452Y-85756455D01*
X100786206Y-85871664D01*
X100786202Y-85871671D01*
X100740682Y-85993719D01*
X100698811Y-86049653D01*
X100633347Y-86074070D01*
X100565074Y-86059219D01*
X100515668Y-86009813D01*
X100500500Y-85950386D01*
X100500500Y-78281097D01*
X100520185Y-78214058D01*
X100572989Y-78168303D01*
X100642147Y-78158359D01*
X100705703Y-78187384D01*
G37*
%TD.AperFunction*%
%TA.AperFunction,Conductor*%
G36*
X126584246Y-77765731D02*
G01*
X126616474Y-77827723D01*
X126618086Y-77864859D01*
X126613800Y-77904728D01*
X126613800Y-78559270D01*
X126613801Y-78559276D01*
X126620208Y-78618883D01*
X126670502Y-78753728D01*
X126670503Y-78753730D01*
X126699668Y-78792690D01*
X126724084Y-78858155D01*
X126709232Y-78926428D01*
X126699668Y-78941310D01*
X126670503Y-78980269D01*
X126670502Y-78980271D01*
X126620210Y-79115113D01*
X126620209Y-79115117D01*
X126613800Y-79174727D01*
X126613800Y-79174734D01*
X126613800Y-79174735D01*
X126613800Y-79829270D01*
X126613979Y-79832595D01*
X126613168Y-79832638D01*
X126601381Y-79897947D01*
X126553767Y-79949081D01*
X126498751Y-79964171D01*
X126498919Y-79965655D01*
X126312750Y-79986630D01*
X126312745Y-79986631D01*
X126142476Y-80046211D01*
X125989737Y-80142184D01*
X125862184Y-80269737D01*
X125766211Y-80422476D01*
X125706631Y-80592745D01*
X125706630Y-80592750D01*
X125686435Y-80771996D01*
X125686435Y-80772003D01*
X125706630Y-80951249D01*
X125706631Y-80951254D01*
X125766211Y-81121523D01*
X125862184Y-81274262D01*
X125989738Y-81401816D01*
X126080080Y-81458582D01*
X126126494Y-81487746D01*
X126142478Y-81497789D01*
X126305740Y-81554917D01*
X126312745Y-81557368D01*
X126312750Y-81557369D01*
X126498920Y-81578345D01*
X126498735Y-81579982D01*
X126557540Y-81597250D01*
X126603295Y-81650054D01*
X126613233Y-81711381D01*
X126613699Y-81711406D01*
X126613800Y-81711406D01*
X126613800Y-81711411D01*
X126613978Y-81711421D01*
X126613800Y-81714736D01*
X126613800Y-82369270D01*
X126613801Y-82369276D01*
X126620208Y-82428883D01*
X126670502Y-82563728D01*
X126670504Y-82563731D01*
X126699667Y-82602688D01*
X126699979Y-82603104D01*
X126724397Y-82668568D01*
X126709546Y-82736841D01*
X126699980Y-82751726D01*
X126670949Y-82790506D01*
X126670945Y-82790513D01*
X126620703Y-82925220D01*
X126620701Y-82925227D01*
X126614300Y-82984755D01*
X126614300Y-83062000D01*
X129773300Y-83062000D01*
X129773300Y-82984772D01*
X129773299Y-82984755D01*
X129766898Y-82925227D01*
X129766896Y-82925220D01*
X129716654Y-82790513D01*
X129716650Y-82790506D01*
X129687620Y-82751727D01*
X129663202Y-82686263D01*
X129678053Y-82617990D01*
X129687614Y-82603113D01*
X129717096Y-82563731D01*
X129717098Y-82563727D01*
X129728352Y-82533550D01*
X129767391Y-82428883D01*
X129773800Y-82369273D01*
X129773799Y-82162696D01*
X129793483Y-82095657D01*
X129810113Y-82075020D01*
X131746316Y-80138819D01*
X131807639Y-80105334D01*
X131833997Y-80102500D01*
X133303425Y-80102500D01*
X133370464Y-80122185D01*
X133416219Y-80174989D01*
X133426163Y-80244147D01*
X133419607Y-80269833D01*
X133379164Y-80378268D01*
X133376609Y-80385117D01*
X133370200Y-80444727D01*
X133370200Y-80444734D01*
X133370200Y-80444735D01*
X133370200Y-81099270D01*
X133370201Y-81099276D01*
X133376608Y-81158883D01*
X133426902Y-81293728D01*
X133426903Y-81293730D01*
X133456068Y-81332690D01*
X133480484Y-81398155D01*
X133465632Y-81466428D01*
X133456068Y-81481310D01*
X133426903Y-81520269D01*
X133426902Y-81520271D01*
X133377851Y-81651786D01*
X133376609Y-81655117D01*
X133370200Y-81714727D01*
X133370200Y-81714734D01*
X133370200Y-81714735D01*
X133370200Y-82369270D01*
X133370201Y-82369276D01*
X133376608Y-82428883D01*
X133426902Y-82563728D01*
X133426903Y-82563730D01*
X133456068Y-82602690D01*
X133480484Y-82668155D01*
X133465632Y-82736428D01*
X133456068Y-82751310D01*
X133426903Y-82790269D01*
X133426902Y-82790271D01*
X133376610Y-82925113D01*
X133376609Y-82925117D01*
X133370200Y-82984727D01*
X133370200Y-82984734D01*
X133370200Y-82984735D01*
X133370200Y-83639270D01*
X133370201Y-83639276D01*
X133376608Y-83698883D01*
X133426902Y-83833728D01*
X133426906Y-83833735D01*
X133513152Y-83948944D01*
X133513155Y-83948947D01*
X133628364Y-84035193D01*
X133628371Y-84035197D01*
X133763217Y-84085491D01*
X133763216Y-84085491D01*
X133770144Y-84086235D01*
X133822827Y-84091900D01*
X136077572Y-84091899D01*
X136137183Y-84085491D01*
X136272031Y-84035196D01*
X136387246Y-83948946D01*
X136473496Y-83833731D01*
X136523791Y-83698883D01*
X136523790Y-83698883D01*
X136526318Y-83692108D01*
X136568189Y-83636174D01*
X136633653Y-83611757D01*
X136701926Y-83626608D01*
X136751332Y-83676013D01*
X136766500Y-83735441D01*
X136766500Y-87175500D01*
X136746815Y-87242539D01*
X136694011Y-87288294D01*
X136642500Y-87299500D01*
X128197500Y-87299500D01*
X128130461Y-87279815D01*
X128084706Y-87227011D01*
X128073500Y-87175500D01*
X128073499Y-86451998D01*
X128073498Y-86451980D01*
X128062999Y-86349203D01*
X128062998Y-86349200D01*
X128052322Y-86316983D01*
X128007814Y-86182666D01*
X127915712Y-86033344D01*
X127822049Y-85939681D01*
X127788564Y-85878358D01*
X127793548Y-85808666D01*
X127822049Y-85764319D01*
X127852611Y-85733757D01*
X127915712Y-85670656D01*
X128007814Y-85521334D01*
X128062999Y-85354797D01*
X128073500Y-85252009D01*
X128073499Y-84451992D01*
X128062999Y-84349203D01*
X128007814Y-84182666D01*
X127962261Y-84108812D01*
X127957323Y-84091400D01*
X128443800Y-84091400D01*
X129321128Y-84091400D01*
X129321144Y-84091399D01*
X129380672Y-84084998D01*
X129380679Y-84084996D01*
X129515386Y-84034754D01*
X129515393Y-84034750D01*
X129630487Y-83948590D01*
X129630490Y-83948587D01*
X129716650Y-83833493D01*
X129716654Y-83833486D01*
X129766896Y-83698779D01*
X129766898Y-83698772D01*
X129773299Y-83639244D01*
X129773300Y-83639227D01*
X129773300Y-83562000D01*
X128443800Y-83562000D01*
X128443800Y-84091400D01*
X127957323Y-84091400D01*
X127943800Y-84043716D01*
X127943800Y-83562000D01*
X126699597Y-83562000D01*
X126632558Y-83542315D01*
X126611916Y-83525681D01*
X126182883Y-83096648D01*
X126149398Y-83035325D01*
X126147344Y-82995082D01*
X126154565Y-82931000D01*
X126154565Y-82930997D01*
X126134369Y-82751750D01*
X126134368Y-82751745D01*
X126111310Y-82685848D01*
X126074789Y-82581478D01*
X125978816Y-82428738D01*
X125851262Y-82301184D01*
X125804095Y-82271547D01*
X125698523Y-82205211D01*
X125528254Y-82145631D01*
X125528249Y-82145630D01*
X125349004Y-82125435D01*
X125348997Y-82125435D01*
X125284915Y-82132655D01*
X125216093Y-82120600D01*
X125183351Y-82097116D01*
X124723818Y-81637583D01*
X124690333Y-81576260D01*
X124687499Y-81549902D01*
X124687499Y-81098585D01*
X124687498Y-81098560D01*
X124684676Y-81062693D01*
X124684676Y-81062690D01*
X124640056Y-80909107D01*
X124587620Y-80820444D01*
X124558645Y-80771449D01*
X124558638Y-80771440D01*
X124445559Y-80658361D01*
X124445556Y-80658359D01*
X124445554Y-80658357D01*
X124332895Y-80591730D01*
X124285214Y-80540663D01*
X124272710Y-80471921D01*
X124299355Y-80407332D01*
X124332894Y-80378269D01*
X124445554Y-80311643D01*
X124558643Y-80198554D01*
X124640056Y-80060893D01*
X124672909Y-79947811D01*
X124684675Y-79907314D01*
X124684676Y-79907308D01*
X124686659Y-79882108D01*
X124687500Y-79871427D01*
X124687499Y-79420095D01*
X124707183Y-79353057D01*
X124723813Y-79332420D01*
X125799506Y-78256728D01*
X125799511Y-78256724D01*
X125809714Y-78246520D01*
X125809716Y-78246520D01*
X125921520Y-78134716D01*
X126000577Y-77997784D01*
X126038370Y-77856738D01*
X126039794Y-77851425D01*
X126076155Y-77791762D01*
X126139001Y-77761230D01*
X126173450Y-77760292D01*
X126221723Y-77765731D01*
X126237999Y-77767565D01*
X126238000Y-77767565D01*
X126238004Y-77767565D01*
X126417249Y-77747369D01*
X126417250Y-77747368D01*
X126417255Y-77747368D01*
X126453841Y-77734565D01*
X126523618Y-77731003D01*
X126584246Y-77765731D01*
G37*
%TD.AperFunction*%
%TA.AperFunction,Conductor*%
G36*
X122748039Y-83424185D02*
G01*
X122793794Y-83476989D01*
X122805000Y-83528500D01*
X122805000Y-84816999D01*
X123254972Y-84816999D01*
X123254986Y-84816998D01*
X123357694Y-84806506D01*
X123363532Y-84805256D01*
X123433208Y-84810464D01*
X123489006Y-84852516D01*
X123513212Y-84918058D01*
X123513500Y-84926506D01*
X123513500Y-85252000D01*
X123513501Y-85252019D01*
X123524000Y-85354796D01*
X123524001Y-85354799D01*
X123568164Y-85488071D01*
X123570566Y-85557899D01*
X123534834Y-85617941D01*
X123472314Y-85649134D01*
X123411455Y-85644781D01*
X123357799Y-85627001D01*
X123357795Y-85627000D01*
X123255016Y-85616500D01*
X123255009Y-85616500D01*
X123093098Y-85616500D01*
X123026059Y-85596815D01*
X123005421Y-85580185D01*
X122923716Y-85498480D01*
X122923715Y-85498479D01*
X122919385Y-85494149D01*
X122919374Y-85494139D01*
X122341319Y-84916084D01*
X122307834Y-84854761D01*
X122305000Y-84828403D01*
X122305000Y-83528500D01*
X122324685Y-83461461D01*
X122377489Y-83415706D01*
X122429000Y-83404500D01*
X122681000Y-83404500D01*
X122748039Y-83424185D01*
G37*
%TD.AperFunction*%
%TA.AperFunction,Conductor*%
G36*
X120959620Y-82747821D02*
G01*
X121036107Y-82793056D01*
X121120084Y-82817453D01*
X121178968Y-82855058D01*
X121208175Y-82918530D01*
X121203194Y-82975533D01*
X121165494Y-83089302D01*
X121165493Y-83089309D01*
X121155000Y-83192013D01*
X121155000Y-83430403D01*
X121135315Y-83497442D01*
X121082511Y-83543197D01*
X121013353Y-83553141D01*
X120949797Y-83524116D01*
X120943319Y-83518084D01*
X120808819Y-83383584D01*
X120775334Y-83322261D01*
X120772500Y-83295903D01*
X120772500Y-82854554D01*
X120792185Y-82787515D01*
X120844989Y-82741760D01*
X120914147Y-82731816D01*
X120959620Y-82747821D01*
G37*
%TD.AperFunction*%
%TA.AperFunction,Conductor*%
G36*
X132071099Y-76144648D02*
G01*
X132127032Y-76186520D01*
X132132759Y-76194858D01*
X132212184Y-76321262D01*
X132339738Y-76448816D01*
X132492478Y-76544789D01*
X132616439Y-76588164D01*
X132673214Y-76628886D01*
X132698962Y-76693838D01*
X132685506Y-76762400D01*
X132641458Y-76810199D01*
X132593736Y-76840185D01*
X132466184Y-76967737D01*
X132370211Y-77120476D01*
X132310631Y-77290745D01*
X132310630Y-77290750D01*
X132290435Y-77469996D01*
X132290435Y-77470003D01*
X132310630Y-77649249D01*
X132310631Y-77649254D01*
X132370211Y-77819523D01*
X132434195Y-77921352D01*
X132466184Y-77972262D01*
X132593738Y-78099816D01*
X132746478Y-78195789D01*
X132916745Y-78255368D01*
X133003669Y-78265161D01*
X133068080Y-78292226D01*
X133077465Y-78300700D01*
X133346210Y-78569446D01*
X133374711Y-78613794D01*
X133419607Y-78734167D01*
X133424591Y-78803859D01*
X133391106Y-78865182D01*
X133329782Y-78898666D01*
X133303425Y-78901500D01*
X131745097Y-78901500D01*
X131678058Y-78881815D01*
X131657416Y-78865181D01*
X130662590Y-77870355D01*
X130662588Y-77870352D01*
X130642819Y-77850583D01*
X130609334Y-77789260D01*
X130606500Y-77762902D01*
X130606500Y-77062768D01*
X130626185Y-76995729D01*
X130678989Y-76949974D01*
X130748147Y-76940030D01*
X130771455Y-76945727D01*
X130884737Y-76985366D01*
X130884743Y-76985367D01*
X130884745Y-76985368D01*
X130884746Y-76985368D01*
X130884750Y-76985369D01*
X131063996Y-77005565D01*
X131064000Y-77005565D01*
X131064004Y-77005565D01*
X131243249Y-76985369D01*
X131243252Y-76985368D01*
X131243255Y-76985368D01*
X131413522Y-76925789D01*
X131566262Y-76829816D01*
X131693816Y-76702262D01*
X131789789Y-76549522D01*
X131849368Y-76379255D01*
X131859161Y-76292329D01*
X131886226Y-76227918D01*
X131894689Y-76218544D01*
X131940087Y-76173147D01*
X132001407Y-76139664D01*
X132071099Y-76144648D01*
G37*
%TD.AperFunction*%
%TA.AperFunction,Conductor*%
G36*
X104761020Y-72636443D02*
G01*
X104805367Y-72664944D01*
X105113797Y-72973374D01*
X105113807Y-72973385D01*
X105118137Y-72977715D01*
X105118138Y-72977716D01*
X105229942Y-73089520D01*
X105229944Y-73089521D01*
X105229945Y-73089522D01*
X105262704Y-73108435D01*
X105294221Y-73126631D01*
X105297684Y-73128630D01*
X105297686Y-73128632D01*
X105297687Y-73128632D01*
X105366873Y-73168577D01*
X105519601Y-73209500D01*
X105677715Y-73209500D01*
X118104840Y-73209500D01*
X118171879Y-73229185D01*
X118217634Y-73281989D01*
X118227578Y-73351147D01*
X118214018Y-73388548D01*
X118215240Y-73389118D01*
X118212185Y-73395668D01*
X118206860Y-73411738D01*
X118157001Y-73562203D01*
X118157001Y-73562204D01*
X118157000Y-73562204D01*
X118146500Y-73664983D01*
X118146500Y-75065001D01*
X118146501Y-75065018D01*
X118157000Y-75167796D01*
X118157001Y-75167799D01*
X118212185Y-75334331D01*
X118212187Y-75334336D01*
X118230933Y-75364728D01*
X118304288Y-75483656D01*
X118428344Y-75607712D01*
X118577666Y-75699814D01*
X118577671Y-75699815D01*
X118577672Y-75699816D01*
X118589658Y-75703788D01*
X118647102Y-75743561D01*
X118673924Y-75808078D01*
X118661608Y-75876853D01*
X118638333Y-75909174D01*
X118171626Y-76375881D01*
X118138901Y-76397748D01*
X118139254Y-76398359D01*
X117995287Y-76481477D01*
X117995282Y-76481481D01*
X117883481Y-76593282D01*
X117883475Y-76593290D01*
X117804426Y-76730209D01*
X117804423Y-76730216D01*
X117763500Y-76882943D01*
X117763500Y-77176902D01*
X117743815Y-77243941D01*
X117727181Y-77264583D01*
X116724584Y-78267181D01*
X116663261Y-78300666D01*
X116636903Y-78303500D01*
X107404500Y-78303500D01*
X107337461Y-78283815D01*
X107291706Y-78231011D01*
X107280500Y-78179500D01*
X107280499Y-77356129D01*
X107280498Y-77356123D01*
X107279039Y-77342553D01*
X107274091Y-77296517D01*
X107271938Y-77290745D01*
X107223797Y-77161671D01*
X107223793Y-77161664D01*
X107137547Y-77046455D01*
X107137546Y-77046454D01*
X107129685Y-77040569D01*
X107087816Y-76984633D01*
X107082794Y-76956794D01*
X107080000Y-76954000D01*
X107028069Y-76954000D01*
X106984736Y-76946182D01*
X106887482Y-76909908D01*
X106887483Y-76909908D01*
X106827883Y-76903501D01*
X106827881Y-76903500D01*
X106827873Y-76903500D01*
X106827864Y-76903500D01*
X105232129Y-76903500D01*
X105232123Y-76903501D01*
X105172516Y-76909908D01*
X105075264Y-76946182D01*
X105031931Y-76954000D01*
X104528638Y-76954000D01*
X104528638Y-76951448D01*
X104483255Y-76948191D01*
X104438936Y-76919701D01*
X102595415Y-75076180D01*
X102561930Y-75014857D01*
X102566914Y-74945165D01*
X102608786Y-74889232D01*
X102674250Y-74864815D01*
X102683096Y-74864499D01*
X104177871Y-74864499D01*
X104177872Y-74864499D01*
X104237483Y-74858091D01*
X104372331Y-74807796D01*
X104487546Y-74721546D01*
X104556234Y-74629789D01*
X104612166Y-74587919D01*
X104681858Y-74582935D01*
X104743181Y-74616420D01*
X104776666Y-74677743D01*
X104779500Y-74704101D01*
X104779500Y-74951869D01*
X104779501Y-74951876D01*
X104785908Y-75011479D01*
X104787692Y-75019026D01*
X104786229Y-75019371D01*
X104790585Y-75080371D01*
X104786173Y-75095396D01*
X104785908Y-75096517D01*
X104779501Y-75156116D01*
X104779500Y-75156135D01*
X104779500Y-75842303D01*
X104759815Y-75909342D01*
X104729815Y-75941566D01*
X104722818Y-75946804D01*
X104722808Y-75946814D01*
X104636649Y-76061906D01*
X104636645Y-76061913D01*
X104586403Y-76196620D01*
X104586401Y-76196627D01*
X104580000Y-76256155D01*
X104580000Y-76454000D01*
X105031931Y-76454000D01*
X105075264Y-76461818D01*
X105172517Y-76498091D01*
X105172516Y-76498091D01*
X105179444Y-76498835D01*
X105232127Y-76504500D01*
X106827872Y-76504499D01*
X106887483Y-76498091D01*
X106984736Y-76461817D01*
X107028069Y-76454000D01*
X107080000Y-76454000D01*
X107085276Y-76448723D01*
X107099685Y-76399655D01*
X107129690Y-76367426D01*
X107137546Y-76361546D01*
X107223796Y-76246331D01*
X107223796Y-76246328D01*
X107225916Y-76243498D01*
X107281849Y-76201626D01*
X107324153Y-76193812D01*
X110166572Y-76170296D01*
X110233771Y-76189426D01*
X110238414Y-76192727D01*
X110241736Y-76194814D01*
X110241738Y-76194816D01*
X110394478Y-76290789D01*
X110497963Y-76327000D01*
X110564745Y-76350368D01*
X110564750Y-76350369D01*
X110743996Y-76370565D01*
X110744000Y-76370565D01*
X110744004Y-76370565D01*
X110923249Y-76350369D01*
X110923252Y-76350368D01*
X110923255Y-76350368D01*
X111093522Y-76290789D01*
X111246262Y-76194816D01*
X111373816Y-76067262D01*
X111469789Y-75914522D01*
X111529368Y-75744255D01*
X111529369Y-75744249D01*
X111549565Y-75565003D01*
X111549565Y-75564996D01*
X111529369Y-75385750D01*
X111529368Y-75385745D01*
X111521154Y-75362271D01*
X111469789Y-75215478D01*
X111453267Y-75189184D01*
X111389457Y-75087631D01*
X111373816Y-75062738D01*
X111246262Y-74935184D01*
X111139502Y-74868102D01*
X111093523Y-74839211D01*
X110923254Y-74779631D01*
X110923249Y-74779630D01*
X110744004Y-74759435D01*
X110743996Y-74759435D01*
X110564750Y-74779630D01*
X110564745Y-74779631D01*
X110394476Y-74839211D01*
X110241738Y-74935184D01*
X110236295Y-74939525D01*
X110234993Y-74937892D01*
X110182535Y-74966513D01*
X110157247Y-74969333D01*
X107405525Y-74992098D01*
X107338325Y-74972968D01*
X107292135Y-74920545D01*
X107280499Y-74868106D01*
X107280499Y-74366135D01*
X115129500Y-74366135D01*
X115129500Y-76261870D01*
X115129501Y-76261876D01*
X115135908Y-76321483D01*
X115186202Y-76456328D01*
X115186206Y-76456335D01*
X115272452Y-76571544D01*
X115272455Y-76571547D01*
X115387664Y-76657793D01*
X115387671Y-76657797D01*
X115522517Y-76708091D01*
X115522516Y-76708091D01*
X115529444Y-76708835D01*
X115582127Y-76714500D01*
X117077872Y-76714499D01*
X117137483Y-76708091D01*
X117272331Y-76657796D01*
X117387546Y-76571546D01*
X117473796Y-76456331D01*
X117524091Y-76321483D01*
X117530500Y-76261873D01*
X117530499Y-74366128D01*
X117524091Y-74306517D01*
X117488191Y-74210265D01*
X117473797Y-74171671D01*
X117473793Y-74171664D01*
X117387547Y-74056455D01*
X117387544Y-74056452D01*
X117272335Y-73970206D01*
X117272328Y-73970202D01*
X117137482Y-73919908D01*
X117137483Y-73919908D01*
X117077883Y-73913501D01*
X117077881Y-73913500D01*
X117077873Y-73913500D01*
X117077864Y-73913500D01*
X115582129Y-73913500D01*
X115582123Y-73913501D01*
X115522516Y-73919908D01*
X115387671Y-73970202D01*
X115387664Y-73970206D01*
X115272455Y-74056452D01*
X115272452Y-74056455D01*
X115186206Y-74171664D01*
X115186202Y-74171671D01*
X115135908Y-74306517D01*
X115131038Y-74351821D01*
X115129501Y-74366123D01*
X115129500Y-74366135D01*
X107280499Y-74366135D01*
X107280499Y-74056128D01*
X107274091Y-73996517D01*
X107252012Y-73937321D01*
X107223797Y-73861671D01*
X107223793Y-73861664D01*
X107137547Y-73746455D01*
X107137544Y-73746452D01*
X107022335Y-73660206D01*
X107022328Y-73660202D01*
X106887482Y-73609908D01*
X106887483Y-73609908D01*
X106827883Y-73603501D01*
X106827881Y-73603500D01*
X106827873Y-73603500D01*
X106827864Y-73603500D01*
X105232129Y-73603500D01*
X105232123Y-73603501D01*
X105172516Y-73609908D01*
X105037671Y-73660202D01*
X105037664Y-73660206D01*
X104922455Y-73746452D01*
X104853765Y-73838209D01*
X104797831Y-73880079D01*
X104728139Y-73885063D01*
X104666816Y-73851577D01*
X104633332Y-73790253D01*
X104630499Y-73763902D01*
X104630499Y-72916128D01*
X104624091Y-72856517D01*
X104613877Y-72829133D01*
X104601504Y-72795958D01*
X104596520Y-72726267D01*
X104630005Y-72664944D01*
X104691328Y-72631459D01*
X104761020Y-72636443D01*
G37*
%TD.AperFunction*%
%TA.AperFunction,Conductor*%
G36*
X119719822Y-76628669D02*
G01*
X119737453Y-76640000D01*
X120622500Y-76640000D01*
X120689539Y-76659685D01*
X120735294Y-76712489D01*
X120746500Y-76764000D01*
X120746500Y-77016000D01*
X120726815Y-77083039D01*
X120674011Y-77128794D01*
X120622500Y-77140000D01*
X119747000Y-77140000D01*
X119747000Y-77580649D01*
X119749899Y-77617487D01*
X119777394Y-77712125D01*
X119777194Y-77781995D01*
X119739252Y-77840665D01*
X119675613Y-77869508D01*
X119606483Y-77859367D01*
X119570636Y-77834401D01*
X119078788Y-77342553D01*
X119045303Y-77281230D01*
X119050287Y-77211538D01*
X119078788Y-77167191D01*
X119326278Y-76919701D01*
X119588810Y-76657168D01*
X119650131Y-76623685D01*
X119719822Y-76628669D01*
G37*
%TD.AperFunction*%
%TA.AperFunction,Conductor*%
G36*
X129826155Y-55553485D02*
G01*
X129867770Y-55601511D01*
X129869180Y-55600775D01*
X129872090Y-55606345D01*
X129872091Y-55606349D01*
X129966302Y-55786707D01*
X129977910Y-55800943D01*
X130079338Y-55925335D01*
X130106447Y-55989732D01*
X130094438Y-56058561D01*
X130079338Y-56082057D01*
X129966721Y-56220170D01*
X129872557Y-56400438D01*
X129816609Y-56595971D01*
X129816608Y-56595974D01*
X129806000Y-56715299D01*
X129806000Y-57831300D01*
X129816608Y-57950625D01*
X129816609Y-57950628D01*
X129872557Y-58146161D01*
X129966721Y-58326429D01*
X130079338Y-58464542D01*
X130106447Y-58528938D01*
X130094438Y-58597768D01*
X130079338Y-58621263D01*
X129966305Y-58759887D01*
X129872089Y-58940254D01*
X129860472Y-58980856D01*
X129819825Y-59122912D01*
X129782459Y-59181949D01*
X129719105Y-59211413D01*
X129700610Y-59212800D01*
X129365057Y-59212800D01*
X129206942Y-59212800D01*
X129054215Y-59253723D01*
X129054214Y-59253723D01*
X129054212Y-59253724D01*
X129054209Y-59253725D01*
X129004096Y-59282659D01*
X129004095Y-59282660D01*
X128960689Y-59307720D01*
X128917285Y-59332779D01*
X128917282Y-59332781D01*
X128784917Y-59465147D01*
X128663286Y-59586778D01*
X128663284Y-59586780D01*
X128626967Y-59623097D01*
X128551480Y-59698583D01*
X128546538Y-59705025D01*
X128545896Y-59704532D01*
X128534885Y-59718877D01*
X127012286Y-61241478D01*
X126900481Y-61353282D01*
X126900475Y-61353290D01*
X126857967Y-61426918D01*
X126857967Y-61426919D01*
X126821423Y-61490215D01*
X126780499Y-61642943D01*
X126780499Y-61642945D01*
X126780499Y-61811046D01*
X126780500Y-61811059D01*
X126780500Y-73740902D01*
X126760815Y-73807941D01*
X126744181Y-73828583D01*
X126159180Y-74413584D01*
X126097857Y-74447069D01*
X126028165Y-74442085D01*
X125972232Y-74400213D01*
X125947815Y-74334749D01*
X125947499Y-74325903D01*
X125947499Y-73664998D01*
X125947498Y-73664981D01*
X125936999Y-73562203D01*
X125936998Y-73562200D01*
X125899706Y-73449661D01*
X125881814Y-73395666D01*
X125789712Y-73246344D01*
X125665656Y-73122288D01*
X125516334Y-73030186D01*
X125349797Y-72975001D01*
X125349795Y-72975000D01*
X125348601Y-72974605D01*
X125291156Y-72934832D01*
X125264333Y-72870316D01*
X125276648Y-72801541D01*
X125324191Y-72750341D01*
X125373722Y-72733679D01*
X125416649Y-72728842D01*
X125416649Y-72728841D01*
X125416657Y-72728841D01*
X125581606Y-72671122D01*
X125729576Y-72578147D01*
X125853147Y-72454576D01*
X125946122Y-72306606D01*
X126003841Y-72141657D01*
X126018500Y-72011552D01*
X126018500Y-69974448D01*
X126003841Y-69844343D01*
X125946122Y-69679394D01*
X125853147Y-69531424D01*
X125729576Y-69407853D01*
X125581606Y-69314878D01*
X125581605Y-69314877D01*
X125581604Y-69314877D01*
X125416658Y-69257159D01*
X125416648Y-69257157D01*
X125286558Y-69242500D01*
X125286552Y-69242500D01*
X124649448Y-69242500D01*
X124649441Y-69242500D01*
X124519351Y-69257157D01*
X124519341Y-69257159D01*
X124354395Y-69314877D01*
X124206423Y-69407853D01*
X124082853Y-69531423D01*
X123989877Y-69679395D01*
X123932159Y-69844341D01*
X123932157Y-69844351D01*
X123917500Y-69974441D01*
X123917500Y-72011558D01*
X123932157Y-72141648D01*
X123932159Y-72141658D01*
X123989877Y-72306604D01*
X123989878Y-72306606D01*
X124082853Y-72454576D01*
X124206424Y-72578147D01*
X124354394Y-72671122D01*
X124503970Y-72723461D01*
X124560741Y-72764180D01*
X124586488Y-72829133D01*
X124573032Y-72897694D01*
X124524645Y-72948097D01*
X124463016Y-72964500D01*
X124447002Y-72964500D01*
X124446980Y-72964501D01*
X124344203Y-72975000D01*
X124344200Y-72975001D01*
X124177668Y-73030185D01*
X124177663Y-73030187D01*
X124028342Y-73122289D01*
X123904289Y-73246342D01*
X123812187Y-73395663D01*
X123812185Y-73395668D01*
X123806860Y-73411738D01*
X123757001Y-73562203D01*
X123757001Y-73562204D01*
X123757000Y-73562204D01*
X123746500Y-73664983D01*
X123746500Y-74515203D01*
X123726815Y-74582242D01*
X123674011Y-74627997D01*
X123604853Y-74637941D01*
X123541297Y-74608916D01*
X123534819Y-74602884D01*
X121870902Y-72938967D01*
X121837417Y-72877644D01*
X121842401Y-72807952D01*
X121884273Y-72752019D01*
X121949737Y-72727602D01*
X121972467Y-72728066D01*
X121979341Y-72728840D01*
X121979343Y-72728841D01*
X122109444Y-72743499D01*
X122109445Y-72743500D01*
X122109448Y-72743500D01*
X122746555Y-72743500D01*
X122746556Y-72743499D01*
X122876657Y-72728841D01*
X123041606Y-72671122D01*
X123189576Y-72578147D01*
X123313147Y-72454576D01*
X123406122Y-72306606D01*
X123463841Y-72141657D01*
X123478500Y-72011552D01*
X123478500Y-69974448D01*
X123463841Y-69844343D01*
X123406122Y-69679394D01*
X123313147Y-69531424D01*
X123189576Y-69407853D01*
X123041606Y-69314878D01*
X123041605Y-69314877D01*
X123041604Y-69314877D01*
X122876658Y-69257159D01*
X122876648Y-69257157D01*
X122746558Y-69242500D01*
X122746552Y-69242500D01*
X122109448Y-69242500D01*
X122109441Y-69242500D01*
X121979351Y-69257157D01*
X121979341Y-69257159D01*
X121814395Y-69314877D01*
X121666423Y-69407853D01*
X121542853Y-69531423D01*
X121449877Y-69679395D01*
X121392159Y-69844341D01*
X121392157Y-69844351D01*
X121377500Y-69974441D01*
X121377500Y-72011558D01*
X121392933Y-72148533D01*
X121380878Y-72217355D01*
X121333529Y-72268734D01*
X121265919Y-72286358D01*
X121199513Y-72264631D01*
X121182032Y-72250097D01*
X117357252Y-68425317D01*
X117323767Y-68363994D01*
X117325717Y-68303524D01*
X117334198Y-68273885D01*
X117380886Y-68110718D01*
X117391500Y-67991337D01*
X117391499Y-66875264D01*
X117380886Y-66755882D01*
X117324909Y-66560251D01*
X117230698Y-66379893D01*
X117117983Y-66241659D01*
X117090875Y-66177265D01*
X117102884Y-66108435D01*
X117117981Y-66084942D01*
X117230698Y-65946707D01*
X117324909Y-65766349D01*
X117380886Y-65570718D01*
X117391500Y-65451337D01*
X117391499Y-65246096D01*
X117411183Y-65179057D01*
X117427813Y-65158420D01*
X117587629Y-64998604D01*
X117648950Y-64965121D01*
X117718642Y-64970105D01*
X117774575Y-65011977D01*
X117778411Y-65017397D01*
X117781605Y-65022178D01*
X117781606Y-65022179D01*
X117798642Y-65047675D01*
X117818223Y-65076981D01*
X117820110Y-65079894D01*
X117824620Y-65087072D01*
X117861180Y-65145257D01*
X117861182Y-65145260D01*
X117861184Y-65145262D01*
X117988738Y-65272816D01*
X118054131Y-65313905D01*
X118057040Y-65315790D01*
X118111821Y-65352394D01*
X118112606Y-65352719D01*
X118131134Y-65362289D01*
X118141478Y-65368789D01*
X118202175Y-65390028D01*
X118208607Y-65392484D01*
X118237021Y-65404253D01*
X118257497Y-65412735D01*
X118257498Y-65412735D01*
X118257503Y-65412737D01*
X118271139Y-65415449D01*
X118287898Y-65420023D01*
X118311745Y-65428368D01*
X118362714Y-65434110D01*
X118372992Y-65435709D01*
X118400140Y-65441109D01*
X118412157Y-65443500D01*
X118412158Y-65443500D01*
X118439085Y-65443500D01*
X118452969Y-65444280D01*
X118490998Y-65448565D01*
X118491000Y-65448565D01*
X118491002Y-65448565D01*
X118529031Y-65444280D01*
X118542915Y-65443500D01*
X118828033Y-65443500D01*
X118828034Y-65443499D01*
X118982686Y-65412737D01*
X119128368Y-65352394D01*
X119259478Y-65264789D01*
X128954148Y-55570119D01*
X129015471Y-55536634D01*
X129041829Y-55533800D01*
X129759116Y-55533800D01*
X129826155Y-55553485D01*
G37*
%TD.AperFunction*%
%TA.AperFunction,Conductor*%
G36*
X136712378Y-60725369D02*
G01*
X136756666Y-60779409D01*
X136766500Y-60827805D01*
X136766500Y-71514550D01*
X136746815Y-71581589D01*
X136694011Y-71627344D01*
X136624853Y-71637288D01*
X136561297Y-71608263D01*
X136527939Y-71562003D01*
X136509347Y-71517118D01*
X136509342Y-71517109D01*
X136503522Y-71507028D01*
X136394611Y-71318388D01*
X136394608Y-71318385D01*
X136394607Y-71318382D01*
X136254918Y-71136338D01*
X136254911Y-71136330D01*
X136092670Y-70974089D01*
X136092661Y-70974081D01*
X135910617Y-70834392D01*
X135711890Y-70719657D01*
X135711876Y-70719650D01*
X135499887Y-70631842D01*
X135278238Y-70572452D01*
X135240215Y-70567446D01*
X135050741Y-70542500D01*
X135050734Y-70542500D01*
X134821266Y-70542500D01*
X134821260Y-70542500D01*
X134821255Y-70542501D01*
X134693383Y-70559336D01*
X134624348Y-70548570D01*
X134572092Y-70502190D01*
X134553207Y-70434922D01*
X134573688Y-70368121D01*
X134589512Y-70348721D01*
X134978506Y-69959728D01*
X134978511Y-69959724D01*
X134988714Y-69949520D01*
X134988716Y-69949520D01*
X135100520Y-69837716D01*
X135172375Y-69713259D01*
X135172376Y-69713258D01*
X135175297Y-69708196D01*
X135179577Y-69700785D01*
X135220501Y-69548057D01*
X135220501Y-69389943D01*
X135220501Y-69382348D01*
X135220500Y-69382330D01*
X135220500Y-61176059D01*
X135220501Y-61176046D01*
X135220501Y-61007945D01*
X135220501Y-61007943D01*
X135213172Y-60980591D01*
X135214835Y-60910744D01*
X135253997Y-60852882D01*
X135318225Y-60825377D01*
X135332947Y-60824500D01*
X136269613Y-60824500D01*
X136269616Y-60824500D01*
X136340196Y-60818086D01*
X136502606Y-60767478D01*
X136578350Y-60721688D01*
X136645904Y-60703852D01*
X136712378Y-60725369D01*
G37*
%TD.AperFunction*%
%TA.AperFunction,Conductor*%
G36*
X133562265Y-60878500D02*
G01*
X133983181Y-61299416D01*
X134016666Y-61360739D01*
X134019500Y-61387097D01*
X134019500Y-69168902D01*
X133999815Y-69235941D01*
X133983181Y-69256583D01*
X133766068Y-69473695D01*
X133704745Y-69507180D01*
X133635053Y-69502196D01*
X133579120Y-69460324D01*
X133554874Y-69396995D01*
X133545886Y-69295882D01*
X133489909Y-69100251D01*
X133395698Y-68919893D01*
X133282983Y-68781659D01*
X133255875Y-68717265D01*
X133267884Y-68648435D01*
X133282981Y-68624942D01*
X133395698Y-68486707D01*
X133489909Y-68306349D01*
X133545886Y-68110718D01*
X133556500Y-67991337D01*
X133556499Y-66875264D01*
X133545886Y-66755882D01*
X133489909Y-66560251D01*
X133395698Y-66379893D01*
X133282983Y-66241659D01*
X133255875Y-66177265D01*
X133267884Y-66108435D01*
X133282981Y-66084942D01*
X133395698Y-65946707D01*
X133489909Y-65766349D01*
X133545886Y-65570718D01*
X133556500Y-65451337D01*
X133556499Y-64335264D01*
X133545886Y-64215882D01*
X133489909Y-64020251D01*
X133395698Y-63839893D01*
X133282983Y-63701659D01*
X133255875Y-63637265D01*
X133267884Y-63568435D01*
X133282981Y-63544942D01*
X133395698Y-63406707D01*
X133489909Y-63226349D01*
X133545886Y-63030718D01*
X133556500Y-62911337D01*
X133556499Y-61795264D01*
X133545886Y-61675882D01*
X133492760Y-61490215D01*
X133489910Y-61480254D01*
X133489909Y-61480253D01*
X133489909Y-61480251D01*
X133395698Y-61299893D01*
X133282983Y-61161659D01*
X133255875Y-61097265D01*
X133267884Y-61028435D01*
X133282981Y-61004942D01*
X133378483Y-60887819D01*
X133436103Y-60848303D01*
X133505941Y-60846211D01*
X133562265Y-60878500D01*
G37*
%TD.AperFunction*%
%TA.AperFunction,Conductor*%
G36*
X107227942Y-62695500D02*
G01*
X107227943Y-62695501D01*
X107227944Y-62695501D01*
X107393654Y-62695501D01*
X107393670Y-62695500D01*
X109110932Y-62695500D01*
X109177971Y-62715185D01*
X109223726Y-62767989D01*
X109233670Y-62837147D01*
X109215926Y-62885472D01*
X109129211Y-63023476D01*
X109069631Y-63193745D01*
X109069630Y-63193750D01*
X109049435Y-63372996D01*
X109049435Y-63373003D01*
X109069630Y-63552249D01*
X109069631Y-63552254D01*
X109129211Y-63722523D01*
X109207037Y-63846381D01*
X109225184Y-63875262D01*
X109352738Y-64002816D01*
X109505478Y-64098789D01*
X109675745Y-64158368D01*
X109762669Y-64168161D01*
X109827080Y-64195226D01*
X109836465Y-64203700D01*
X110092139Y-64459374D01*
X110092149Y-64459385D01*
X110096479Y-64463715D01*
X110096480Y-64463716D01*
X110208284Y-64575520D01*
X110275027Y-64614053D01*
X110295095Y-64625639D01*
X110295097Y-64625641D01*
X110345213Y-64654576D01*
X110345215Y-64654577D01*
X110405940Y-64670848D01*
X110465601Y-64707213D01*
X110496130Y-64770060D01*
X110492924Y-64825216D01*
X110487900Y-64842508D01*
X110487899Y-64842511D01*
X110487704Y-64844998D01*
X110487705Y-64845000D01*
X110850950Y-64845000D01*
X110885545Y-64849924D01*
X111032426Y-64892597D01*
X111032429Y-64892597D01*
X111032431Y-64892598D01*
X111069306Y-64895500D01*
X111069314Y-64895500D01*
X111886000Y-64895500D01*
X111953039Y-64915185D01*
X111998794Y-64967989D01*
X112010000Y-65019500D01*
X112010000Y-65170500D01*
X111990315Y-65237539D01*
X111937511Y-65283294D01*
X111886000Y-65294500D01*
X111069298Y-65294500D01*
X111032432Y-65297401D01*
X111032426Y-65297402D01*
X110885545Y-65340076D01*
X110850950Y-65345000D01*
X110487705Y-65345000D01*
X110487704Y-65345001D01*
X110487899Y-65347488D01*
X110487900Y-65347494D01*
X110533716Y-65505193D01*
X110533717Y-65505196D01*
X110549207Y-65531388D01*
X110566389Y-65599112D01*
X110549207Y-65657627D01*
X110533258Y-65684595D01*
X110533254Y-65684605D01*
X110487402Y-65842426D01*
X110487401Y-65842432D01*
X110484500Y-65879298D01*
X110484500Y-66310818D01*
X110464815Y-66377857D01*
X110412011Y-66423612D01*
X110342853Y-66433556D01*
X110295404Y-66416357D01*
X110204340Y-66360190D01*
X110204334Y-66360186D01*
X110037797Y-66305001D01*
X110037795Y-66305000D01*
X109935010Y-66294500D01*
X108534998Y-66294500D01*
X108534981Y-66294501D01*
X108432203Y-66305000D01*
X108432200Y-66305001D01*
X108265668Y-66360185D01*
X108265663Y-66360187D01*
X108116342Y-66452289D01*
X107992289Y-66576342D01*
X107900187Y-66725663D01*
X107900185Y-66725668D01*
X107890173Y-66755882D01*
X107845001Y-66892203D01*
X107845001Y-66892204D01*
X107845000Y-66892204D01*
X107834500Y-66994983D01*
X107834500Y-66994991D01*
X107834500Y-67389705D01*
X107834501Y-67728500D01*
X107814817Y-67795539D01*
X107762013Y-67841294D01*
X107710501Y-67852500D01*
X107126378Y-67852500D01*
X107059339Y-67832815D01*
X107013584Y-67780011D01*
X107012821Y-67778308D01*
X107007048Y-67765146D01*
X106983106Y-67728500D01*
X106876494Y-67565318D01*
X106714832Y-67389705D01*
X106574978Y-67280853D01*
X106534166Y-67224143D01*
X106530491Y-67154370D01*
X106565122Y-67093687D01*
X106574979Y-67085146D01*
X106714832Y-66976295D01*
X106876494Y-66800682D01*
X107007047Y-66600856D01*
X107102929Y-66382267D01*
X107161525Y-66150878D01*
X107166989Y-66084939D01*
X107181236Y-65913005D01*
X107181236Y-65912994D01*
X107161526Y-65675130D01*
X107161524Y-65675118D01*
X107102929Y-65443732D01*
X107024437Y-65264789D01*
X107007047Y-65225144D01*
X106876494Y-65025318D01*
X106714832Y-64849705D01*
X106574571Y-64740536D01*
X106533759Y-64683826D01*
X106530084Y-64614053D01*
X106564715Y-64553370D01*
X106574572Y-64544829D01*
X106714492Y-64435925D01*
X106714495Y-64435922D01*
X106876092Y-64260383D01*
X106876100Y-64260372D01*
X107006606Y-64060619D01*
X107102455Y-63842103D01*
X107157940Y-63623000D01*
X106178251Y-63623000D01*
X106209381Y-63569081D01*
X106244000Y-63439880D01*
X106244000Y-63306120D01*
X106209381Y-63176919D01*
X106178251Y-63123000D01*
X107157940Y-63123000D01*
X107102455Y-62903897D01*
X107085849Y-62866038D01*
X107076946Y-62796738D01*
X107106923Y-62733626D01*
X107166262Y-62696739D01*
X107219613Y-62696507D01*
X107219886Y-62694440D01*
X107227942Y-62695500D01*
G37*
%TD.AperFunction*%
%TA.AperFunction,Conductor*%
G36*
X134143966Y-50520185D02*
G01*
X134189721Y-50572989D01*
X134199665Y-50642147D01*
X134170640Y-50705703D01*
X134138927Y-50731887D01*
X133961382Y-50834392D01*
X133779338Y-50974081D01*
X133617081Y-51136338D01*
X133477392Y-51318382D01*
X133362657Y-51517109D01*
X133362650Y-51517123D01*
X133276458Y-51725211D01*
X133274842Y-51729113D01*
X133215995Y-51948738D01*
X133215453Y-51950759D01*
X133215451Y-51950770D01*
X133185500Y-52178258D01*
X133185500Y-52407741D01*
X133200958Y-52525147D01*
X133215452Y-52635238D01*
X133274842Y-52856887D01*
X133362650Y-53068876D01*
X133362657Y-53068890D01*
X133477392Y-53267617D01*
X133617081Y-53449661D01*
X133617089Y-53449670D01*
X133779330Y-53611911D01*
X133779338Y-53611918D01*
X133961382Y-53751607D01*
X133961385Y-53751608D01*
X133961388Y-53751611D01*
X134160112Y-53866344D01*
X134160117Y-53866346D01*
X134160123Y-53866349D01*
X134243421Y-53900852D01*
X134372113Y-53954158D01*
X134593762Y-54013548D01*
X134821266Y-54043500D01*
X134821273Y-54043500D01*
X135050727Y-54043500D01*
X135050734Y-54043500D01*
X135278238Y-54013548D01*
X135499887Y-53954158D01*
X135711888Y-53866344D01*
X135910612Y-53751611D01*
X136092661Y-53611919D01*
X136092665Y-53611914D01*
X136092670Y-53611911D01*
X136254911Y-53449670D01*
X136254914Y-53449665D01*
X136254919Y-53449661D01*
X136394611Y-53267612D01*
X136509344Y-53068888D01*
X136511022Y-53064837D01*
X136527939Y-53023997D01*
X136571780Y-52969593D01*
X136638074Y-52947528D01*
X136705773Y-52964807D01*
X136753384Y-53015944D01*
X136766500Y-53071449D01*
X136766500Y-55363063D01*
X136746815Y-55430102D01*
X136694011Y-55475857D01*
X136624853Y-55485801D01*
X136573609Y-55466165D01*
X136439316Y-55376433D01*
X136439307Y-55376428D01*
X136275520Y-55308586D01*
X136275512Y-55308584D01*
X136101646Y-55274000D01*
X136013000Y-55274000D01*
X136013000Y-56124272D01*
X135974940Y-56032386D01*
X135904614Y-55962060D01*
X135812728Y-55924000D01*
X135713272Y-55924000D01*
X135621386Y-55962060D01*
X135551060Y-56032386D01*
X135513000Y-56124272D01*
X135513000Y-55274000D01*
X135424353Y-55274000D01*
X135250487Y-55308584D01*
X135250479Y-55308586D01*
X135086692Y-55376428D01*
X135086683Y-55376433D01*
X134939283Y-55474923D01*
X134939279Y-55474926D01*
X134813926Y-55600279D01*
X134813922Y-55600284D01*
X134811287Y-55604228D01*
X134757671Y-55649029D01*
X134688345Y-55657731D01*
X134625320Y-55627571D01*
X134620509Y-55623010D01*
X134534133Y-55536634D01*
X133592818Y-54595318D01*
X133559333Y-54533995D01*
X133556499Y-54507637D01*
X133556499Y-54175271D01*
X133556499Y-54175264D01*
X133545886Y-54055882D01*
X133491654Y-53866349D01*
X133489910Y-53860254D01*
X133489909Y-53860253D01*
X133489909Y-53860251D01*
X133395698Y-53679893D01*
X133331446Y-53601094D01*
X133267109Y-53522190D01*
X133120295Y-53402480D01*
X133109407Y-53393602D01*
X132929049Y-53299391D01*
X132929048Y-53299390D01*
X132929045Y-53299389D01*
X132811829Y-53265850D01*
X132733418Y-53243414D01*
X132733415Y-53243413D01*
X132733413Y-53243413D01*
X132667102Y-53237517D01*
X132614037Y-53232800D01*
X132614032Y-53232800D01*
X130747971Y-53232800D01*
X130747965Y-53232800D01*
X130747964Y-53232801D01*
X130736316Y-53233836D01*
X130628584Y-53243413D01*
X130432954Y-53299389D01*
X130342772Y-53346496D01*
X130252593Y-53393602D01*
X130252591Y-53393603D01*
X130252590Y-53393604D01*
X130094890Y-53522190D01*
X129966304Y-53679890D01*
X129966302Y-53679893D01*
X129872091Y-53860251D01*
X129872090Y-53860253D01*
X129869180Y-53865825D01*
X129866668Y-53864512D01*
X129831028Y-53909818D01*
X129764997Y-53932660D01*
X129759116Y-53932800D01*
X128448855Y-53932800D01*
X128294210Y-53963561D01*
X128294198Y-53963564D01*
X128148527Y-54023902D01*
X128148514Y-54023909D01*
X128017411Y-54111510D01*
X128017407Y-54111513D01*
X127905913Y-54223007D01*
X127905910Y-54223011D01*
X127818309Y-54354114D01*
X127818304Y-54354123D01*
X127765744Y-54481017D01*
X127738864Y-54521245D01*
X126356588Y-55903521D01*
X126295265Y-55937006D01*
X126225573Y-55932022D01*
X126169640Y-55890150D01*
X126156525Y-55868245D01*
X126147296Y-55848454D01*
X126142035Y-55837171D01*
X126142032Y-55837167D01*
X126142032Y-55837166D01*
X126006494Y-55643597D01*
X125839402Y-55476506D01*
X125839396Y-55476501D01*
X125653842Y-55346575D01*
X125610217Y-55291998D01*
X125603023Y-55222500D01*
X125634546Y-55160145D01*
X125653842Y-55143425D01*
X125676026Y-55127891D01*
X125839401Y-55013495D01*
X126006495Y-54846401D01*
X126142035Y-54652830D01*
X126241903Y-54438663D01*
X126303063Y-54210408D01*
X126323659Y-53975000D01*
X126322658Y-53963564D01*
X126313620Y-53860254D01*
X126303063Y-53739592D01*
X126241903Y-53511337D01*
X126142035Y-53297171D01*
X126106640Y-53246621D01*
X126084314Y-53180418D01*
X126101324Y-53112650D01*
X126152272Y-53064837D01*
X126208216Y-53051500D01*
X126544588Y-53051500D01*
X126611627Y-53071185D01*
X126621903Y-53078555D01*
X126624736Y-53080814D01*
X126624738Y-53080816D01*
X126777478Y-53176789D01*
X126904020Y-53221068D01*
X126947745Y-53236368D01*
X126947750Y-53236369D01*
X127126996Y-53256565D01*
X127127000Y-53256565D01*
X127127004Y-53256565D01*
X127306249Y-53236369D01*
X127306252Y-53236368D01*
X127306255Y-53236368D01*
X127476522Y-53176789D01*
X127629262Y-53080816D01*
X127756816Y-52953262D01*
X127852789Y-52800522D01*
X127912368Y-52630255D01*
X127932565Y-52451000D01*
X127927690Y-52407734D01*
X127912369Y-52271750D01*
X127912368Y-52271745D01*
X127852788Y-52101476D01*
X127770474Y-51970475D01*
X127756816Y-51948738D01*
X127629262Y-51821184D01*
X127614627Y-51811988D01*
X127476523Y-51725211D01*
X127306254Y-51665631D01*
X127306249Y-51665630D01*
X127127004Y-51645435D01*
X127126996Y-51645435D01*
X126947750Y-51665630D01*
X126947745Y-51665631D01*
X126777476Y-51725211D01*
X126624736Y-51821185D01*
X126621903Y-51823445D01*
X126619724Y-51824334D01*
X126618842Y-51824889D01*
X126618744Y-51824734D01*
X126557217Y-51849855D01*
X126544588Y-51850500D01*
X120990669Y-51850500D01*
X120990653Y-51850499D01*
X120983057Y-51850499D01*
X120824943Y-51850499D01*
X120717587Y-51879265D01*
X120672210Y-51891424D01*
X120672209Y-51891425D01*
X120637066Y-51911716D01*
X120637064Y-51911717D01*
X120535290Y-51970475D01*
X120535282Y-51970481D01*
X118991481Y-53514282D01*
X118991479Y-53514285D01*
X118941361Y-53601094D01*
X118941359Y-53601096D01*
X118912425Y-53651209D01*
X118912424Y-53651210D01*
X118896544Y-53710472D01*
X118871499Y-53803943D01*
X118871499Y-53803945D01*
X118871499Y-53972046D01*
X118871500Y-53972059D01*
X118871500Y-56940203D01*
X118851815Y-57007242D01*
X118799011Y-57052997D01*
X118729853Y-57062941D01*
X118666297Y-57033916D01*
X118659819Y-57027884D01*
X117357252Y-55725317D01*
X117323767Y-55663994D01*
X117325717Y-55603524D01*
X117326644Y-55600284D01*
X117380886Y-55410718D01*
X117391500Y-55291337D01*
X117391499Y-54175264D01*
X117380886Y-54055882D01*
X117326654Y-53866349D01*
X117324910Y-53860254D01*
X117324909Y-53860253D01*
X117324909Y-53860251D01*
X117230698Y-53679893D01*
X117166446Y-53601094D01*
X117102109Y-53522190D01*
X116955295Y-53402480D01*
X116944407Y-53393602D01*
X116764049Y-53299391D01*
X116764048Y-53299390D01*
X116764045Y-53299389D01*
X116646829Y-53265850D01*
X116568418Y-53243414D01*
X116568415Y-53243413D01*
X116568413Y-53243413D01*
X116502102Y-53237517D01*
X116449037Y-53232800D01*
X116449032Y-53232800D01*
X114582971Y-53232800D01*
X114582965Y-53232800D01*
X114582964Y-53232801D01*
X114571316Y-53233836D01*
X114463584Y-53243413D01*
X114267954Y-53299389D01*
X114177772Y-53346496D01*
X114087593Y-53393602D01*
X114087591Y-53393603D01*
X114087590Y-53393604D01*
X113929890Y-53522190D01*
X113801304Y-53679890D01*
X113707089Y-53860254D01*
X113674257Y-53975000D01*
X113660264Y-54023906D01*
X113651114Y-54055883D01*
X113651113Y-54055886D01*
X113640500Y-54175266D01*
X113640500Y-55291328D01*
X113640501Y-55291334D01*
X113651113Y-55410715D01*
X113707089Y-55606345D01*
X113707090Y-55606348D01*
X113707091Y-55606349D01*
X113801302Y-55786707D01*
X113812910Y-55800943D01*
X113914015Y-55924939D01*
X113941124Y-55989336D01*
X113929115Y-56058165D01*
X113914015Y-56081661D01*
X113821599Y-56195001D01*
X113801302Y-56219893D01*
X113782479Y-56255928D01*
X113707089Y-56400254D01*
X113666207Y-56543135D01*
X113658698Y-56569379D01*
X113651114Y-56595883D01*
X113651113Y-56595886D01*
X113648437Y-56625987D01*
X113640500Y-56715263D01*
X113640500Y-57082381D01*
X113640501Y-57370500D01*
X113620817Y-57437539D01*
X113568013Y-57483294D01*
X113516501Y-57494500D01*
X113154461Y-57494500D01*
X113087422Y-57474815D01*
X113041667Y-57422011D01*
X113031723Y-57352853D01*
X113032480Y-57348215D01*
X113032598Y-57347568D01*
X113033365Y-57337822D01*
X113035500Y-57310694D01*
X113035500Y-56879306D01*
X113032598Y-56842431D01*
X113032588Y-56842397D01*
X112986745Y-56684606D01*
X112986744Y-56684603D01*
X112986744Y-56684602D01*
X112903081Y-56543135D01*
X112903079Y-56543133D01*
X112903076Y-56543129D01*
X112786870Y-56426923D01*
X112786862Y-56426917D01*
X112685613Y-56367039D01*
X112645398Y-56343256D01*
X112645397Y-56343255D01*
X112645396Y-56343255D01*
X112645393Y-56343254D01*
X112487573Y-56297402D01*
X112487558Y-56297400D01*
X112474767Y-56296393D01*
X112409479Y-56271507D01*
X112368010Y-56215275D01*
X112360500Y-56172776D01*
X112360500Y-55800945D01*
X112360498Y-55800936D01*
X112356686Y-55786707D01*
X112319577Y-55648215D01*
X112319573Y-55648208D01*
X112318710Y-55646123D01*
X112310049Y-55612548D01*
X112309032Y-55603524D01*
X112295769Y-55485801D01*
X112291369Y-55446750D01*
X112291368Y-55446745D01*
X112278762Y-55410718D01*
X112231789Y-55276478D01*
X112225952Y-55267189D01*
X112148186Y-55143425D01*
X112135816Y-55123738D01*
X112008262Y-54996184D01*
X111976684Y-54976342D01*
X111855523Y-54900211D01*
X111685254Y-54840631D01*
X111685249Y-54840630D01*
X111506004Y-54820435D01*
X111505996Y-54820435D01*
X111326750Y-54840630D01*
X111326745Y-54840631D01*
X111156476Y-54900211D01*
X111003737Y-54996184D01*
X110876184Y-55123737D01*
X110876182Y-55123740D01*
X110815133Y-55220898D01*
X110762798Y-55267189D01*
X110693745Y-55277836D01*
X110629897Y-55249461D01*
X110592434Y-55193929D01*
X110581239Y-55160145D01*
X110569814Y-55125666D01*
X110477712Y-54976344D01*
X110353656Y-54852288D01*
X110204334Y-54760186D01*
X110037797Y-54705001D01*
X110037795Y-54705000D01*
X109935010Y-54694500D01*
X108534998Y-54694500D01*
X108534981Y-54694501D01*
X108432203Y-54705000D01*
X108432200Y-54705001D01*
X108265668Y-54760185D01*
X108265663Y-54760187D01*
X108116342Y-54852289D01*
X107992289Y-54976342D01*
X107900187Y-55125663D01*
X107900186Y-55125666D01*
X107845001Y-55292203D01*
X107845001Y-55292204D01*
X107845000Y-55292204D01*
X107834500Y-55394983D01*
X107834500Y-56195001D01*
X107834501Y-56195019D01*
X107845000Y-56297796D01*
X107845001Y-56297799D01*
X107881623Y-56408316D01*
X107884025Y-56478145D01*
X107848293Y-56538186D01*
X107785773Y-56569379D01*
X107716313Y-56561818D01*
X107676236Y-56535001D01*
X107199916Y-56058681D01*
X107166431Y-55997358D01*
X107164021Y-55960760D01*
X107181236Y-55753005D01*
X107181236Y-55752994D01*
X107161526Y-55515130D01*
X107161524Y-55515118D01*
X107102929Y-55283732D01*
X107033593Y-55125663D01*
X107007047Y-55065144D01*
X106876494Y-54865318D01*
X106714832Y-54689705D01*
X106574978Y-54580853D01*
X106534166Y-54524143D01*
X106530491Y-54454370D01*
X106565122Y-54393687D01*
X106574979Y-54385146D01*
X106714832Y-54276295D01*
X106876494Y-54100682D01*
X107007047Y-53900856D01*
X107102929Y-53682267D01*
X107161525Y-53450878D01*
X107161626Y-53449661D01*
X107181236Y-53213005D01*
X107181236Y-53212994D01*
X107161526Y-52975130D01*
X107161524Y-52975118D01*
X107102929Y-52743732D01*
X107007048Y-52525147D01*
X107007047Y-52525144D01*
X106876494Y-52325318D01*
X106714832Y-52149705D01*
X106526469Y-52003097D01*
X106357615Y-51911717D01*
X106316546Y-51889491D01*
X106316541Y-51889489D01*
X106090786Y-51811988D01*
X105933826Y-51785796D01*
X105855347Y-51772700D01*
X105616653Y-51772700D01*
X105557793Y-51782522D01*
X105381213Y-51811988D01*
X105155458Y-51889489D01*
X105155453Y-51889491D01*
X104945529Y-52003098D01*
X104757169Y-52149704D01*
X104595506Y-52325317D01*
X104464951Y-52525147D01*
X104369070Y-52743732D01*
X104310475Y-52975118D01*
X104310473Y-52975130D01*
X104290764Y-53212994D01*
X104290764Y-53213005D01*
X104310473Y-53450869D01*
X104310475Y-53450881D01*
X104369070Y-53682267D01*
X104464951Y-53900852D01*
X104464953Y-53900856D01*
X104595506Y-54100682D01*
X104757168Y-54276295D01*
X104757171Y-54276297D01*
X104757174Y-54276300D01*
X104897020Y-54385147D01*
X104937833Y-54441857D01*
X104941508Y-54511630D01*
X104906876Y-54572313D01*
X104897020Y-54580853D01*
X104757174Y-54689699D01*
X104757171Y-54689702D01*
X104595506Y-54865317D01*
X104464951Y-55065147D01*
X104369070Y-55283732D01*
X104310475Y-55515118D01*
X104310473Y-55515130D01*
X104290764Y-55752994D01*
X104290764Y-55753005D01*
X104310473Y-55990869D01*
X104310475Y-55990881D01*
X104361560Y-56192607D01*
X104358935Y-56262427D01*
X104329035Y-56310728D01*
X103136286Y-57503478D01*
X103024481Y-57615282D01*
X103024479Y-57615285D01*
X102984461Y-57684600D01*
X102984460Y-57684602D01*
X102945423Y-57752214D01*
X102945423Y-57752215D01*
X102904499Y-57904943D01*
X102904499Y-57904945D01*
X102904499Y-58073046D01*
X102904500Y-58073059D01*
X102904500Y-67345242D01*
X102884815Y-67412281D01*
X102832011Y-67458036D01*
X102762853Y-67467980D01*
X102699297Y-67438955D01*
X102692819Y-67432923D01*
X102629786Y-67369890D01*
X102457820Y-67244951D01*
X102268414Y-67148444D01*
X102268413Y-67148443D01*
X102268412Y-67148443D01*
X102066243Y-67082754D01*
X102066241Y-67082753D01*
X102066240Y-67082753D01*
X101904957Y-67057208D01*
X101856287Y-67049500D01*
X101643713Y-67049500D01*
X101595042Y-67057208D01*
X101433760Y-67082753D01*
X101231585Y-67148444D01*
X101042179Y-67244951D01*
X100870213Y-67369890D01*
X100719892Y-67520211D01*
X100718778Y-67521516D01*
X100718231Y-67521872D01*
X100716451Y-67523653D01*
X100716076Y-67523278D01*
X100660266Y-67559700D01*
X100590398Y-67560188D01*
X100531357Y-67522826D01*
X100501888Y-67459474D01*
X100500500Y-67440970D01*
X100500500Y-50624500D01*
X100520185Y-50557461D01*
X100572989Y-50511706D01*
X100624500Y-50500500D01*
X134076927Y-50500500D01*
X134143966Y-50520185D01*
G37*
%TD.AperFunction*%
%TA.AperFunction,Conductor*%
G36*
X135551060Y-56315614D02*
G01*
X135621386Y-56385940D01*
X135713272Y-56424000D01*
X135637000Y-56424000D01*
X135569961Y-56404315D01*
X135524206Y-56351511D01*
X135513000Y-56300000D01*
X135513000Y-56223728D01*
X135551060Y-56315614D01*
G37*
%TD.AperFunction*%
%TA.AperFunction,Conductor*%
G36*
X136013000Y-56300000D02*
G01*
X135993315Y-56367039D01*
X135940511Y-56412794D01*
X135889000Y-56424000D01*
X135812728Y-56424000D01*
X135904614Y-56385940D01*
X135974940Y-56315614D01*
X136013000Y-56223728D01*
X136013000Y-56300000D01*
G37*
%TD.AperFunction*%
%TD*%
M02*
